<svg width="177" height="176" viewBox="0 0 177 176" fill="none" xmlns="http://www.w3.org/2000/svg">
<g clip-path="url(#clip0_201_4615)">
<path d="M131.89 8.7037C121.713 9.12694 111.738 10.5643 104.259 11.2725C86.6041 12.9403 68.9657 14.8302 51.4446 17.3822C40.0739 19.0374 28.5733 20.4119 17.5671 23.5589C11.1067 25.4069 3.12123 28.2439 0.84206 34.8648C-1.78904 42.5041 2.40061 52.3852 4.44097 59.8568C8.3918 74.3266 13.654 88.5239 19.3896 102.478C27.1489 121.344 35.3103 142.883 48.9099 158.97C67.0929 180.484 117.26 184.209 137.63 154.926C158 125.643 181.097 49.3178 176.376 29.9159C171.734 10.8283 151.447 7.88656 131.886 8.69951L131.89 8.7037Z" fill="#13A6D4"/>
<path opacity="0.7" d="M131.89 8.7037C121.713 9.12694 111.738 10.5643 104.259 11.2725C86.6041 12.9403 68.9657 14.8302 51.4446 17.3822C40.0739 19.0374 28.5733 20.4119 17.5671 23.5589C11.1067 25.4069 3.12123 28.2439 0.84206 34.8648C-1.78904 42.5041 2.40061 52.3852 4.44097 59.8568C8.3918 74.3266 13.654 88.5239 19.3896 102.478C27.1489 121.344 35.3103 142.883 48.9099 158.97C67.0929 180.484 117.26 184.209 137.63 154.926C158 125.643 181.097 49.3178 176.376 29.9159C171.734 10.8283 151.447 7.88656 131.886 8.69951L131.89 8.7037Z" fill="white"/>
<g opacity="0.3">
<path d="M148.975 115.833V111.249C150.207 110.163 151.326 109.078 152.323 107.993C153.32 106.907 154.116 105.759 154.707 104.552C155.298 103.345 155.595 102.025 155.595 100.596C155.595 99.4357 155.293 98.476 154.69 97.7092C154.087 96.9465 153.203 96.561 152.046 96.561C151.062 96.561 150.278 96.8459 149.696 97.4117C149.118 97.9774 148.829 98.7065 148.829 99.5949C148.829 99.9176 148.854 100.219 148.904 100.5C148.954 100.785 149.013 101.099 149.089 101.443L145.389 102.147C145.263 101.778 145.167 101.388 145.092 100.982C145.016 100.575 144.983 100.186 144.983 99.817C144.983 97.8433 145.599 96.2341 146.83 94.9896C148.062 93.745 149.801 93.1206 152.046 93.1206C154.292 93.1206 156.211 93.7827 157.518 95.0985C158.825 96.4185 159.479 98.2875 159.479 100.701C159.479 102.352 159.169 103.844 158.553 105.177C157.937 106.509 157.099 107.741 156.039 108.877C154.979 110.012 153.793 111.131 152.486 112.242V115.829H148.971L148.975 115.833ZM148.791 123.342V119.273H152.746V123.342H148.791Z" stroke="black" stroke-miterlimit="10"/>
</g>
<g opacity="0.3">
<path d="M67.5958 30.0289V26.6849C68.4965 25.8929 69.3093 25.1009 70.0383 24.3089C70.7673 23.5169 71.3455 22.6788 71.777 21.7988C72.2086 20.9188 72.4264 19.955 72.4264 18.9115C72.4264 18.0651 72.2044 17.3652 71.7645 16.8079C71.3245 16.2506 70.6793 15.9698 69.8372 15.9698C69.1166 15.9698 68.5468 16.1751 68.1237 16.59C67.7005 17.0049 67.491 17.5329 67.491 18.1824C67.491 18.4171 67.5078 18.6391 67.5455 18.8445C67.5832 19.0498 67.6251 19.2803 67.6796 19.5317L64.9814 20.043C64.8893 19.7748 64.818 19.4898 64.7636 19.1923C64.7091 18.8948 64.684 18.614 64.684 18.3416C64.684 16.9043 65.1323 15.7268 66.033 14.8216C66.9338 13.9123 68.1991 13.4597 69.8372 13.4597C71.4754 13.4597 72.8747 13.9416 73.83 14.9054C74.7852 15.8692 75.2586 17.2311 75.2586 18.9953C75.2586 20.2022 75.0324 21.2875 74.5841 22.2597C74.1358 23.2319 73.5241 24.1329 72.749 24.9584C71.9739 25.7881 71.1109 26.6052 70.1598 27.414V30.0331H67.5958V30.0289ZM67.4617 35.5058V32.539H70.3484V35.5058H67.4617Z" stroke="black" stroke-miterlimit="10"/>
</g>
<g opacity="0.3">
<path d="M14.911 126.716V123.372C15.8117 122.58 16.6245 121.788 17.3535 120.996C18.0825 120.204 18.6607 119.366 19.0922 118.486C19.5238 117.606 19.7416 116.642 19.7416 115.598C19.7416 114.752 19.5196 114.052 19.0796 113.495C18.6397 112.937 17.9945 112.657 17.1524 112.657C16.4318 112.657 15.862 112.862 15.4388 113.277C15.0157 113.692 14.8062 114.22 14.8062 114.869C14.8062 115.104 14.823 115.326 14.8607 115.531C14.8984 115.737 14.9403 115.967 14.9947 116.218L12.2966 116.73C12.2044 116.462 12.1332 116.177 12.0787 115.879C12.0243 115.582 11.9991 115.301 11.9991 115.028C11.9991 113.591 12.4474 112.414 13.3482 111.508C14.249 110.599 15.5143 110.146 17.1524 110.146C18.7906 110.146 20.1899 110.628 21.1451 111.592C22.1004 112.556 22.5738 113.918 22.5738 115.682C22.5738 116.889 22.3476 117.974 21.8993 118.946C21.451 119.919 20.8393 120.82 20.0642 121.645C19.2891 122.475 18.4261 123.292 17.475 124.101V126.72H14.911V126.716ZM14.7769 132.193V129.226H17.6635V132.193H14.7769Z" stroke="black" stroke-miterlimit="10"/>
</g>
<g opacity="0.3">
<path d="M115.911 38.9169V36.7253C116.502 36.2057 117.034 35.686 117.511 35.1706C117.989 34.651 118.37 34.102 118.651 33.5237C118.936 32.9455 119.074 32.3169 119.074 31.6297C119.074 31.0765 118.927 30.6156 118.642 30.251C118.353 29.8864 117.93 29.702 117.377 29.702C116.904 29.702 116.531 29.8361 116.254 30.1085C115.978 30.3809 115.84 30.7287 115.84 31.1519C115.84 31.307 115.852 31.4495 115.873 31.5836C115.898 31.7177 115.928 31.8685 115.961 32.0361L114.193 32.3714C114.134 32.1954 114.088 32.0068 114.051 31.814C114.017 31.6213 113.996 31.4327 113.996 31.2567C113.996 30.3138 114.289 29.5428 114.88 28.9477C115.471 28.3527 116.3 28.0552 117.373 28.0552C118.445 28.0552 119.367 28.3695 119.991 29.0022C120.616 29.635 120.93 30.5276 120.93 31.6841C120.93 32.4761 120.783 33.1885 120.486 33.8255C120.193 34.4624 119.79 35.0533 119.283 35.5938C118.776 36.1344 118.211 36.6708 117.587 37.203V38.9169H115.907H115.911ZM115.823 42.5081V40.5637H117.717V42.5081H115.823Z" stroke="black" stroke-miterlimit="10"/>
</g>
<g opacity="0.3">
<path d="M115.831 149.244V147.052C116.422 146.533 116.954 146.013 117.432 145.498C117.909 144.978 118.291 144.429 118.571 143.851C118.856 143.272 118.994 142.644 118.994 141.957C118.994 141.403 118.848 140.942 118.563 140.578C118.274 140.213 117.851 140.029 117.298 140.029C116.824 140.029 116.451 140.163 116.175 140.435C115.898 140.708 115.76 141.056 115.76 141.479C115.76 141.634 115.773 141.776 115.793 141.91C115.819 142.045 115.848 142.195 115.881 142.363L114.113 142.698C114.055 142.522 114.009 142.334 113.971 142.141C113.937 141.948 113.917 141.76 113.917 141.584C113.917 140.641 114.21 139.87 114.801 139.275C115.391 138.68 116.221 138.382 117.293 138.382C118.366 138.382 119.288 138.696 119.912 139.329C120.536 139.962 120.85 140.854 120.85 142.011C120.85 142.803 120.704 143.515 120.406 144.152C120.113 144.789 119.711 145.38 119.204 145.921C118.697 146.461 118.131 146.998 117.507 147.53V149.244H115.827H115.831ZM115.743 152.835V150.891H117.637V152.835H115.743Z" stroke="black" stroke-miterlimit="10"/>
</g>
<g opacity="0.3">
<path d="M8.50915 46.3214V44.1298C9.09989 43.6102 9.63198 43.0906 10.1096 42.5751C10.5872 42.0555 10.9685 41.5066 11.2492 40.9283C11.5341 40.35 11.6723 39.7214 11.6723 39.0342C11.6723 38.481 11.5257 38.0201 11.2408 37.6555C10.9517 37.291 10.5286 37.1066 9.97553 37.1066C9.5021 37.1066 9.12922 37.2407 8.8527 37.513C8.57618 37.7854 8.43793 38.1332 8.43793 38.5565C8.43793 38.7115 8.4505 38.854 8.47144 38.9881C8.49658 39.1222 8.52591 39.2731 8.55943 39.4407L6.7914 39.7759C6.73274 39.5999 6.68665 39.4113 6.64895 39.2186C6.61543 39.0258 6.59448 38.8372 6.59448 38.6612C6.59448 37.7184 6.88776 36.9473 7.4785 36.3523C8.06924 35.7572 8.89879 35.4597 9.97134 35.4597C11.0439 35.4597 11.9656 35.774 12.5899 36.4068C13.2141 37.0395 13.5283 37.9321 13.5283 39.0887C13.5283 39.8807 13.3817 40.593 13.0842 41.23C12.791 41.867 12.3888 42.4578 11.8818 42.9984C11.3749 43.539 10.8093 44.0753 10.185 44.6075V46.3214H8.50496H8.50915ZM8.42117 49.9127V47.9683H10.3149V49.9127H8.42117Z" stroke="black" stroke-miterlimit="10"/>
</g>
<g opacity="0.3">
<path d="M42.194 92.1652V89.9736C42.7847 89.4539 43.3168 88.9343 43.7944 88.4189C44.272 87.8993 44.6533 87.3503 44.934 86.772C45.2189 86.1938 45.3571 85.5652 45.3571 84.8779C45.3571 84.3248 45.2105 83.8638 44.9256 83.4993C44.6365 83.1347 44.2134 82.9503 43.6603 82.9503C43.1869 82.9503 42.814 83.0844 42.5375 83.3568C42.261 83.6292 42.1227 83.977 42.1227 84.4002C42.1227 84.5553 42.1353 84.6978 42.1563 84.8318C42.1814 84.9659 42.2107 85.1168 42.2442 85.2844L40.4762 85.6197C40.4176 85.4437 40.3715 85.2551 40.3338 85.0623C40.3002 84.8696 40.2793 84.681 40.2793 84.505C40.2793 83.5621 40.5726 82.7911 41.1633 82.196C41.7541 81.601 42.5836 81.3035 43.6562 81.3035C44.7287 81.3035 45.6504 81.6178 46.2747 82.2505C46.8989 82.8833 47.2132 83.7758 47.2132 84.9324C47.2132 85.7244 47.0665 86.4368 46.7691 87.0737C46.4758 87.7107 46.0736 88.3016 45.5666 88.8421C45.0597 89.3827 44.4941 89.9191 43.8698 90.4513V92.1652H42.1898H42.194ZM42.106 95.7564V93.812H43.9997V95.7564H42.106Z" stroke="black" stroke-miterlimit="10"/>
</g>
<g opacity="0.3">
<path d="M170.452 65.036V62.8444C171.042 62.3248 171.574 61.8052 172.052 61.2897C172.53 60.7701 172.911 60.2212 173.192 59.6429C173.476 59.0646 173.615 58.436 173.615 57.7488C173.615 57.1956 173.468 56.7347 173.183 56.3701C172.894 56.0056 172.471 55.8212 171.918 55.8212C171.444 55.8212 171.072 55.9553 170.795 56.2276C170.519 56.5 170.38 56.8478 170.38 57.2711C170.38 57.4261 170.393 57.5686 170.414 57.7027C170.439 57.8368 170.468 57.9876 170.502 58.1553L168.734 58.4905C168.675 58.3145 168.629 58.1259 168.591 57.9332C168.558 57.7404 168.537 57.5518 168.537 57.3758C168.537 56.433 168.83 55.6619 169.421 55.0669C170.012 54.4718 170.841 54.1743 171.914 54.1743C172.986 54.1743 173.908 54.4886 174.532 55.1214C175.157 55.7541 175.471 56.6467 175.471 57.8033C175.471 58.5953 175.324 59.3077 175.027 59.9446C174.733 60.5816 174.331 61.1724 173.824 61.713C173.317 62.2536 172.752 62.7899 172.127 63.3221V65.036H170.447H170.452ZM170.364 68.6273V66.6829H172.257V68.6273H170.364Z" stroke="black" stroke-miterlimit="10"/>
</g>
<path d="M148.852 59.7621C156.706 57.9299 161.587 50.0771 159.755 42.2223C157.923 34.3676 150.072 29.4853 142.219 31.3175C134.366 33.1497 129.484 41.0025 131.316 48.8573C133.148 56.7121 140.999 61.5943 148.852 59.7621Z" fill="white" stroke="#263238" stroke-linecap="round" stroke-linejoin="round"/>
<path d="M155.697 50.5949C158.493 44.984 156.211 38.1686 150.602 35.3724C144.992 32.5761 138.178 34.8578 135.382 40.4687C132.586 46.0796 134.868 52.895 140.477 55.6913C146.087 58.4876 152.901 56.2058 155.697 50.5949Z" fill="#13A6D4" stroke="#263238" stroke-width="2" stroke-linecap="round" stroke-linejoin="round"/>
<path d="M140.588 40.5801L150.48 50.4743" stroke="#263238" stroke-width="2" stroke-linecap="round" stroke-linejoin="round"/>
<path d="M150.48 40.5801L140.588 50.4743" stroke="#263238" stroke-width="2" stroke-linecap="round" stroke-linejoin="round"/>
<path d="M47.657 63.6627C55.0216 56.2966 55.0216 44.3538 47.657 36.9877C40.2923 29.6216 28.3519 29.6216 20.9872 36.9877C13.6226 44.3538 13.6226 56.2966 20.9872 63.6627C28.3519 71.0288 40.2923 71.0288 47.657 63.6627Z" fill="white" stroke="#263238" stroke-linecap="round" stroke-linejoin="round"/>
<path d="M34.3248 64.9856C42.4201 64.9856 48.9827 58.4218 48.9827 50.3249C48.9827 42.2279 42.4201 35.6641 34.3248 35.6641C26.2294 35.6641 19.6669 42.2279 19.6669 50.3249C19.6669 58.4218 26.2294 64.9856 34.3248 64.9856Z" fill="#13A6D4" stroke="#263238" stroke-width="2" stroke-linecap="round" stroke-linejoin="round"/>
<path d="M24.3486 49.2164L29.4096 56.7146L41.5443 44.5483" stroke="#263238" stroke-width="2" stroke-linecap="round" stroke-linejoin="round"/>
<path d="M47.1586 149.923C46.3291 150.27 44.3097 150.195 44.3055 150.195C44.2845 150.195 44.7622 148.879 44.7999 148.799C45.2565 147.878 46.681 146.369 47.8206 146.541C48.6418 146.667 49.0859 147.492 48.889 148.263C48.6878 149.051 47.8667 149.625 47.1586 149.923Z" fill="#263238"/>
<path d="M24.0276 151.15C24.8278 151.129 26.3403 150.425 26.6713 150.266C26.9478 150.727 27.2159 151.205 27.4715 151.72C27.9114 152.609 28.3304 153.577 28.632 154.616C28.6488 154.675 28.6572 154.737 28.6739 154.792C28.5566 154.62 27.8569 153.711 27.7983 153.652C27.0818 152.915 25.2635 151.913 24.2329 152.429C23.4913 152.797 23.3195 153.723 23.7469 154.398C24.1784 155.085 25.1337 155.383 25.9004 155.446C26.7802 155.521 28.6153 154.859 28.6865 154.834C28.9546 155.81 29.1557 156.833 29.3024 157.885C29.4113 158.647 29.4867 159.422 29.5579 160.202C29.4029 159.98 28.7493 159.133 28.6949 159.079C27.9784 158.341 26.1601 157.34 25.1295 157.855C24.3879 158.224 24.2161 159.15 24.6435 159.821C25.075 160.508 26.0302 160.805 26.7969 160.868C27.6558 160.944 29.4197 160.315 29.5663 160.265C29.5998 160.617 29.6292 160.973 29.6585 161.325C29.7548 162.481 29.8428 163.642 29.9685 164.786C30.0104 165.184 30.0691 165.57 30.1235 165.96C29.8805 165.633 29.4239 165.046 29.382 165C28.6655 164.262 26.8472 163.261 25.8166 163.776C25.075 164.145 24.9032 165.071 25.3306 165.746C25.7621 166.433 26.7173 166.731 27.4841 166.793C28.2508 166.861 29.7465 166.366 30.1612 166.219C30.2576 166.869 30.3665 167.506 30.5048 168.134C30.5718 168.403 30.6179 168.679 30.6975 168.935C30.7687 169.19 30.8441 169.446 30.9154 169.702C31.083 170.217 31.2338 170.699 31.4014 171.177C31.4852 171.42 31.569 171.646 31.6486 171.881C31.4516 171.512 31.129 170.934 31.0913 170.883C30.4922 170.045 28.8499 168.784 27.7522 169.132C26.9603 169.383 26.6545 170.272 26.9729 171.001C27.2955 171.747 28.1963 172.182 28.942 172.363C29.7632 172.56 31.5396 172.229 31.7575 172.187C31.9628 172.757 32.1723 173.314 32.3734 173.829C32.4614 174.051 32.5451 174.265 32.6331 174.479L33.3956 174.491C33.27 174.198 33.1401 173.896 33.006 173.578C32.8133 173.117 32.6164 172.622 32.4195 172.115C32.6164 172.023 34.1372 171.298 34.7363 170.67C35.4067 171.059 36.165 171.378 36.2991 171.432C36.1566 172.023 36.0226 172.601 35.9052 173.142C35.8005 173.628 35.7083 174.089 35.6245 174.525H35.9052L36.3452 174.529C36.4122 174.131 36.4876 173.716 36.5714 173.276C36.6636 172.786 36.7725 172.266 36.8856 171.73C37.1077 171.763 38.8925 172.015 39.7052 171.78C40.4426 171.566 41.3225 171.089 41.6115 170.33C41.8964 169.589 41.5487 168.713 40.7485 168.495C39.6382 168.193 38.0503 169.53 37.4889 170.389C37.4512 170.443 37.1035 171.143 36.9317 171.504C37.0029 171.181 37.0742 170.862 37.1496 170.527C37.2585 170.045 37.3926 169.542 37.5183 169.052C37.5937 168.801 37.6691 168.545 37.7445 168.289C37.8157 168.03 37.9163 167.791 38.0001 167.535C38.1341 167.166 38.2892 166.789 38.4442 166.416C38.926 166.559 40.3505 166.953 41.0878 166.856C41.8503 166.756 42.793 166.421 43.1952 165.712C43.5891 165.021 43.3796 164.103 42.6212 163.768C41.5696 163.303 39.7974 164.38 39.1103 165.147C39.0894 165.172 38.9595 165.348 38.8087 165.561C38.9721 165.201 39.1313 164.837 39.3072 164.476C39.8058 163.454 40.3505 162.427 40.8867 161.396C40.9998 161.182 41.1088 160.965 41.2177 160.751C41.6241 160.872 43.1617 161.312 43.9368 161.212C44.6993 161.111 45.642 160.776 46.0442 160.068C46.438 159.376 46.2285 158.459 45.4702 158.123C44.4186 157.658 42.6464 158.735 41.9593 159.502C41.9341 159.531 41.7833 159.741 41.6157 159.98C41.9006 159.414 42.1771 158.848 42.4327 158.278C42.881 157.281 43.2706 156.275 43.5723 155.27C43.7147 155.316 45.5079 155.865 46.3668 155.752C47.1293 155.651 48.0678 155.316 48.4742 154.608C48.868 153.916 48.6585 152.998 47.9002 152.663C46.8486 152.198 45.0764 153.275 44.3893 154.042C44.339 154.096 43.7943 154.867 43.61 155.148C43.61 155.136 43.6184 155.123 43.6226 155.11C43.9284 154.054 44.0876 153.007 44.1924 152.005C44.2971 151.008 44.3139 150.057 44.3013 149.185C44.2929 148.309 44.2343 147.513 44.1756 146.805C44.1421 146.424 44.1002 146.072 44.0625 145.749L44.0834 145.761C44.1002 145.774 44.5066 144.437 44.5233 144.349C44.7077 143.339 44.4689 141.278 43.455 140.733C42.726 140.339 41.8713 140.737 41.5696 141.475C41.2596 142.225 41.5696 143.176 41.9593 143.838C42.3573 144.517 43.6728 145.477 44.0038 145.711C44.0373 146.051 44.0709 146.411 44.1002 146.813C44.1421 147.517 44.1882 148.318 44.1756 149.189C44.1756 149.42 44.1588 149.671 44.1547 149.914C44.0834 149.504 43.9745 148.942 43.9577 148.888C43.6561 147.907 42.4956 146.185 41.3434 146.168C40.5139 146.155 39.9399 146.901 40.0111 147.693C40.0823 148.502 40.7987 149.202 41.4481 149.613C42.1269 150.04 43.7776 150.283 44.1379 150.333C44.1128 150.87 44.0751 151.419 44.0038 151.989C43.8781 152.969 43.698 154.013 43.3754 155.043C43.3586 155.102 43.3335 155.157 43.3125 155.215C43.3125 155.006 43.2287 153.862 43.212 153.782C43.0193 152.772 42.0556 150.933 40.9119 150.794C40.0907 150.694 39.4371 151.373 39.4204 152.165C39.4036 152.977 40.0362 153.753 40.6395 154.226C41.335 154.775 43.2287 155.236 43.3 155.253C42.9857 156.217 42.5877 157.181 42.1311 158.136C41.8001 158.832 41.4356 159.519 41.0669 160.206C41.0585 159.934 40.9789 158.869 40.9663 158.794C40.7736 157.784 39.81 155.944 38.6662 155.806C37.845 155.705 37.1915 156.384 37.1747 157.176C37.1579 157.989 37.7906 158.765 38.3939 159.238C39.0726 159.774 40.8867 160.223 41.0376 160.261C40.87 160.575 40.7024 160.885 40.5306 161.199C39.9692 162.217 39.4036 163.236 38.8799 164.258C38.6955 164.61 38.5321 164.966 38.3604 165.323C38.3352 164.916 38.2808 164.174 38.2682 164.112C38.0755 163.102 37.1119 161.262 35.9681 161.124C35.1469 161.023 34.4933 161.702 34.4766 162.494C34.4598 163.307 35.0924 164.082 35.6958 164.556C36.2991 165.033 37.8157 165.448 38.2473 165.557C37.9707 166.152 37.711 166.747 37.4805 167.342C37.3884 167.602 37.2753 167.862 37.1998 168.118C37.1202 168.373 37.0364 168.625 36.9568 168.876C36.8102 169.4 36.6719 169.886 36.5463 170.376C36.4834 170.624 36.4248 170.858 36.3661 171.101C36.4038 170.686 36.4541 170.024 36.4499 169.966C36.4122 168.939 35.7377 166.974 34.6316 166.664C33.8356 166.437 33.0856 167.011 32.9474 167.795C32.9306 167.896 32.9222 167.996 32.9222 168.097C32.4278 168.868 32.1681 169.974 32.1723 170.657C32.1723 170.724 32.2644 171.499 32.3231 171.897C32.2058 171.592 32.0843 171.286 31.967 170.963C31.7952 170.502 31.6276 170.008 31.46 169.53C31.3846 169.278 31.305 169.027 31.2296 168.771C31.1458 168.516 31.0955 168.26 31.0285 168C30.9363 167.619 30.8567 167.221 30.7813 166.823C31.2631 166.676 32.6666 166.215 33.2281 165.729C33.8104 165.226 34.4095 164.426 34.3551 163.613C34.3006 162.817 33.6219 162.171 32.8049 162.305C31.6695 162.498 30.7855 164.376 30.6389 165.394C30.6347 165.427 30.6263 165.645 30.6179 165.905C30.5551 165.515 30.488 165.126 30.4378 164.728C30.2911 163.596 30.1738 162.444 30.0565 161.287C30.0314 161.044 30.002 160.805 29.9769 160.566C30.3833 160.445 31.9083 159.959 32.4991 159.452C33.0772 158.949 33.6805 158.149 33.6261 157.336C33.5716 156.544 32.8929 155.894 32.0759 156.032C30.9405 156.225 30.0565 158.102 29.9099 159.121C29.9057 159.158 29.8931 159.418 29.8847 159.707C29.8093 159.079 29.7297 158.454 29.6292 157.838C29.4532 156.757 29.2228 155.705 28.9211 154.7C29.0635 154.658 30.8651 154.126 31.5187 153.56C32.101 153.057 32.7002 152.257 32.6457 151.444C32.5912 150.652 31.9125 150.002 31.0955 150.141C29.9601 150.333 29.0761 152.211 28.9295 153.229C28.9169 153.3 28.8876 154.243 28.8918 154.582C28.8918 154.57 28.8876 154.557 28.8834 154.545C28.5566 153.493 28.1125 152.533 27.6474 151.641C27.1866 150.748 26.6713 149.952 26.1853 149.227C25.6993 148.502 25.2049 147.869 24.7692 147.312C24.5304 147.01 24.3041 146.742 24.0904 146.495C24.0946 146.495 24.1156 146.495 24.1156 146.495C24.1365 146.495 23.7385 145.154 23.705 145.074C23.3028 144.127 21.9663 142.539 20.8183 142.644C19.993 142.719 19.5028 143.524 19.6536 144.303C19.8086 145.099 20.5963 145.72 21.2834 146.059C21.9914 146.403 23.617 146.478 24.0234 146.491C24.2413 146.755 24.4675 147.04 24.7105 147.358C25.1378 147.924 25.6113 148.565 26.0805 149.298C26.2062 149.491 26.3319 149.709 26.4618 149.914C26.1769 149.613 25.7789 149.202 25.7328 149.168C24.9409 148.515 23.0221 147.718 22.0543 148.343C21.3588 148.791 21.2918 149.73 21.7861 150.35C22.2931 150.987 23.2735 151.176 24.0402 151.155L24.0276 151.15Z" fill="#263238"/>
<path d="M26.7216 150.052C26.7216 150.052 26.3738 148.703 26.3655 148.615C26.2398 147.597 26.5959 145.552 27.6391 145.066C28.3891 144.718 29.2186 145.162 29.4784 145.916C29.7465 146.683 29.3778 147.614 28.9505 148.255C28.4477 149.005 26.7216 150.052 26.7216 150.057V150.052Z" fill="#263238"/>
<path d="M151.875 149.923C151.045 150.27 149.026 150.195 149.022 150.195C149.001 150.195 149.474 148.879 149.516 148.799C149.973 147.878 151.397 146.369 152.537 146.541C153.358 146.667 153.802 147.492 153.605 148.263C153.404 149.051 152.583 149.625 151.875 149.923Z" fill="#263238"/>
<path d="M128.748 151.15C129.548 151.129 131.06 150.425 131.391 150.266C131.664 150.727 131.936 151.205 132.192 151.72C132.632 152.609 133.051 153.577 133.352 154.616C133.369 154.675 133.377 154.737 133.394 154.792C133.277 154.62 132.577 153.711 132.518 153.652C131.802 152.915 129.984 151.913 128.953 152.429C128.212 152.797 128.04 153.723 128.467 154.398C128.899 155.085 129.854 155.383 130.621 155.446C131.5 155.521 133.335 154.859 133.407 154.834C133.675 155.81 133.876 156.833 134.023 157.885C134.132 158.647 134.207 159.422 134.278 160.202C134.123 159.98 133.47 159.133 133.415 159.079C132.699 158.341 130.88 157.34 129.85 157.855C129.108 158.224 128.936 159.15 129.364 159.821C129.795 160.508 130.75 160.805 131.517 160.868C132.376 160.944 134.14 160.315 134.287 160.265C134.32 160.617 134.349 160.973 134.379 161.325C134.475 162.481 134.563 163.642 134.689 164.786C134.731 165.184 134.789 165.57 134.844 165.96C134.601 165.633 134.144 165.046 134.102 165C133.386 164.262 131.567 163.261 130.537 163.776C129.795 164.145 129.623 165.071 130.051 165.746C130.482 166.433 131.438 166.731 132.204 166.793C132.971 166.861 134.467 166.366 134.881 166.219C134.978 166.869 135.087 167.506 135.225 168.134C135.292 168.403 135.338 168.679 135.418 168.935C135.489 169.19 135.564 169.446 135.636 169.702C135.803 170.217 135.954 170.699 136.122 171.177C136.205 171.42 136.289 171.646 136.369 171.881C136.172 171.512 135.849 170.934 135.812 170.883C135.212 170.045 133.57 168.784 132.472 169.132C131.681 169.383 131.375 170.272 131.693 171.001C132.016 171.747 132.917 172.182 133.662 172.363C134.483 172.56 136.26 172.229 136.478 172.187C136.683 172.757 136.892 173.314 137.094 173.829C137.182 174.051 137.265 174.265 137.353 174.479L138.116 174.491C137.99 174.198 137.86 173.896 137.726 173.578C137.534 173.117 137.337 172.622 137.14 172.115C137.337 172.023 138.857 171.298 139.457 170.67C140.127 171.059 140.885 171.378 141.019 171.432C140.877 172.023 140.743 172.601 140.625 173.142C140.521 173.628 140.429 174.089 140.345 174.525H140.625L141.065 174.529C141.132 174.131 141.208 173.716 141.292 173.276C141.384 172.786 141.493 172.266 141.606 171.73C141.828 171.763 143.613 172.015 144.425 171.78C145.163 171.566 146.043 171.089 146.332 170.33C146.617 169.589 146.269 168.713 145.469 168.495C144.358 168.193 142.771 169.53 142.209 170.389C142.171 170.443 141.824 171.143 141.652 171.504C141.723 171.181 141.794 170.862 141.87 170.527C141.979 170.045 142.113 169.542 142.238 169.052C142.314 168.801 142.389 168.545 142.465 168.289C142.536 168.03 142.636 167.791 142.72 167.535C142.854 167.166 143.009 166.789 143.164 166.416C143.646 166.559 145.071 166.953 145.808 166.856C146.571 166.756 147.513 166.421 147.915 165.712C148.309 165.021 148.1 164.103 147.341 163.768C146.29 163.303 144.518 164.38 143.831 165.147C143.81 165.172 143.68 165.348 143.529 165.561C143.692 165.201 143.851 164.837 144.027 164.476C144.526 163.454 145.071 162.427 145.607 161.396C145.72 161.182 145.829 160.965 145.938 160.751C146.344 160.872 147.882 161.312 148.657 161.212C149.42 161.111 150.362 160.776 150.764 160.068C151.158 159.376 150.949 158.459 150.19 158.123C149.139 157.658 147.367 158.735 146.68 159.502C146.654 159.531 146.504 159.741 146.336 159.98C146.621 159.414 146.897 158.848 147.153 158.278C147.601 157.281 147.991 156.275 148.293 155.27C148.435 155.316 150.228 155.865 151.087 155.752C151.85 155.651 152.788 155.316 153.194 154.608C153.588 153.916 153.379 152.998 152.62 152.663C151.569 152.198 149.797 153.275 149.109 154.042C149.059 154.096 148.515 154.867 148.33 155.148C148.33 155.136 148.339 155.123 148.343 155.11C148.649 154.054 148.808 153.007 148.913 152.005C149.017 151.008 149.034 150.057 149.022 149.185C149.013 148.309 148.954 147.513 148.896 146.805C148.862 146.424 148.82 146.072 148.783 145.749L148.804 145.761C148.82 145.774 149.227 144.437 149.244 144.349C149.428 143.339 149.189 141.278 148.175 140.733C147.446 140.339 146.592 140.737 146.29 141.475C145.98 142.225 146.29 143.176 146.68 143.838C147.078 144.517 148.393 145.477 148.724 145.711C148.758 146.051 148.791 146.411 148.82 146.813C148.862 147.517 148.908 148.318 148.896 149.189C148.896 149.42 148.879 149.671 148.875 149.914C148.804 149.504 148.695 148.942 148.678 148.888C148.376 147.907 147.216 146.185 146.064 146.168C145.234 146.155 144.66 146.901 144.731 147.693C144.803 148.502 145.519 149.202 146.168 149.613C146.847 150.04 148.498 150.283 148.858 150.333C148.833 150.87 148.795 151.419 148.724 151.989C148.598 152.969 148.418 154.013 148.096 155.043C148.079 155.102 148.054 155.157 148.033 155.215C148.033 155.006 147.949 153.862 147.932 153.782C147.739 152.772 146.776 150.933 145.632 150.794C144.811 150.694 144.157 151.373 144.141 152.165C144.124 152.977 144.756 153.753 145.36 154.226C146.055 154.775 147.949 155.236 148.02 155.253C147.706 156.217 147.308 157.181 146.851 158.136C146.52 158.832 146.156 159.519 145.787 160.206C145.779 159.934 145.699 158.869 145.687 158.794C145.494 157.784 144.53 155.944 143.386 155.806C142.565 155.705 141.912 156.384 141.895 157.176C141.878 157.989 142.511 158.765 143.114 159.238C143.793 159.774 145.607 160.223 145.758 160.261C145.59 160.575 145.423 160.885 145.251 161.199C144.689 162.217 144.124 163.236 143.6 164.258C143.416 164.61 143.252 164.966 143.081 165.323C143.055 164.916 143.001 164.174 142.988 164.112C142.796 163.102 141.832 161.262 140.688 161.124C139.867 161.023 139.214 161.702 139.197 162.494C139.18 163.307 139.813 164.082 140.416 164.556C141.019 165.033 142.536 165.448 142.967 165.557C142.691 166.152 142.431 166.747 142.201 167.342C142.109 167.602 141.995 167.862 141.92 168.118C141.84 168.373 141.757 168.625 141.677 168.876C141.53 169.4 141.392 169.886 141.266 170.376C141.204 170.624 141.145 170.858 141.086 171.101C141.124 170.686 141.174 170.024 141.17 169.966C141.132 168.939 140.458 166.974 139.352 166.664C138.556 166.437 137.806 167.011 137.668 167.795C137.651 167.896 137.642 167.996 137.642 168.097C137.148 168.868 136.888 169.974 136.892 170.657C136.892 170.724 136.985 171.499 137.043 171.897C136.926 171.592 136.805 171.286 136.687 170.963C136.515 170.502 136.348 170.008 136.18 169.53C136.105 169.278 136.025 169.027 135.95 168.771C135.866 168.516 135.816 168.26 135.749 168C135.657 167.619 135.577 167.221 135.502 166.823C135.983 166.676 137.387 166.215 137.948 165.729C138.531 165.226 139.13 164.426 139.075 163.613C139.021 162.817 138.342 162.171 137.525 162.305C136.39 162.498 135.506 164.376 135.359 165.394C135.355 165.427 135.347 165.645 135.338 165.905C135.275 165.515 135.208 165.126 135.158 164.728C135.011 163.596 134.894 162.444 134.777 161.287C134.752 161.044 134.722 160.805 134.697 160.566C135.104 160.445 136.629 159.959 137.219 159.452C137.797 158.949 138.401 158.149 138.346 157.336C138.292 156.544 137.613 155.894 136.796 156.032C135.661 156.225 134.777 158.102 134.63 159.121C134.626 159.158 134.613 159.418 134.605 159.707C134.53 159.079 134.45 158.454 134.349 157.838C134.173 156.757 133.943 155.705 133.641 154.7C133.784 154.658 135.585 154.126 136.239 153.56C136.821 153.057 137.42 152.257 137.366 151.444C137.311 150.652 136.633 150.002 135.816 150.141C134.68 150.333 133.796 152.211 133.65 153.229C133.637 153.3 133.608 154.243 133.612 154.582C133.612 154.57 133.608 154.557 133.604 154.545C133.277 153.493 132.833 152.533 132.368 151.641C131.907 150.748 131.391 149.952 130.905 149.227C130.419 148.502 129.925 147.869 129.489 147.312C129.251 147.01 129.024 146.742 128.811 146.495C128.815 146.495 128.836 146.495 128.836 146.495C128.857 146.495 128.459 145.154 128.425 145.074C128.023 144.127 126.687 142.539 125.539 142.644C124.713 142.719 124.223 143.524 124.374 144.303C124.529 145.099 125.316 145.72 126.004 146.059C126.712 146.403 128.337 146.478 128.744 146.491C128.961 146.755 129.188 147.04 129.431 147.358C129.858 147.924 130.332 148.565 130.801 149.298C130.926 149.491 131.052 149.709 131.182 149.914C130.897 149.613 130.499 149.202 130.453 149.168C129.661 148.515 127.742 147.718 126.774 148.343C126.079 148.791 126.012 149.73 126.506 150.35C127.013 150.987 127.994 151.176 128.76 151.155L128.748 151.15Z" fill="#263238"/>
<path d="M131.438 150.052C131.438 150.052 131.09 148.703 131.081 148.615C130.956 147.597 131.312 145.552 132.355 145.066C133.105 144.718 133.935 145.162 134.194 145.916C134.462 146.683 134.094 147.614 133.666 148.255C133.164 149.005 131.438 150.052 131.438 150.057V150.052Z" fill="#263238"/>
<path d="M166.848 174.533H173.141" stroke="#263238" stroke-linecap="round" stroke-linejoin="round"/>
<path d="M6.06238 174.533H162.797" stroke="#263238" stroke-linecap="round" stroke-linejoin="round"/>
<path d="M90.5718 0.209473V174.546" stroke="#263238" stroke-linecap="round" stroke-linejoin="round"/>
<path opacity="0.2" d="M131.115 104.582C130.78 104.133 130.373 103.773 130.051 103.484C129.925 103.371 129.812 103.274 129.728 103.186C129.657 103.115 119.824 91.189 119.019 89.8187C118.781 89.4122 118.483 88.792 118.169 88.1341C117.293 86.2987 116.627 84.9787 116.032 84.7105C115.99 84.6895 112.965 83.3528 110.661 82.4728C112.111 81.8945 113.648 81.0145 113.347 79.0366C113.129 77.6034 112.354 76.5055 111.671 75.5375C110.837 74.3516 110.112 73.3292 110.649 72.0385C111.013 71.1585 111.562 70.4796 112.09 69.8175C113.032 68.6484 114.004 67.4415 113.858 65.1787C113.657 62.1238 111.826 54.5432 107.691 51.9284C103.845 49.4937 94.3927 49.3093 93.869 49.301C93.3788 49.2507 89.4866 48.8819 88.5858 50.1935L88.4643 50.3695C88.2674 50.6545 88.0747 50.9311 87.9281 51.2118C86.7801 51.0191 85.276 51.0274 84.4758 52.1212C83.4954 53.4621 84.9869 55.7417 86.0008 57.0198C85.7285 57.4724 85.4604 57.925 85.209 58.3608C83.7552 60.8876 83.73 60.9337 84.0275 61.4408L84.0694 61.512C84.2789 61.8808 84.4213 62.6099 84.4674 62.8613C83.5834 63.9048 82.1296 65.5516 81.807 65.736C81.6226 65.8408 81.564 65.9916 81.5514 66.1006C81.4928 66.528 81.9829 67.0644 82.5821 67.6678L83.1183 68.2084C83.1896 68.64 83.5792 70.9699 83.8809 72.6964C83.8599 72.6796 83.8473 72.6545 83.8222 72.6419C83.4954 72.445 83.11 72.8012 82.9801 72.9185C82.1505 73.677 80.2945 76.7025 80.1437 77.5406C80.0431 78.1063 80.0138 79.9417 80.0054 80.9432C79.8001 81.2114 79.6116 81.4671 79.444 81.6975C74.8564 82.8332 70.5285 84.0693 70.4363 84.7147C70.2855 85.7791 70.0508 98.4217 70.4363 104.259C70.6248 107.113 70.4572 109.221 70.3357 110.758C70.21 112.363 70.1262 113.428 70.5368 114.17C70.8427 114.718 71.5256 115.439 72.2839 116.143C73.1009 117.597 74.7977 120.179 76.2808 121.298C76.2515 121.373 76.2264 121.44 76.1929 121.515C76.1929 121.52 76.1929 121.528 76.1929 121.532C74.5798 125.677 71.4334 134.577 70.9348 142.195C70.2645 152.47 76.683 174.378 76.7501 174.6C76.7752 174.684 76.8548 174.743 76.9428 174.743H91.0745C91.1876 174.743 91.2756 174.655 91.2756 174.542V147.484C91.2756 147.249 91.4683 147.056 91.7029 147.056C91.9375 147.056 92.1303 147.249 92.1303 147.484V174.542C92.1303 174.655 92.2183 174.743 92.3314 174.743H106.463C106.543 174.743 106.614 174.697 106.647 174.621C106.735 174.42 115.265 154.574 113.535 141.697C113.058 138.139 112.433 134.917 111.78 132.109C112.144 132.18 112.479 132.222 112.689 132.197C113.393 132.117 114.704 131.355 115.11 130.789C115.462 130.294 115.99 129.071 116.074 128.866L124.68 118.482C125.425 118.859 125.773 118.963 125.949 118.963C126.075 118.963 126.112 118.909 126.138 118.871C126.192 118.792 126.322 118.607 126.498 118.364C128.873 115.045 128.945 114.672 128.777 114.45C128.723 114.379 128.333 114.17 127.726 113.876C128.505 112.72 130.759 109.33 131.144 108.035C131.622 106.442 131.614 105.248 131.115 104.582ZM118.952 110.142L118.659 110.729C118.659 110.729 118.647 110.758 118.642 110.775L117.909 114.157C117.892 114.237 117.926 114.32 117.993 114.366C118.094 114.434 118.19 114.496 118.29 114.563L112.613 126.033C112.157 125.534 111.503 124.822 111.197 124.457L111.126 124.369C110.929 124.139 110.523 123.657 109.811 122.71C109.597 122.425 109.425 121.901 109.258 121.394C109.01 120.64 108.813 120.04 108.441 119.915C108.369 119.89 108.265 119.877 108.147 119.919C108.101 119.391 107.929 118.641 107.766 117.912C107.628 117.308 107.502 116.738 107.473 116.411C107.402 115.607 108.001 111.395 107.996 111.391L112.148 99.0042L119.929 107.93C119.518 107.951 118.961 108.026 118.743 108.294C118.647 108.412 118.613 108.558 118.655 108.709C118.735 109.019 118.902 109.573 119.057 110.05C119.015 110.067 118.982 110.096 118.961 110.142H118.952ZM84.2118 74.5276C84.4004 75.3573 85.188 75.9817 85.7746 76.0236C86.1726 76.053 87.6767 75.944 88.2004 75.9063C88.2548 76.1703 88.368 76.7151 88.523 77.4442C88.1292 77.6411 87.4546 78.0853 87.1404 78.8899C86.7047 78.5086 86.1852 78.0728 85.6866 77.6914C85.5986 76.648 85.4059 76.0362 85.0833 75.7806C84.9241 75.6549 84.7355 75.613 84.5344 75.6632C84.1197 75.7596 83.885 76.1577 83.7552 76.6648C83.5624 76.6522 83.42 76.6857 83.3362 76.7779C83.2859 76.8282 83.2608 76.8911 83.2566 76.9455C83.0639 77.1718 82.7329 77.5657 82.3307 78.0434L82.272 76.933C82.5444 76.5013 83.8599 74.4187 83.9982 73.8739C84.0065 73.8488 84.0233 73.7608 84.0443 73.6434C84.1197 74.0541 84.1783 74.3726 84.2118 74.5192V74.5276Z" fill="black"/>
<path d="M108.005 140.343C106.191 126.829 102.399 118.042 102.399 118.042L70.4908 116.944C70.4908 116.944 64.7426 130.056 64.0387 140.846C63.3349 151.637 70.0886 174.533 70.0886 174.533H84.811V146.344C84.811 145.984 85.1043 145.69 85.4646 145.69C85.8249 145.69 86.1182 145.984 86.1182 146.344V174.533H100.841C100.841 174.533 109.815 153.858 108.001 140.343H108.005Z" fill="#263238" stroke="#263238" stroke-linecap="round" stroke-linejoin="round"/>
<path d="M102.399 118.042L70.4908 116.944C70.4908 116.944 70.097 117.849 69.5021 119.366C71.3288 120.078 76.0086 121.57 84.9116 122.391C93.7811 123.213 100.061 120.397 102.73 118.871C102.521 118.331 102.395 118.046 102.395 118.046L102.399 118.042Z" fill="#999999" stroke="#263238" stroke-linecap="round" stroke-linejoin="round"/>
<path d="M85.7118 123.221C85.7118 123.221 92.0842 125.186 93.0436 124.868C94.0031 124.549 93.9486 122.953 93.0436 122.312C92.1387 121.675 85.9631 120.099 85.9631 120.099C85.9631 120.099 84.4716 119.81 83.8893 120.501C83.3027 121.193 83.5709 122.471 84.0485 122.844C84.5261 123.217 85.7118 123.221 85.7118 123.221Z" fill="#999999" stroke="#263238" stroke-linecap="round" stroke-linejoin="round"/>
<path d="M85.7118 123.221C84.8069 123.221 84.0737 122.517 84.0737 121.649C84.0737 120.782 84.8069 120.078 85.7118 120.078C85.7998 120.078 85.8794 120.091 85.9632 120.103C85.6867 119.956 85.3725 119.864 85.0331 119.864C83.9606 119.864 83.0891 120.698 83.0891 121.729C83.0891 122.76 83.9606 123.594 85.0331 123.594C85.5359 123.594 85.4018 123.703 85.7453 123.405C85.5526 123.481 85.9297 123.225 85.7118 123.225V123.221Z" fill="white" stroke="#263238" stroke-linecap="round" stroke-linejoin="round"/>
<path d="M81.5766 75.9649C81.5766 75.9649 63.6784 79.8621 63.5192 80.9767C63.36 82.0872 63.1212 95.2621 63.5192 101.296C63.9172 107.326 62.807 110.105 63.5988 111.534C64.3907 112.963 67.8848 115.661 68.3583 116.059C68.8317 116.457 70.9768 118.36 70.9768 118.36C70.9768 118.36 74.7056 119.709 84.6266 120.661C94.5435 121.612 102.324 118.834 102.403 118.042C102.483 117.25 101.766 114.865 101.691 113.993C101.611 113.122 102.248 108.676 102.248 108.676L106.694 95.4213L115.341 105.34C115.341 105.34 113.594 105.261 113.753 105.898C113.912 106.534 114.465 108.198 114.465 108.198L122.56 111.609C122.56 111.609 125.89 106.769 126.368 105.181C126.846 103.593 126.846 102.403 126.368 101.77C125.89 101.133 125.258 100.659 124.939 100.341C124.621 100.022 114.545 87.7234 113.749 86.3741C112.953 85.0247 111.608 81.5341 110.732 81.136C109.861 80.7379 103.828 78.1188 102.718 78.0392C101.607 77.9596 94.3173 74.6072 81.5766 75.9649Z" fill="#13A6D4" stroke="#263238" stroke-linecap="round" stroke-linejoin="round"/>
<path d="M71.8901 89.7223L71.689 88.3562" stroke="#263238" stroke-linecap="round" stroke-linejoin="round"/>
<path d="M73.1177 98.0402L72.0619 90.8745" stroke="#263238" stroke-linecap="round" stroke-linejoin="round"/>
<path d="M106.685 95.4211L108.826 88.9929" stroke="#263238" stroke-linecap="round" stroke-linejoin="round"/>
<path d="M109.597 90.0574L110.175 88.7542" stroke="#263238" stroke-linecap="round" stroke-linejoin="round"/>
<path d="M107.636 94.4657L109.165 91.0295" stroke="#263238" stroke-linecap="round" stroke-linejoin="round"/>
<path d="M85.276 113.771C84.8403 116.306 84.1281 118.18 84.304 118.36C84.5428 118.599 85.0959 119.47 85.0959 119.47" stroke="#263238" stroke-linecap="round" stroke-linejoin="round"/>
<path d="M85.5777 94.0718C85.5777 94.0718 85.7369 107.247 85.5777 111.056C85.5567 111.601 85.5064 112.133 85.4436 112.648" stroke="#263238" stroke-linecap="round" stroke-linejoin="round"/>
<path d="M94.2335 100.55C92.721 100.488 92.323 100.337 92.323 100.337" stroke="#263238" stroke-linecap="round" stroke-linejoin="round"/>
<path d="M91.925 97.2441C91.925 97.2441 96.7641 97.7219 98.1132 97.7219C99.4622 97.7219 104.381 97.3238 104.381 97.3238L104.062 100.102C104.062 100.102 98.3478 100.58 95.6496 100.58" stroke="#263238" stroke-linecap="round" stroke-linejoin="round"/>
<path d="M101.209 107.008C102.797 106.451 103.35 101.849 103.35 101.849" stroke="#263238" stroke-linecap="round" stroke-linejoin="round"/>
<path d="M92.0046 101.531C92.0046 101.531 91.3678 106.61 91.6862 107.008C91.925 107.305 96.2697 107.469 99.0977 107.297" stroke="#263238" stroke-linecap="round" stroke-linejoin="round"/>
<path d="M79.6242 95.8152H82.7204L82.8 98.8323H78.912" stroke="#263238" stroke-linecap="round" stroke-linejoin="round"/>
<path d="M82.4732 101.212C82.6198 103.228 82.7455 106.291 82.1631 106.45C81.2917 106.689 78.3547 106.61 78.3547 106.61" stroke="#263238" stroke-linecap="round" stroke-linejoin="round"/>
<path d="M82.3224 99.4692C82.3224 99.4692 82.3769 99.9889 82.4397 100.747" stroke="#263238" stroke-linecap="round" stroke-linejoin="round"/>
<path d="M123.352 105.344C123.808 105.378 124.215 105.428 124.537 105.499" stroke="#263238" stroke-linecap="round" stroke-linejoin="round"/>
<path d="M116.602 105.499C116.602 105.499 119.732 105.244 122.237 105.294" stroke="#263238" stroke-linecap="round" stroke-linejoin="round"/>
<path d="M121.366 102.721C121.366 102.721 117.955 103.119 115.81 104.783" stroke="#263238" stroke-linecap="round" stroke-linejoin="round"/>
<path d="M83.0555 46.6651C83.0555 46.6651 79.4608 45.2529 78.0991 47.1135C76.7375 48.9741 80.5166 52.9341 80.5166 52.9341L85.6656 46.6316L83.0555 46.6651Z" fill="#263238" stroke="#263238" stroke-linecap="round" stroke-linejoin="round"/>
<path d="M82.5361 73.4339C82.5361 73.4339 81.1325 73.9116 80.8183 75.261C80.4999 76.6103 81.2163 85.5779 80.9775 87.4846C80.7387 89.3912 82.5654 87.4846 82.5654 87.4846L84.1533 84.8655C84.1533 84.8655 86.9603 88.3394 87.4589 88.1509C87.9617 87.9623 89.7046 85.6617 90.023 85.976C90.3414 86.2945 92.4027 89.8648 92.6415 87.7234C92.8803 85.5821 94.9416 80.6583 94.0702 76.4552C93.1987 72.248 92.2686 73.0861 92.2686 73.0861L82.5403 73.4381L82.5361 73.4339Z" fill="#13A6D4" stroke="#263238" stroke-linecap="round" stroke-linejoin="round"/>
<path d="M82.6198 47.545C82.6198 47.545 80.4454 50.8722 78.8743 53.596C77.3074 56.3198 77.3995 56.1648 77.6886 56.6718C77.9777 57.1789 78.1453 58.2433 78.1453 58.2433C78.1453 58.2433 75.7614 61.0718 75.2544 61.361C74.7475 61.6501 75.5016 62.4296 76.1091 63.0414L76.7124 63.649C76.7124 63.649 77.6802 69.4654 77.8646 70.2867C78.0489 71.108 78.8198 71.6486 79.3058 71.6821C79.7918 71.7157 81.9872 71.548 81.9872 71.548C81.9872 71.548 83.4159 78.7808 85.0289 83.3819C86.6419 87.9873 86.9687 88.553 87.4505 88.1465C87.9365 87.7442 90.4377 83.3819 92.4571 75.3865C94.4765 67.3911 95.017 66.9553 95.017 66.9553C95.017 66.9553 96.5211 58.2349 93.978 54.0905C91.4349 49.9461 85.7286 45.9023 82.6198 47.545Z" fill="white" stroke="#263238" stroke-linecap="round" stroke-linejoin="round"/>
<path d="M82.9633 57.8788C82.9633 58.4738 82.6449 58.9599 82.2511 58.9599C81.8572 58.9599 81.5388 58.4738 81.5388 57.8788C81.5388 57.2837 81.8572 56.7976 82.2511 56.7976C82.6449 56.7976 82.9633 57.2837 82.9633 57.8788Z" fill="#263238"/>
<path d="M85.2425 55.201C83.0011 51.9869 80.9984 54.7945 80.9984 54.7945" stroke="#263238" stroke-linecap="round" stroke-linejoin="round"/>
<path d="M78.1453 58.2433C78.1453 58.2433 78.6522 57.9541 78.7067 57.1495L78.7611 56.345" stroke="#263238" stroke-linecap="round" stroke-linejoin="round"/>
<path d="M81.9872 71.548L86.1643 71.2295L83.3362 77.1423L81.9872 71.548Z" fill="#263238" stroke="#263238" stroke-linecap="round" stroke-linejoin="round"/>
<path d="M79.0083 64.8517L80.349 64.4788" stroke="#263238" stroke-linecap="round" stroke-linejoin="round"/>
<path d="M87.7103 44.2597C87.7103 44.2597 83.2902 43.7862 82.3894 45.102C81.4886 46.4136 80.6968 47.3313 82.6827 49.0075C84.6686 50.6837 87.1405 52.3976 87.0399 53.8475C86.9394 55.2974 88.3555 57.0155 89.4615 57.4178C90.5676 57.8201 92.0549 56.2235 91.4055 58.5241C90.7561 60.8247 86.776 61.0342 87.5175 64.3237C88.2591 67.6132 91.0327 68.4555 89.9182 69.3523C88.8038 70.2448 85.1965 72.8052 85.8459 76.5976C86.4911 80.3942 90.9321 83.0593 90.3665 84.7565C89.8009 86.4536 84.9577 86.8559 84.8739 89.3618C84.7943 91.8677 87.8611 94.6921 89.7171 95.0944C91.5731 95.4967 93.9151 94.9309 93.9151 94.9309C93.9151 94.9309 91.7365 92.0227 92.5409 91.6205C93.3495 91.2182 97.2249 91.2182 100.778 89.8437C104.331 88.4692 104.896 83.5454 104.171 82.0913C103.447 80.6372 102.072 80.478 102.797 79.5058C103.522 78.5378 108.307 78.3325 107.808 75.0597C107.309 71.7869 103.937 70.2532 105.009 67.6551C106.082 65.057 108.571 64.1812 108.336 60.6026C108.101 57.0239 106.04 49.5104 102.01 46.9626C97.9791 44.4147 87.7103 44.2597 87.7103 44.2597Z" fill="#263238" stroke="#263238" stroke-linecap="round" stroke-linejoin="round"/>
<path d="M67.403 106.057C67.403 106.057 64.6252 111.693 64.9436 112.644C65.262 113.595 69.0704 119.868 70.8929 119.391C72.7154 118.913 75.1789 116.059 75.732 114.63C76.2892 113.201 76.9218 108.994 76.9218 108.994C76.9218 108.994 72.6358 109.979 71.5256 109.644C70.4153 109.308 67.3988 106.057 67.3988 106.057H67.403Z" fill="#13A6D4" stroke="#263238" stroke-linecap="round" stroke-linejoin="round"/>
<path d="M80.2652 83.3779C80.2652 83.3779 79.8965 82.5356 79.3686 81.1611C78.8407 79.7908 79.0502 76.7318 79.0502 75.2023C79.0502 73.6727 78.9455 71.5104 78.0489 71.72C77.1523 71.9295 77.2068 73.987 77.3618 74.9885C77.5168 75.9901 77.0392 79.091 76.8046 79.3592C76.5699 79.6274 76.4149 79.9459 76.4149 79.9459C76.4149 79.9459 78.472 83.7424 79.2639 84.48C80.0557 85.2175 80.2652 83.3737 80.2652 83.3737V83.3779Z" fill="white" stroke="#263238" stroke-linecap="round" stroke-linejoin="round"/>
<path d="M73.4822 77.6997C73.4822 77.6997 73.4822 74.3012 73.6247 73.5092C73.7671 72.713 75.6483 69.6079 76.5155 68.8117C77.3828 68.0155 77.3828 69.0296 77.2361 69.6079C77.0937 70.1862 75.4304 72.7885 75.4304 72.7885L75.5729 75.6087L73.478 77.7039L73.4822 77.6997Z" fill="white" stroke="#263238" stroke-linecap="round" stroke-linejoin="round"/>
<path d="M76.88 72.931C76.88 72.931 72.3258 78.2781 72.2546 78.9276C72.1834 79.5771 76.4442 86.4453 76.5197 86.659C76.5909 86.8769 71.1737 99.2346 71.1737 99.2346L68.5719 105.231C68.5719 105.231 70.5955 108.483 71.534 109.64C72.4725 110.796 73.2685 110.939 73.9891 110.578C74.7097 110.218 76.9512 108.336 76.9512 108.336L80.0599 86.8727C80.0599 86.8727 80.7805 85.3558 80.7805 84.4883C80.7805 83.6209 76.8046 79.3592 76.8046 79.3592L77.4539 78.4205C77.4539 78.4205 81.7902 79.8662 82.293 79.5059C82.7999 79.1455 82.2092 78.5253 82.2092 78.5253L80.923 77.771C80.923 77.771 82.0793 77.947 82.0793 77.4819C82.0793 77.2723 81.7902 76.9036 81.7902 76.9036C81.7902 76.9036 81.9327 76.3965 81.5724 75.9649C81.2121 75.5333 78.3631 73.0567 77.5713 72.8388C76.7752 72.6209 76.8758 72.9268 76.8758 72.9268L76.88 72.931Z" fill="white" stroke="#263238" stroke-linecap="round" stroke-linejoin="round"/>
<path d="M81.7902 76.9035C81.7902 76.9035 78.2458 74.4437 77.6718 73.9115C77.0978 73.3793 75.2502 75.7888 74.8815 76.2833" fill="white"/>
<path d="M81.7902 76.9035C81.7902 76.9035 78.2458 74.4437 77.6718 73.9115C77.0978 73.3793 75.2502 75.7888 74.8815 76.2833" stroke="#263238" stroke-linecap="round" stroke-linejoin="round"/>
<path d="M80.9231 77.7709C80.9231 77.7709 78.6816 76.9035 77.8981 76.3713C77.1189 75.8391 76.3773 75.9606 76.172 76.124C75.9667 76.2875 74.0353 78.5461 74.0353 78.5461" fill="white"/>
<path d="M80.9231 77.7709C80.9231 77.7709 78.6816 76.9035 77.8981 76.3713C77.1189 75.8391 76.3773 75.9606 76.172 76.124C75.9667 76.2875 74.0353 78.5461 74.0353 78.5461" stroke="#263238" stroke-linecap="round" stroke-linejoin="round"/>
<path d="M69.1501 102.323C69.1501 102.323 72.4055 108.671 73.3565 108.671C74.3076 108.671 77.4833 105.893 77.4833 105.893C77.4833 105.893 78.7528 108.592 78.514 109.149C78.2752 109.706 72.8789 113.118 71.8482 113.118C70.8176 113.118 65.8193 107.322 66.5316 106.052C67.2438 104.783 68.6725 102.004 69.1501 102.323Z" fill="#13A6D4" stroke="#263238" stroke-linecap="round" stroke-linejoin="round"/>
<path d="M107.619 124.7C107.619 124.7 106.145 123.116 105.617 122.487C105.441 122.278 105.009 121.788 104.163 120.66C103.539 119.826 103.292 117.383 102.575 117.874C101.863 118.364 101.896 119.852 102.19 120.375C102.483 120.899 102.734 121.268 102.768 121.507C102.801 121.746 103.677 124.038 103.677 124.038C103.677 124.038 106.869 127.089 107.071 126.422C107.272 125.76 107.619 124.704 107.619 124.704V124.7Z" fill="white" stroke="#263238" stroke-linecap="round" stroke-linejoin="round"/>
<path d="M113.816 111.211L107.004 124.972C107.004 124.972 100.95 120.937 100.644 120.937C100.338 120.937 96.9652 123.007 96.4331 123.388C95.8968 123.77 95.1301 126.221 94.9793 126.913C94.8243 127.604 94.9039 128.14 95.4402 127.755C95.9765 127.373 97.5099 124.767 97.5099 124.767L99.9608 123.694C99.9608 123.694 97.4344 126.452 97.3548 126.757C97.2794 127.063 95.5952 130.437 95.5952 130.893C95.5952 131.35 96.5923 130.738 96.5923 130.738C96.5923 130.738 96.2111 132.193 96.5923 132.193C96.9736 132.193 98.5824 131.044 99.1187 130.583C99.655 130.122 100.803 129.129 100.803 129.129L102.563 128.132C102.563 128.132 100.723 130.583 100.417 130.965C100.112 131.346 98.3478 133.261 99.1145 133.416C99.8812 133.571 102.257 131.271 102.257 131.271L104.402 129.586C104.402 129.586 106.622 130.277 107.314 130.198C108.005 130.122 109.304 129.356 109.689 128.819C110.07 128.283 110.686 126.829 110.686 126.829L120.721 114.722L113.829 111.198L113.816 111.211Z" fill="white" stroke="#263238" stroke-linecap="round" stroke-linejoin="round"/>
<path d="M96.5839 130.743L100.107 126.837C100.107 126.837 101.561 125.459 102.789 125.689" fill="white"/>
<path d="M96.5839 130.743L100.107 126.837C100.107 126.837 101.561 125.459 102.789 125.689" stroke="#263238" stroke-linecap="round" stroke-linejoin="round"/>
<path d="M99.9524 123.694C99.9524 123.694 100.87 122.777 101.561 122.777L99.9524 123.694Z" fill="white"/>
<path d="M99.9524 123.694C99.9524 123.694 100.87 122.777 101.561 122.777" stroke="#263238" stroke-linecap="round" stroke-linejoin="round"/>
<path d="M113.74 108.144L112.974 111.668C112.974 111.668 120.863 116.877 121.169 116.416C121.475 115.955 124.156 112.355 123.925 112.049C123.695 111.743 114.046 107.528 114.046 107.528L113.74 108.139V108.144Z" fill="#13A6D4" stroke="#263238" stroke-linecap="round" stroke-linejoin="round"/>
</g>
<defs>
<clipPath id="clip0_201_4615">
<rect width="177" height="176" fill="white"/>
</clipPath>
</defs>
</svg>
