<svg width="144" height="143" viewBox="0 0 144 143" fill="none" xmlns="http://www.w3.org/2000/svg">
<g clip-path="url(#clip0_181_269)">
<path d="M144 80.3327C144 80.3327 143.975 36.4245 120.662 15.4534C100.08 -3.05956 71.7438 -6.82009 52.7152 14.5872C45.9347 22.2142 37.7363 30.1621 29.2197 35.4929C19.6714 41.4687 8.51061 44.1979 2.01121 63.9851C-4.48819 83.7723 5.57599 112.785 20.3356 123.057C35.0951 133.329 58.223 129.512 78.0919 125.216C97.9577 120.92 142.267 134.822 144 80.3358V80.3327Z" fill="#13A6D4"/>
<path opacity="0.7" d="M144 80.3327C144 80.3327 143.975 36.4245 120.662 15.4534C100.08 -3.05956 71.7438 -6.82009 52.7152 14.5872C45.9347 22.2142 37.7363 30.1621 29.2197 35.4929C19.6714 41.4687 8.51061 44.1979 2.01121 63.9851C-4.48819 83.7723 5.57599 112.785 20.3356 123.057C35.0951 133.329 58.223 129.512 78.0919 125.216C97.9577 120.92 142.267 134.822 144 80.3358V80.3327Z" fill="white"/>
<path opacity="0.16" d="M73.1307 143C99.2997 143 120.514 140.39 120.514 137.171C120.514 133.951 99.2997 131.341 73.1307 131.341C46.9616 131.341 25.7474 133.951 25.7474 137.171C25.7474 140.39 46.9616 143 73.1307 143Z" fill="black"/>
<path opacity="0.07" d="M120.662 15.4501C117.344 12.4654 113.823 9.86383 110.172 7.69226L79.3364 54.4294L121.24 15.9829C121.048 15.7991 120.857 15.6246 120.659 15.447L120.662 15.4501ZM93.0673 0.931397C88.1835 -0.0687116 83.2595 -0.280573 78.4468 0.373704L79.3395 54.4325L93.0673 0.931397ZM60.7495 7.36512C57.9323 9.34664 55.2417 11.7425 52.7148 14.5871C51.8777 15.5311 51.0159 16.4783 50.1355 17.4285L79.3364 54.4325L60.7495 7.36512ZM35.45 31.1122C33.402 32.7012 31.32 34.1749 29.2194 35.4897C24.5951 38.381 19.5939 40.5151 14.9263 44.1947L79.3364 54.4294L35.45 31.1122ZM0.111103 74.1481C-0.451107 82.582 1.13358 91.7107 4.20103 99.9671L79.3395 54.4325L0.111103 74.1481ZM79.3364 54.4325L25.6948 126.038C33.5008 129.459 42.8792 130.076 52.6036 129.335L79.3395 54.4325H79.3364ZM79.3364 54.4325L81.888 124.621C87.3989 124.026 94.1331 124.21 101.108 123.907L79.3333 54.4325H79.3364ZM139.558 103.067L79.3364 54.4325L126.222 118.181C131.684 115.1 136.364 110.367 139.558 103.067ZM142.103 61.1217L79.3364 54.4325L143.938 78.027C143.808 74.846 143.394 68.6366 142.103 61.1217ZM131.937 30.0654L79.3364 54.4325L137.457 42.6929C135.978 38.4152 134.164 34.1344 131.934 30.0654H131.937Z" fill="black"/>
<path d="M124.014 22.1395C124.014 22.1395 120.647 23.1708 119.451 23.1832C118.256 23.1957 114.697 22.6006 113.078 21.3388C111.46 20.077 110.023 18.5597 109.019 17.3975C108.015 16.2385 107.268 16.2884 107.197 17.8026C107.123 19.3136 107.997 21.0553 108.908 21.9152C109.819 22.7751 111.287 23.4823 111.349 23.7409C111.41 23.9995 111.577 24.4887 111.577 24.4887C111.577 24.4887 108.945 25.9623 107.361 26.6197C105.776 27.2771 104.614 27.9314 104.991 28.6324C105.368 29.3334 106.36 30.1372 106.925 30.7635C107.49 31.3897 110.666 33.6579 111.67 33.9663C112.674 34.2748 113.483 34.4835 113.971 34.4929C114.459 34.5022 114.604 34.7047 115.42 34.2374C116.235 33.77 117.196 33.2591 117.533 33.1376C117.87 33.0161 118.348 33.0971 119.633 32.1063C120.922 31.1155 121.935 30.0812 121.935 30.0812L126.936 28.7196L124.014 22.1364V22.1395Z" fill="white" stroke="black" stroke-width="0.75" stroke-miterlimit="10"/>
<path d="M122.197 22.2953L125.639 30.6326L129.08 29.7914L125.16 21.373L122.197 22.2953Z" fill="white" stroke="black" stroke-width="0.75" stroke-miterlimit="10"/>
<path d="M129.901 18.8058L123.77 21.2827L127.903 31.1872L137.374 29.4051L136.948 28.7352L129.901 18.8058Z" fill="black" stroke="black" stroke-width="0.75" stroke-miterlimit="10"/>
<path d="M111.673 24.9653C111.673 24.9653 112.853 27.3955 113.227 27.9189C113.597 28.4423 115.713 29.0437 116.167 28.8349" stroke="black" stroke-width="0.75" stroke-miterlimit="10"/>
<path d="M114.756 31.0096C114.756 31.0096 115.457 30.8071 115.639 31.4053C115.822 32.0035 115.111 33.5489 114.781 34.2748C114.45 35.0007 114.221 35.1035 113.329 35.2001C112.433 35.2998 111.846 34.8107 111.846 34.8107C111.846 34.8107 112.813 34.0505 112.958 33.8261C113.1 33.6018 114.756 31.0096 114.756 31.0096Z" fill="white" stroke="black" stroke-width="0.75" stroke-miterlimit="10"/>
<path d="M109.427 33.2715C109.427 33.2715 110.74 35.1222 111.293 34.9664C111.846 34.8106 112.529 34.4991 112.779 34.2592C113.029 34.0162 114.447 32.0222 114.635 31.5206C114.824 31.019 114.811 30.2401 114.271 29.9005L113.73 29.5609C113.73 29.5609 113.007 30.3273 112.01 31.0439C111.012 31.7636 109.109 32.6484 109.075 32.8572C109.041 33.0628 109.427 33.2715 109.427 33.2715Z" fill="white" stroke="black" stroke-width="0.75" stroke-miterlimit="10"/>
<path d="M107.061 31.209C107.061 31.209 106.906 31.5018 107.163 31.8633C107.419 32.2247 107.713 33.6547 108.525 33.6142C109.341 33.5737 111.293 32.5892 111.651 32.3306C112.01 32.072 113.582 29.782 113.724 29.5577C113.866 29.3334 113.353 28.6106 113.072 28.3862C112.794 28.1619 112.019 28.6012 112.019 28.6012C112.019 28.6012 108.893 30.7354 107.058 31.209H107.061Z" fill="white" stroke="black" stroke-width="0.75" stroke-miterlimit="10"/>
<path d="M106.36 28.0093C106.36 28.0093 108.321 28.0529 108.618 27.9626C108.914 27.8722 111.055 27.2366 111.055 27.2366C111.055 27.2366 111.379 27.1837 111.722 27.6666C112.065 28.1495 111.905 28.6885 111.565 29.0562C111.225 29.4238 109.959 30.7012 109.297 30.8757C108.636 31.0501 106.937 31.1187 106.409 31.1374C105.878 31.1561 105.612 30.8632 105.498 30.2744C105.384 29.6886 104.994 28.6324 104.994 28.6324" fill="white"/>
<path d="M106.36 28.0093C106.36 28.0093 108.321 28.0529 108.618 27.9626C108.914 27.8722 111.055 27.2366 111.055 27.2366C111.055 27.2366 111.379 27.1837 111.722 27.6666C112.065 28.1495 111.905 28.6885 111.565 29.0562C111.225 29.4238 109.959 30.7012 109.297 30.8757C108.636 31.0501 106.937 31.1187 106.409 31.1374C105.878 31.1561 105.612 30.8632 105.498 30.2744C105.384 29.6886 104.994 28.6324 104.994 28.6324" stroke="black" stroke-width="0.75" stroke-miterlimit="10"/>
<path d="M133.781 98.5964C133.781 98.5964 130.448 97.4592 129.466 96.7675C128.487 96.0758 125.935 93.5055 125.348 91.5271C124.761 89.5487 124.465 87.4737 124.32 85.9408C124.171 84.4079 123.535 84.0122 122.605 85.1993C121.672 86.3863 121.379 88.3149 121.626 89.5518C121.87 90.7887 122.655 92.2219 122.559 92.468C122.46 92.7141 122.315 93.2095 122.315 93.2095C122.315 93.2095 119.325 92.8637 117.656 92.468C115.988 92.0723 114.666 91.9227 114.567 92.7141C114.469 93.5055 114.811 94.7424 114.91 95.5805C115.009 96.4217 116.282 100.129 116.921 100.97C117.561 101.812 118.098 102.453 118.49 102.749C118.883 103.045 118.883 103.295 119.813 103.391C120.746 103.491 121.824 103.637 122.166 103.737C122.509 103.837 122.852 104.183 124.471 104.133C126.09 104.083 127.511 103.837 127.511 103.837L132.364 105.666L133.784 98.5964H133.781Z" fill="white" stroke="black" stroke-width="0.75" stroke-miterlimit="10"/>
<path d="M132.212 97.6555L130.201 106.457L133.485 107.791L135.153 98.6431L132.212 97.6555Z" fill="white" stroke="black" stroke-width="0.75" stroke-miterlimit="10"/>
<path d="M140.491 99.3379L134.075 97.7552L131.721 108.236L140.451 112.346L140.491 111.551V99.3379Z" fill="black" stroke="black" stroke-width="0.75" stroke-miterlimit="10"/>
<path d="M122.114 93.6519C122.114 93.6519 121.672 96.322 121.672 96.9638C121.672 97.6056 123.044 99.3379 123.535 99.4345" stroke="black" stroke-width="0.75" stroke-miterlimit="10"/>
<path d="M121.132 100.375C121.132 100.375 121.817 100.621 121.623 101.217C121.428 101.812 119.955 102.65 119.269 103.045C118.583 103.441 118.336 103.391 117.555 102.946C116.77 102.5 116.575 101.759 116.575 101.759C116.575 101.759 117.802 101.709 118.046 101.609C118.29 101.509 121.135 100.372 121.135 100.372L121.132 100.375Z" fill="white" stroke="black" stroke-width="0.75" stroke-miterlimit="10"/>
<path d="M115.494 99.0886C115.494 99.0886 115.494 101.363 116.035 101.559C116.575 101.756 117.311 101.905 117.653 101.855C117.996 101.805 120.301 101.014 120.743 100.718C121.184 100.422 121.626 99.7772 121.379 99.1852L121.135 98.5933C121.135 98.5933 120.106 98.7895 118.88 98.7895C117.653 98.7895 115.596 98.3939 115.448 98.5434C115.3 98.693 115.497 99.0886 115.497 99.0886H115.494Z" fill="white" stroke="black" stroke-width="0.75" stroke-miterlimit="10"/>
<path d="M114.759 96.0229C114.759 96.0229 114.465 96.1724 114.465 96.6149C114.465 97.0573 113.879 98.3939 114.564 98.8394C115.25 99.2849 117.406 99.6308 117.848 99.6308C118.29 99.6308 120.888 98.6898 121.132 98.5933C121.376 98.4967 121.376 97.6056 121.28 97.2598C121.184 96.914 120.301 96.8142 120.301 96.8142C120.301 96.8142 116.526 96.7146 114.762 96.0229H114.759Z" fill="white" stroke="black" stroke-width="0.75" stroke-miterlimit="10"/>
<path d="M116.035 93.007C116.035 93.007 117.604 94.194 117.897 94.2937C118.191 94.3934 120.301 95.1349 120.301 95.1349C120.301 95.1349 120.594 95.2845 120.594 95.8765C120.594 96.4684 120.152 96.8174 119.661 96.9139C119.17 97.0105 117.406 97.3096 116.77 97.0635C116.134 96.8174 114.709 95.8764 114.271 95.5805C113.829 95.2845 113.78 94.8888 114.027 94.3436C114.274 93.7983 114.567 92.711 114.567 92.711" fill="white"/>
<path d="M116.035 93.007C116.035 93.007 117.604 94.194 117.897 94.2937C118.191 94.3934 120.301 95.1349 120.301 95.1349C120.301 95.1349 120.594 95.2845 120.594 95.8765C120.594 96.4684 120.152 96.8174 119.661 96.9139C119.17 97.0105 117.406 97.3096 116.77 97.0635C116.134 96.8174 114.709 95.8764 114.271 95.5805C113.829 95.2845 113.78 94.8888 114.027 94.3436C114.274 93.7983 114.567 92.711 114.567 92.711" stroke="black" stroke-width="0.75" stroke-miterlimit="10"/>
<path d="M16.162 97.4779C16.162 97.4779 19.4951 96.3407 20.4775 95.649C21.4567 94.9574 24.0083 92.387 24.5952 90.4086C25.1821 88.4302 25.4787 86.3552 25.6238 84.8223C25.7721 83.2894 26.4085 82.8938 27.3383 84.0808C28.2712 85.2678 28.5646 87.1964 28.3175 88.4333C28.0735 89.6702 27.2888 91.1034 27.3846 91.3495C27.4835 91.5956 27.6286 92.091 27.6286 92.091C27.6286 92.091 30.6189 91.7452 32.287 91.3495C33.9551 90.9538 35.2772 90.8043 35.376 91.5956C35.4749 92.387 35.132 93.6239 35.0331 94.462C34.9343 95.3032 33.6616 99.0108 33.0222 99.852C32.3827 100.693 31.8452 101.335 31.4529 101.631C31.0606 101.927 31.0606 102.176 30.1308 102.273C29.201 102.369 28.1198 102.519 27.7769 102.619C27.434 102.718 27.0911 103.064 25.4725 103.014C23.8538 102.964 22.4328 102.718 22.4328 102.718L17.5799 104.547L16.1589 97.4779H16.162Z" fill="white" stroke="black" stroke-width="0.75" stroke-miterlimit="10"/>
<path d="M17.7281 96.537L19.7391 105.339L16.4555 106.675L14.7874 97.5277L17.7281 96.537Z" fill="white" stroke="black" stroke-width="0.75" stroke-miterlimit="10"/>
<path d="M9.44946 98.2194L15.8655 96.6367L18.2193 107.118L9.48962 111.227L9.44946 110.433V98.2194Z" fill="black" stroke="black" stroke-width="0.75" stroke-miterlimit="10"/>
<path d="M27.8294 92.5334C27.8294 92.5334 28.2712 95.2035 28.2712 95.8453C28.2712 96.4872 26.8996 98.2194 26.4084 98.316" stroke="black" stroke-width="0.75" stroke-miterlimit="10"/>
<path d="M28.8086 99.2569C28.8086 99.2569 28.1229 99.503 28.3175 100.098C28.5121 100.693 29.9856 101.531 30.6714 101.927C31.3571 102.323 31.6043 102.273 32.3858 101.827C33.1704 101.382 33.365 100.64 33.365 100.64C33.365 100.64 32.1387 100.59 31.8946 100.491C31.6506 100.391 28.8056 99.2538 28.8056 99.2538L28.8086 99.2569Z" fill="white" stroke="black" stroke-width="0.75" stroke-miterlimit="10"/>
<path d="M34.4462 97.9702C34.4462 97.9702 34.4462 100.245 33.9056 100.441C33.365 100.637 32.6298 100.787 32.2869 100.737C31.944 100.687 29.6396 99.8956 29.1978 99.5996C28.7561 99.3036 28.3144 98.6587 28.5615 98.0668L28.8055 97.4748C28.8055 97.4748 29.8342 97.6711 31.0605 97.6711C32.2869 97.6711 34.3442 97.2754 34.4925 97.4249C34.6408 97.5745 34.4431 97.9702 34.4431 97.9702H34.4462Z" fill="white" stroke="black" stroke-width="0.75" stroke-miterlimit="10"/>
<path d="M35.1814 94.9075C35.1814 94.9075 35.4749 95.0571 35.4749 95.4995C35.4749 95.9419 36.0618 97.2785 35.376 97.724C34.6903 98.1696 32.5341 98.5154 32.0923 98.5154C31.6506 98.5154 29.0527 97.5745 28.8087 97.4779C28.5646 97.3813 28.5646 96.4903 28.6604 96.1444C28.7562 95.7986 29.6396 95.6989 29.6396 95.6989C29.6396 95.6989 33.4145 95.5992 35.1783 94.9075H35.1814Z" fill="white" stroke="black" stroke-width="0.75" stroke-miterlimit="10"/>
<path d="M33.9057 91.8885C33.9057 91.8885 32.3364 93.0756 32.0429 93.1753C31.7495 93.275 29.6397 94.0165 29.6397 94.0165C29.6397 94.0165 29.3462 94.166 29.3462 94.758C29.3462 95.3499 29.7879 95.6989 30.2791 95.7955C30.7703 95.8921 32.5341 96.1912 33.1705 95.945C33.8068 95.6989 35.2309 94.758 35.6695 94.462C36.1113 94.166 36.1607 93.7703 35.9136 93.2251C35.6664 92.6799 35.373 91.5925 35.373 91.5925" fill="white"/>
<path d="M33.9057 91.8885C33.9057 91.8885 32.3364 93.0756 32.0429 93.1753C31.7495 93.275 29.6397 94.0165 29.6397 94.0165C29.6397 94.0165 29.3462 94.166 29.3462 94.758C29.3462 95.3499 29.7879 95.6989 30.2791 95.7955C30.7703 95.8921 32.5341 96.1912 33.1705 95.945C33.8068 95.6989 35.2309 94.758 35.6695 94.462C36.1113 94.166 36.1607 93.7703 35.9136 93.2251C35.6664 92.6799 35.373 91.5925 35.373 91.5925" stroke="black" stroke-width="0.75" stroke-miterlimit="10"/>
<path d="M19.7854 25.0993C19.7854 25.0993 23.1525 26.1306 24.348 26.143C25.5434 26.1555 29.102 25.5604 30.7207 24.2986C32.3394 23.0368 33.7789 21.5195 34.7798 20.3574C35.7806 19.1952 36.5313 19.2482 36.6023 20.7624C36.6764 22.2735 35.8022 24.0151 34.891 24.875C33.9797 25.738 32.5124 26.4421 32.4506 26.7007C32.3888 26.9593 32.222 27.4485 32.222 27.4485C32.222 27.4485 34.8539 28.9222 36.4386 29.5795C38.0233 30.2369 39.1848 30.8912 38.8079 31.5922C38.431 32.2932 37.4394 33.0971 36.8741 33.7233C36.3088 34.3495 33.1333 36.6177 32.1293 36.9261C31.1254 37.2346 30.3161 37.4433 29.828 37.4527C29.3368 37.4651 29.1947 37.6645 28.3792 37.1972C27.5637 36.7299 26.603 36.2189 26.2663 36.0974C25.9296 35.9759 25.4508 36.0569 24.1657 35.0661C22.8776 34.0754 21.8644 33.041 21.8644 33.041L16.8632 31.6795L19.7854 25.0962V25.0993Z" fill="white" stroke="black" stroke-width="0.75" stroke-miterlimit="10"/>
<path d="M21.6049 25.2551L18.1606 33.5925L14.7194 32.7512L18.6425 24.3329L21.6049 25.2551Z" fill="white" stroke="black" stroke-width="0.75" stroke-miterlimit="10"/>
<path d="M13.8977 21.7656L20.0326 24.2425L15.8994 34.147L6.42834 32.3649L6.85464 31.6951L13.8977 21.7656Z" fill="black" stroke="black" stroke-width="0.75" stroke-miterlimit="10"/>
<path d="M32.1263 27.9252C32.1263 27.9252 30.9463 30.3553 30.5725 30.8788C30.2018 31.4022 28.0858 32.0035 27.6317 31.7948" stroke="black" stroke-width="0.75" stroke-miterlimit="10"/>
<path d="M29.0465 33.9694C29.0465 33.9694 28.3452 33.7669 28.163 34.3651C27.9807 34.9633 28.6912 36.5086 29.0217 37.2346C29.3523 37.9605 29.5809 38.0633 30.4736 38.1599C31.3694 38.2596 31.9564 37.7704 31.9564 37.7704C31.9564 37.7704 30.9895 37.0102 30.8474 36.7859C30.7053 36.5616 29.0495 33.9694 29.0495 33.9694H29.0465Z" fill="white" stroke="black" stroke-width="0.75" stroke-miterlimit="10"/>
<path d="M34.372 36.2314C34.372 36.2314 33.0592 38.082 32.5063 37.9263C31.9533 37.7705 31.2706 37.4589 31.0204 37.219C30.7702 36.976 29.3523 34.982 29.1639 34.4804C28.9754 33.9788 28.9878 33.1999 29.5284 32.8603L30.069 32.5207C30.069 32.5207 30.7918 33.2871 31.7896 34.0037C32.7874 34.7234 34.6902 35.6083 34.7242 35.817C34.7582 36.0226 34.372 36.2314 34.372 36.2314Z" fill="white" stroke="black" stroke-width="0.75" stroke-miterlimit="10"/>
<path d="M36.7383 34.1688C36.7383 34.1688 36.8928 34.4617 36.6364 34.8231C36.38 35.1845 36.0865 36.6146 35.2741 36.5741C34.4617 36.5336 32.5063 35.549 32.1479 35.2904C31.7896 35.0318 30.2173 32.7419 30.0752 32.5176C29.9331 32.2932 30.4459 31.5704 30.727 31.3461C31.0081 31.1218 31.7803 31.5611 31.7803 31.5611C31.7803 31.5611 34.9065 33.6953 36.7414 34.1688H36.7383Z" fill="white" stroke="black" stroke-width="0.75" stroke-miterlimit="10"/>
<path d="M37.4426 30.9691C37.4426 30.9691 35.481 31.0127 35.1845 30.9224C34.8879 30.8289 32.7472 30.1964 32.7472 30.1964C32.7472 30.1964 32.4228 30.1435 32.0799 30.6264C31.7371 31.1093 31.8977 31.6483 32.2375 32.0159C32.5804 32.3836 33.8438 33.661 34.5049 33.8354C35.1659 34.0099 36.8649 34.0785 37.3931 34.0972C37.9214 34.1158 38.1901 33.823 38.3044 33.2341C38.4187 32.6484 38.8079 31.5922 38.8079 31.5922" fill="white"/>
<path d="M37.4426 30.9691C37.4426 30.9691 35.481 31.0127 35.1845 30.9224C34.8879 30.8289 32.7472 30.1964 32.7472 30.1964C32.7472 30.1964 32.4228 30.1435 32.0799 30.6264C31.7371 31.1093 31.8977 31.6483 32.2375 32.0159C32.5804 32.3836 33.8438 33.661 34.5049 33.8354C35.1659 34.0099 36.8649 34.0785 37.3931 34.0972C37.9214 34.1158 38.1901 33.823 38.3044 33.2341C38.4187 32.6484 38.8079 31.5922 38.8079 31.5922" stroke="black" stroke-width="0.75" stroke-miterlimit="10"/>
<path d="M65.0157 70.2631C65.0157 70.2631 62.8533 79.8155 62.7668 84.3082C62.6834 88.8009 62.9275 104.993 63.0109 108.467C63.0943 111.941 64.6079 123.216 64.6079 124.232C64.6079 125.247 64.8612 127.198 64.8612 127.198L64.1878 130.843C64.1878 130.843 63.6009 131.351 62.0872 132.198C60.5736 133.046 58.8097 134.149 58.3062 134.74C58.0437 135.049 58.161 135.526 58.5348 135.672C59.0105 135.856 59.6747 136.055 60.4068 136.099C61.8339 136.183 64.1878 136.183 65.4481 135.843C66.7085 135.504 67.7186 134.404 68.3055 133.977L68.8925 133.553L68.9759 134.485C68.9759 134.485 69.0593 134.485 69.8161 134.317C70.5729 134.149 71.5799 133.553 71.5799 133.553C71.5799 133.553 71.6634 132.114 71.6634 131.263C71.6634 130.413 71.2432 128.889 71.1598 128.55C71.0764 128.21 71.1598 125.16 70.9065 124.141C70.6532 123.126 70.4864 123.378 70.3196 121.515C70.1528 119.652 71.6634 102.02 71.5799 101.513C71.4965 101.005 73.7207 85.7196 73.7207 85.7196C73.7207 85.7196 77.9681 105.666 79.3119 109.479C80.6556 113.293 81.329 120.667 81.329 121.175C81.329 121.683 82.0859 127.702 82.4226 128.55C82.7593 129.397 83.6829 132.024 83.6829 132.024C83.6829 132.024 85.0267 134.058 85.6167 135.074C86.2036 136.09 88.2208 136.94 89.7344 137.192C91.248 137.448 92.425 137.532 92.5084 135.498C92.5918 133.463 91.835 132.108 90.5746 131.176C89.3143 130.245 89.061 129.397 89.061 129.397C89.061 129.397 89.2278 127.107 89.061 125.668C88.8942 124.228 87.9675 123.126 87.884 120.159C87.8006 117.193 87.2106 101.597 86.7071 99.1385C86.2036 96.6803 85.5394 80.233 85.6228 77.9461C85.7063 75.6562 85.4128 69.2816 85.4128 69.2816L64.9508 69.0449L65.0126 70.2568L65.0157 70.2631Z" fill="black" stroke="black" stroke-width="0.75" stroke-miterlimit="10"/>
<path d="M73.0472 36.1161C73.0472 36.1161 69.9241 37.973 67.7123 39.0915C65.5006 40.2069 62.8038 40.8362 62.5258 41.4624C62.2478 42.0887 57.4783 52.3421 56.5793 53.7379C55.6804 55.1337 53.5366 57.8536 53.9505 59.3865C54.3645 60.9194 56.0943 63.0131 57.2002 62.8729C58.3061 62.7327 60.5179 62.1064 61.4199 60.5019C62.3188 58.8974 64.4626 53.7379 64.4626 53.7379C64.4626 53.7379 64.8086 58.5515 64.7407 60.9225C64.6727 63.2935 64.6727 65.247 64.5337 66.4309C64.3947 67.6179 63.7738 69.0823 64.0487 69.4998C64.3236 69.9173 64.6696 70.3379 65.0156 70.2662C65.3616 70.1977 70.5481 70.126 72.139 70.1977C73.7298 70.2662 80.9212 70.1977 82.441 70.2662C83.9608 70.3347 85.2768 69.5683 85.4158 69.291C85.5548 69.0137 85.8297 68.5931 85.6938 67.0602C85.5548 65.5274 85.8328 60.854 86.2467 59.0407C86.6607 57.2274 89.1505 50.2516 89.1505 50.2516C89.1505 50.2516 95.7209 55.4827 97.1017 55.9002C98.4856 56.3176 102.22 55.6914 103.462 54.1554C104.704 52.6194 105.121 51.4355 104.361 50.3886C103.601 49.3418 100.833 48.3666 97.9296 45.2261C95.0259 42.0887 93.92 40.6243 91.9121 39.646C89.9073 38.6709 85.8266 37.3436 84.8597 36.9261C83.8929 36.5086 83.6149 36.2999 82.994 36.0195C82.3731 35.7391 80.9181 35.1814 78.2213 35.1128C75.5246 35.0443 73.0441 36.113 73.0441 36.113L73.0472 36.1161Z" fill="#13A6D4" stroke="black" stroke-width="0.75" stroke-miterlimit="10"/>
<path d="M63.0695 48.7935C63.1653 49.1299 64.4627 53.7348 64.4627 53.7348L62.5475 49.8995" stroke="black" stroke-width="0.75" stroke-miterlimit="10"/>
<path d="M89.1474 50.2485C88.857 50.236 86.1417 48.7 86.1417 48.7" stroke="black" stroke-width="0.75" stroke-miterlimit="10"/>
<path d="M84.7578 48.5068C84.7578 48.5068 85.8544 49.9494 86.8089 50.2391" stroke="black" stroke-width="0.75" stroke-miterlimit="10"/>
<path d="M72.6611 40.3938L73.5291 43.6995C73.5291 43.6995 70.7798 57.5577 70.3474 59.8913C69.9149 62.2249 69.816 64.169 69.816 64.169L72.2255 68.9826L75.2621 63.7795C75.2621 63.7795 74.9717 57.215 74.8759 51.9621C74.7802 46.7092 74.9717 44.1824 74.9254 44.036C74.8759 43.8895 77.9619 41.6058 77.9619 41.6058C77.9619 41.6058 79.7443 39.6118 79.8432 39.2722C79.9389 38.9326 78.589 39.3688 78.3017 39.6617C78.0113 39.9545 77.1433 40.4873 75.8922 40.2443C74.6381 40.0013 73.0009 38.5899 72.7599 39.2722C72.519 39.9514 72.6642 40.3907 72.6642 40.3907L72.6611 40.3938Z" fill="black" stroke="black" stroke-width="0.75" stroke-miterlimit="10"/>
<path d="M74.7339 34.7546C74.5887 34.8512 73.4334 35.144 73.0472 36.1161C72.6611 37.0882 70.6841 41.5622 70.1065 42.2912C69.5288 43.0203 70.4432 42.7274 71.2154 42.2414C71.9877 41.7553 72.6611 39.8579 73.0967 40.6867C73.5291 41.5123 74.7833 41.855 74.7833 41.855C74.7833 41.855 77.3874 41.369 77.965 40.9796C78.5427 40.5901 79.074 40.0542 79.074 40.0542C79.074 40.0542 81.292 43.4097 81.919 43.7026C82.5461 43.9955 82.6419 43.5094 82.6913 42.9735C82.7407 42.4377 83.1732 39.2784 83.8003 37.1879C84.4274 35.0973 83.2226 34.415 82.4504 33.5395C81.6781 32.664 80.8101 33.2466 79.942 33.3463C79.074 33.4429 74.7339 34.7577 74.7339 34.7577V34.7546Z" fill="#13A6D4" stroke="black" stroke-width="0.75" stroke-miterlimit="10"/>
<path d="M73.4118 19.781C73.4118 19.781 71.9043 22.0865 72.1854 22.6504C72.4634 23.2144 72.4634 23.9434 72.1854 24.3391C71.9074 24.7317 71.5707 25.2395 71.6819 26.196C71.7931 27.1525 71.2371 31.991 72.0711 32.5549C72.9082 33.1189 73.801 33.3993 73.801 33.3993C73.801 33.3993 74.7493 41.5029 75.0829 41.2755C75.4166 41.0512 80.2139 36.1005 80.773 35.0287C81.3321 33.9601 81.9994 32.4397 81.9994 32.4397C81.9994 32.4397 83.8961 28.7819 85.0112 27.2646C86.1264 25.7473 87.4114 22.9308 87.0191 21.4696C86.6299 20.0053 84.6189 18.9366 83.6706 18.1484C82.7222 17.3601 83.3369 15.5593 81.9963 14.6589C80.6587 13.7585 79.04 13.5342 77.9805 13.9267C76.9209 14.3193 76.8653 15.1636 75.5803 14.3193C74.2983 13.475 73.0689 12.6306 71.1166 13.5871C69.1643 14.5436 68.772 17.9209 69.9458 18.8214C71.1166 19.7218 73.4056 19.7778 73.4056 19.7778L73.4118 19.781Z" fill="white" stroke="black" stroke-width="0.75" stroke-miterlimit="10"/>
<path d="M83.6767 18.1484C82.7283 17.3601 83.343 15.5593 82.0024 14.6589C80.6648 13.7585 79.0461 13.5342 77.9866 13.9267C76.927 14.3193 76.8714 15.1636 75.5864 14.3193C74.3044 13.475 73.075 12.6306 71.1227 13.5871C69.1704 14.5436 68.7781 17.9209 69.9519 18.8214C71.1227 19.7218 73.4117 19.7778 73.4117 19.7778C73.4117 19.7778 75.086 18.9896 76.2011 18.3727C77.3163 17.7527 79.8277 18.7653 80.2725 19.161C80.7173 19.5535 80.0501 19.2731 79.9389 20.0053C79.8277 20.7374 81.2209 21.9183 81.8356 22.4822C82.4503 23.0461 81.7244 23.4387 81.5576 24.1708C81.3907 24.903 82.0611 25.1834 82.4503 24.903C82.8395 24.6226 84.069 23.0461 84.5138 23.9465C84.9586 24.8469 85.629 26.196 84.4026 27.1525C83.1762 28.109 82.2835 27.8846 82.2835 27.8846C82.2835 27.8846 81.8819 30.321 83.0434 30.5142C83.6643 29.3895 84.4458 28.0467 85.0173 27.2678C86.1325 25.7473 87.4175 22.9339 87.0252 21.4727C86.636 20.0084 84.625 18.9397 83.6767 18.1515V18.1484Z" fill="black" stroke="black" stroke-width="0.75" stroke-miterlimit="10"/>
<path d="M76.4236 22.7626C76.4236 22.7626 76.9827 22.5382 77.5387 22.5943" stroke="black" stroke-width="0.5" stroke-miterlimit="10"/>
<path d="M73.5692 23.3171C73.5692 23.3171 73.0812 23.42 72.7784 23.6038" stroke="black" stroke-width="0.5" stroke-miterlimit="10"/>
<path d="M73.5877 21.7812C73.5877 21.7812 73.9337 22.4168 73.7515 23.0305C73.5692 23.6443 71.8455 25.0152 71.864 25.2831C71.8857 25.548 72.8773 26.1025 72.8587 26.3269C72.8402 26.5512 72.7784 26.9188 72.7784 26.9188" stroke="black" stroke-width="0.75" stroke-miterlimit="10"/>
<path d="M77.3627 23.5415C77.564 23.5415 77.7272 23.3392 77.7272 23.0897C77.7272 22.8402 77.564 22.6379 77.3627 22.6379C77.1614 22.6379 76.9982 22.8402 76.9982 23.0897C76.9982 23.3392 77.1614 23.5415 77.3627 23.5415Z" fill="black" stroke="black" stroke-width="0.5" stroke-miterlimit="10"/>
<path d="M76.6521 23.8281C76.7139 23.8063 77.6066 23.4387 78.1935 23.4792" stroke="black" stroke-width="0.75" stroke-miterlimit="10"/>
<path d="M75.364 21.1176C75.364 21.1176 76.5595 19.9991 77.4893 20.2234C78.416 20.4508 78.7682 21.3481 78.6199 21.3512C78.4716 21.3544 78.0052 20.6565 77.4924 20.6066C76.9827 20.5537 76.6244 20.7967 76.1888 21.021C75.7532 21.2422 75.4783 21.4042 75.3671 21.1176H75.364Z" fill="black" stroke="black" stroke-width="0.5" stroke-miterlimit="10"/>
<path d="M73.6681 22.0055C73.6681 21.9151 73.526 21.4945 72.9792 21.5755C72.4324 21.6566 72.0154 22.6598 72.1822 22.6504C72.349 22.6411 72.5313 22.0055 72.9576 21.9432C73.3839 21.8809 73.6681 22.557 73.6681 22.0055Z" fill="black" stroke="black" stroke-width="0.5" stroke-miterlimit="10"/>
<path d="M72.7352 28.1869C72.7352 28.1869 73.6063 28.0841 74.7431 27.9407C75.8799 27.7974 77.4831 27.5731 77.7457 26.7537C78.0083 25.9343 77.9496 25.5043 77.9496 25.5043" stroke="black" stroke-width="0.75" stroke-miterlimit="10"/>
<path d="M77.3409 25.4451C77.4213 25.4233 78.07 25.4233 78.3356 25.5074" stroke="black" stroke-width="0.75" stroke-miterlimit="10"/>
<path d="M82.0241 29.4892C82.0241 29.4892 81.8078 30.6981 80.7946 31.3492C79.7814 32.0004 72.3398 32.745 72.5839 32.8385C72.8279 32.9319 73.801 33.3993 73.801 33.3993L74.0913 36.0631C74.0913 36.0631 75.5061 34.6985 77.965 33.4273C80.4239 32.1562 81.9623 31.7231 82.0241 29.4892Z" fill="black" stroke="black" stroke-width="0.5" stroke-miterlimit="10"/>
<path d="M86.1757 65.8701C86.1757 65.8701 84.7918 65.8015 84.4458 65.7299C84.0998 65.6613 82.994 64.6145 82.509 64.683C82.024 64.7516 81.1251 65.7299 80.7791 66.5649C80.4331 67.403 80.2941 67.8204 80.2941 67.8204C80.2941 67.8204 79.0492 68.9358 79.6732 69.7023C80.2941 70.4687 80.9861 70.1914 80.9861 70.1914C80.9861 70.1914 81.4 70.8893 81.9529 70.9579C82.5059 71.0264 83.1978 71.0264 83.1978 71.0264C83.1978 71.0264 83.8898 71.2351 84.3037 71.1666C84.7177 71.0981 85.1347 70.8177 85.1347 70.8177C85.1347 70.8177 85.6197 70.8862 85.9656 70.6089C86.2189 70.4033 87.4484 69.1415 88.0786 68.4872C88.3041 68.2535 88.4554 68.0977 88.4554 68.0977L86.1726 65.867L86.1757 65.8701Z" fill="white" stroke="black" stroke-width="0.75" stroke-miterlimit="10"/>
<path d="M97.7227 51.504C97.7227 51.504 95.1649 54.3642 94.334 55.7599C93.503 57.1557 90.9453 60.7823 89.9784 61.8977C89.0115 63.0131 85.6228 65.733 85.6228 65.733C85.6228 65.733 86.6607 67.9638 87.4206 68.3127C88.1806 68.6617 88.8045 68.8019 88.8045 68.8019L91.5693 66.7082C91.5693 66.7082 96.8238 62.6641 99.5916 60.3617C102.356 58.0593 106.23 54.9904 106.508 53.6663C106.786 52.3421 106.576 51.6442 105.195 50.5974C103.811 49.5505 102.359 49.1331 102.359 49.1331" fill="#13A6D4"/>
<path d="M97.7227 51.504C97.7227 51.504 95.1649 54.3642 94.334 55.7599C93.503 57.1557 90.9453 60.7823 89.9784 61.8977C89.0115 63.0131 85.6228 65.733 85.6228 65.733C85.6228 65.733 86.6607 67.9638 87.4206 68.3127C88.1806 68.6617 88.8045 68.8019 88.8045 68.8019L91.5693 66.7082C91.5693 66.7082 96.8238 62.6641 99.5916 60.3617C102.356 58.0593 106.23 54.9904 106.508 53.6663C106.786 52.3421 106.576 51.6442 105.195 50.5974C103.811 49.5505 102.359 49.1331 102.359 49.1331" stroke="black" stroke-width="0.75" stroke-miterlimit="10"/>
<path d="M87.7635 63.9883C87.7635 63.9883 88.3845 67.0571 90.5283 67.0571" stroke="black" stroke-width="0.75" stroke-miterlimit="10"/>
<path d="M57.6358 41.3908C57.6358 41.3908 57.9231 43.8428 58.0652 44.9488C58.2073 46.0549 58.5409 46.5347 58.5409 46.5347C58.5409 46.5347 56.3014 51.5819 56.2056 51.7284C56.1098 51.8717 53.7745 56.2958 53.3945 56.8255C53.0146 57.3551 52.1064 59.0376 52.681 60.0938C53.2524 61.15 54.1575 63.3153 55.3499 63.362C56.5423 63.4088 58.2104 62.6891 59.3534 62.0161C60.4963 61.3431 60.8794 60.91 60.9751 58.9877C61.0709 57.0654 61.0215 53.604 61.3551 51.7751C61.6887 49.9494 61.9266 48.0239 62.1644 47.3042C62.4023 46.5845 63.7862 46.8244 64.2619 46.5347C64.7376 46.2449 65.167 45.6218 66.0257 45.2354C66.8845 44.8522 68.0769 44.9457 68.3611 45.0423C68.6484 45.1389 69.1704 44.7058 69.0283 44.1761C68.8862 43.6465 67.9317 43.3599 66.9772 43.4564C66.0227 43.553 65.167 43.8397 64.926 43.6963C64.6882 43.553 64.4503 41.0045 64.4503 41.0045C64.4503 41.0045 61.0647 41.2942 59.8754 41.3409C58.6861 41.3877 57.6358 41.3877 57.6358 41.3877V41.3908Z" fill="white" stroke="black" stroke-width="0.75" stroke-miterlimit="10"/>
<path d="M62.8779 39.5152C62.8779 39.5152 62.9243 42.6869 62.9243 42.9766C62.9243 43.2664 63.2115 43.5063 63.4494 43.4565C63.6873 43.4097 64.3082 43.6496 64.4503 42.9268C64.5924 42.2071 64.8796 40.1851 64.7376 39.7053C64.5955 39.2255 63.3073 39.0323 62.8779 39.5121V39.5152Z" fill="white" stroke="black" stroke-width="0.75" stroke-miterlimit="10"/>
<path d="M62.878 39.5152C62.878 39.5152 61.352 39.132 60.9227 39.3719C60.4933 39.6118 61.1605 43.0265 61.2099 43.3131C61.2594 43.5998 61.9235 43.7462 62.2108 43.6496C62.4981 43.553 62.9244 43.3598 62.9244 42.9766C62.9244 42.5934 62.878 39.5152 62.878 39.5152Z" fill="white" stroke="black" stroke-width="0.75" stroke-miterlimit="10"/>
<path d="M60.589 39.4685C60.589 39.4685 59.5882 39.2753 59.3009 39.6118C59.0136 39.9483 58.9209 40.4281 59.0136 41.2942C59.1094 42.1604 59.5851 43.4564 59.7766 43.7462C59.9681 44.0359 60.5859 44.0827 60.969 43.9394C61.3489 43.796 61.2069 43.3131 61.2069 43.3131C61.2069 43.3131 61.0153 43.12 60.969 41.6307C60.9227 40.1414 60.9227 39.3719 60.9227 39.3719L60.589 39.4685Z" fill="white" stroke="black" stroke-width="0.75" stroke-miterlimit="10"/>
<path d="M58.9209 40.0449C58.7294 40.0916 57.537 40.1414 57.4907 40.6213C57.4443 41.1011 57.8706 43.363 58.0622 43.6029C58.2537 43.8428 58.7757 43.7462 58.9673 43.6496C59.1588 43.553 59.4924 43.4097 59.443 43.12C59.3966 42.8302 58.9178 40.0417 58.9178 40.0417L58.9209 40.0449Z" fill="white" stroke="black" stroke-width="0.75" stroke-miterlimit="10"/>
<path d="M59.3039 49.563C58.4575 49.4758 57.988 48.8122 57.7501 48.3105C57.0952 49.7811 56.2612 51.6411 56.2056 51.7253C56.1098 51.8686 53.7745 56.2927 53.3945 56.8224C53.0146 57.352 52.1064 59.0345 52.681 60.0906C53.2524 61.1468 54.1575 63.3122 55.3499 63.3589C56.5423 63.4057 58.2104 62.6859 59.3534 62.013C60.4963 61.34 60.8794 60.9069 60.9751 58.9846C61.0709 57.0623 61.0215 53.6008 61.3551 51.772C61.5188 50.8747 61.6609 49.9587 61.7875 49.1673C61.0493 49.401 60.0638 49.6378 59.3039 49.5599V49.563Z" fill="#13A6D4" stroke="black" stroke-width="0.75" stroke-miterlimit="10"/>
<path d="M61.4972 44.2758C61.4972 44.2758 60.6879 44.9955 60.5921 45.6218C60.4963 46.248 60.83 46.7745 60.83 46.7745" fill="white"/>
<path d="M61.4972 44.2758C61.4972 44.2758 60.6879 44.9955 60.5921 45.6218C60.4963 46.248 60.83 46.7745 60.83 46.7745" stroke="black" stroke-width="0.75" stroke-miterlimit="10"/>
</g>
<defs>
<clipPath id="clip0_181_269">
<rect width="144" height="143" fill="white"/>
</clipPath>
</defs>
</svg>