<svg width="130" height="131" viewBox="0 0 130 131" fill="none" xmlns="http://www.w3.org/2000/svg">
<g clip-path="url(#clip0_181_424)">
<path d="M115.494 18.6674C115 18.1842 114.492 17.7127 113.965 17.253C103.032 7.74682 88.5141 2.77274 74.3581 0.763066C60.011 -1.27313 44.7937 0.571528 32.434 8.56896C31.0551 9.46182 29.7204 10.4225 28.4386 11.445C18.1369 19.6664 13.2301 31.1851 11.8806 44.1125C10.8487 53.9958 5.95654 61.7339 2.59321 70.8629C-1.06413 80.7964 -1.01709 93.0135 3.80154 102.57C9.52274 113.915 20.9504 119.717 32.5869 123.247C52.2377 129.205 74.2552 129.188 93.4003 121.376C106.671 115.963 120.166 106.657 125.614 92.8809C130.482 80.5754 130.712 66.7522 129.121 53.7719C127.572 41.148 124.917 27.9084 115.497 18.6615L115.494 18.6674Z" fill="#13A6D4"/>
<path opacity="0.7" d="M115.494 18.6674C115 18.1842 114.492 17.7127 113.965 17.253C103.032 7.74682 88.5141 2.77274 74.3581 0.763066C60.011 -1.27313 44.7937 0.571528 32.434 8.56896C31.0551 9.46182 29.7204 10.4225 28.4386 11.445C18.1369 19.6664 13.2301 31.1851 11.8806 44.1125C10.8487 53.9958 5.95654 61.7339 2.59321 70.8629C-1.06413 80.7964 -1.01709 93.0135 3.80154 102.57C9.52274 113.915 20.9504 119.717 32.5869 123.247C52.2377 129.205 74.2552 129.188 93.4003 121.376C106.671 115.963 120.166 106.657 125.614 92.8809C130.482 80.5754 130.712 66.7522 129.121 53.7719C127.572 41.148 124.917 27.9084 115.497 18.6615L115.494 18.6674Z" fill="white"/>
<path d="M51.5995 17.43C51.5995 17.43 51.1144 14.6718 49.6562 14.3447C48.6596 14.1237 47.6629 14.4331 47.1337 14.6482C46.7015 13.6876 46.0636 12.7358 45.1228 12.0699C42.3709 10.1221 40.751 13.6935 40.751 13.6935C40.751 13.6935 38.9694 9.31171 35.0827 7.20185C31.1961 5.09199 27.4711 6.71564 26.0158 8.0122C24.5576 9.31171 23.4257 11.7457 23.264 12.5561C23.1023 13.3664 22.4555 11.4186 20.1859 11.9078C17.9191 12.394 16.6226 15.4792 16.6226 15.4792C16.6226 15.4792 15.4878 14.0176 14.0325 14.6689C12.5743 15.3172 12.0892 16.9408 12.0892 16.9408L5.93579 18.4024H55.1628L51.5995 17.43Z" stroke="black" stroke-miterlimit="10"/>
<path d="M115.979 93.8034C115.979 93.8034 115.641 91.8822 114.627 91.6553C113.933 91.502 113.239 91.7171 112.869 91.8674C112.569 91.1985 112.122 90.5355 111.469 90.0729C109.552 88.7174 108.423 91.2044 108.423 91.2044C108.423 91.2044 107.183 88.1516 104.475 86.6841C101.767 85.2137 99.1743 86.3452 98.16 87.2499C97.1457 88.1545 96.3548 89.8489 96.2431 90.4147C96.1314 90.9804 95.6786 89.622 94.0999 89.9638C92.5211 90.3027 91.6185 92.4509 91.6185 92.4509C91.6185 92.4509 90.8277 91.4342 89.8134 91.8851C88.7991 92.3359 88.461 93.4675 88.461 93.4675L84.1745 94.4841H118.461L115.979 93.8064V93.8034Z" stroke="black" stroke-miterlimit="10"/>
<path d="M120.657 17.6362C120.657 17.6362 120.36 15.9478 119.469 15.7503C118.86 15.6148 118.249 15.8034 117.925 15.936C117.661 15.3466 117.27 14.7661 116.694 14.3595C115.009 13.169 114.018 15.3525 114.018 15.3525C114.018 15.3525 112.928 12.671 110.549 11.3803C108.171 10.0896 105.892 11.0827 104.998 11.8783C104.108 12.6739 103.414 14.162 103.314 14.66C103.214 15.158 102.817 13.9646 101.432 14.2622C100.045 14.5598 99.2507 16.4487 99.2507 16.4487C99.2507 16.4487 98.5569 15.5558 97.6661 15.9507C96.7753 16.3485 96.4783 17.3416 96.4783 17.3416L92.7122 18.2344H122.838L120.657 17.6392V17.6362Z" stroke="black" stroke-miterlimit="10"/>
<path d="M101.212 112.132C101.794 112.385 103.217 112.356 103.22 112.356C103.234 112.356 102.914 111.422 102.888 111.366C102.576 110.712 101.588 109.63 100.783 109.739C100.203 109.819 99.8829 110.399 100.012 110.944C100.145 111.501 100.718 111.917 101.212 112.135V112.132Z" fill="black"/>
<path d="M101.703 116.266C102.305 116.355 103.575 115.986 103.678 115.954C103.878 116.667 104.143 117.383 104.449 118.09C104.622 118.497 104.813 118.898 105.007 119.301C104.893 119.131 104.787 118.98 104.769 118.96C104.296 118.412 103.058 117.631 102.311 117.946C101.773 118.176 101.615 118.821 101.885 119.313C102.161 119.817 102.82 120.065 103.355 120.144C103.899 120.224 104.987 119.929 105.275 119.85C105.351 120.003 105.425 120.156 105.501 120.309C105.869 121.043 106.239 121.774 106.58 122.502C106.701 122.758 106.809 123.014 106.921 123.274C106.818 123.123 106.73 122.997 106.715 122.979C106.242 122.431 105.004 121.647 104.258 121.965C103.72 122.195 103.561 122.84 103.831 123.333C104.108 123.836 104.766 124.084 105.301 124.164C105.819 124.24 106.827 123.978 107.168 123.884C107.274 124.149 107.38 124.417 107.468 124.679C107.524 124.859 107.592 125.03 107.641 125.216C107.691 125.398 107.741 125.578 107.791 125.758C107.874 126.105 107.962 126.462 108.035 126.804C108.088 127.04 108.132 127.266 108.18 127.496C108.062 127.24 107.824 126.742 107.797 126.701C107.412 126.085 106.307 125.127 105.522 125.328C104.954 125.472 104.702 126.085 104.896 126.615C105.093 127.154 105.707 127.499 106.224 127.658C106.795 127.832 108.056 127.673 108.212 127.652C108.288 128.03 108.359 128.398 108.418 128.746C108.45 128.931 108.479 129.102 108.506 129.276H109.009C108.97 129.076 108.932 128.869 108.891 128.657C108.815 128.274 108.729 127.865 108.632 127.446C108.726 127.408 109.264 127.19 109.741 126.925C110.155 127.375 111.219 127.903 111.358 127.971C111.214 128.327 111.07 128.672 110.928 128.996C110.887 129.093 110.846 129.185 110.802 129.279H111.331C111.346 129.247 111.358 129.217 111.369 129.185C111.519 128.822 111.669 128.433 111.822 128.033C111.975 128.065 113.222 128.318 113.804 128.186C114.33 128.065 114.971 127.767 115.206 127.243C115.438 126.73 115.23 126.1 114.677 125.914C113.91 125.655 112.734 126.53 112.304 127.113C112.278 127.149 112.046 127.552 111.902 127.809C111.963 127.644 112.025 127.485 112.084 127.317C112.207 126.981 112.319 126.645 112.442 126.279C112.495 126.103 112.548 125.923 112.604 125.74C112.66 125.56 112.698 125.366 112.748 125.177C112.854 124.738 112.936 124.287 113.013 123.831C113.307 123.937 114.353 124.302 114.894 124.264C115.435 124.225 116.112 124.028 116.423 123.545C116.729 123.073 116.62 122.419 116.1 122.151C115.38 121.78 114.086 122.466 113.574 122.976C113.542 123.008 113.216 123.418 113.039 123.645C113.083 123.371 113.127 123.097 113.16 122.817C113.26 122.009 113.336 121.193 113.416 120.374C113.439 120.124 113.466 119.876 113.492 119.626C113.595 119.664 114.83 120.127 115.438 120.082C115.979 120.044 116.655 119.847 116.967 119.363C117.273 118.892 117.164 118.238 116.644 117.97C115.923 117.598 114.63 118.285 114.118 118.795C114.08 118.833 113.61 119.422 113.498 119.578C113.557 119.03 113.618 118.482 113.704 117.946C113.818 117.206 113.971 116.484 114.171 115.798C114.218 115.815 115.506 116.302 116.126 116.26C116.667 116.222 117.343 116.025 117.655 115.541C117.961 115.07 117.852 114.416 117.332 114.148C116.611 113.776 115.318 114.463 114.806 114.973C114.765 115.014 114.262 115.647 114.177 115.768C114.189 115.727 114.198 115.683 114.209 115.645C114.433 114.914 114.739 114.236 115.059 113.614C115.244 113.252 115.441 112.916 115.638 112.595C115.868 112.71 116.926 113.225 117.49 113.249C118.031 113.269 118.725 113.149 119.09 112.704C119.446 112.271 119.41 111.605 118.922 111.283C118.246 110.833 116.888 111.375 116.32 111.826C116.291 111.849 116.003 112.135 115.8 112.344C115.891 112.2 115.982 112.05 116.073 111.914C116.411 111.401 116.755 110.953 117.061 110.558C117.238 110.335 117.399 110.137 117.555 109.954C117.84 109.949 118.987 109.913 119.49 109.677C119.978 109.448 120.539 109.017 120.657 108.455C120.771 107.903 120.436 107.332 119.854 107.27C119.049 107.182 118.09 108.289 117.796 108.953C117.77 109.008 117.476 109.951 117.49 109.951C117.49 109.951 117.505 109.951 117.508 109.951C117.355 110.125 117.193 110.314 117.02 110.523C116.705 110.912 116.353 111.354 116 111.861C115.647 112.368 115.277 112.925 114.941 113.549C114.603 114.174 114.28 114.849 114.039 115.589C114.039 115.597 114.033 115.606 114.03 115.615C114.033 115.376 114.024 114.71 114.018 114.66C113.924 113.941 113.324 112.604 112.525 112.456C111.951 112.35 111.463 112.801 111.416 113.361C111.369 113.932 111.784 114.504 112.187 114.867C112.642 115.273 113.904 115.668 114.007 115.701C113.78 116.405 113.607 117.147 113.474 117.908C113.398 118.344 113.333 118.783 113.274 119.225C113.272 119.019 113.269 118.836 113.263 118.809C113.169 118.09 112.569 116.753 111.769 116.605C111.196 116.499 110.708 116.95 110.664 117.51C110.617 118.081 111.031 118.653 111.434 119.016C111.843 119.381 112.913 119.741 113.198 119.832C113.177 120.003 113.154 120.171 113.133 120.342C113.036 121.158 112.942 121.971 112.828 122.767C112.786 123.047 112.736 123.321 112.686 123.598C112.686 123.415 112.681 123.262 112.678 123.238C112.584 122.519 111.984 121.181 111.184 121.034C110.608 120.928 110.123 121.379 110.076 121.939C110.029 122.51 110.443 123.082 110.846 123.445C111.237 123.795 112.222 124.134 112.56 124.243C112.501 124.523 112.442 124.803 112.372 125.074C112.319 125.257 112.284 125.437 112.219 125.616C112.16 125.796 112.104 125.976 112.046 126.15C111.925 126.486 111.799 126.833 111.672 127.157C111.587 127.384 111.499 127.596 111.413 127.815C111.458 127.535 111.531 126.989 111.534 126.942C111.546 126.459 111.375 125.675 111.034 125.124C111.034 125.053 111.034 124.983 111.02 124.912C110.931 124.358 110.411 123.945 109.846 124.096C109.061 124.305 108.565 125.684 108.529 126.409C108.529 126.453 108.556 126.919 108.576 127.213C108.538 127.043 108.5 126.877 108.459 126.701C108.376 126.353 108.285 126.008 108.185 125.637C108.132 125.46 108.077 125.28 108.024 125.101C107.974 124.921 107.897 124.735 107.836 124.553C107.68 124.128 107.503 123.704 107.315 123.282C107.618 123.209 108.691 122.935 109.123 122.605C109.552 122.275 110.008 121.735 110.002 121.161C109.999 120.598 109.547 120.112 108.964 120.177C108.159 120.265 107.459 121.553 107.312 122.263C107.303 122.307 107.256 122.829 107.236 123.117C107.121 122.864 107.006 122.611 106.883 122.36C106.521 121.632 106.136 120.907 105.751 120.183C105.633 119.962 105.519 119.738 105.404 119.517C105.513 119.493 106.795 119.192 107.28 118.821C107.709 118.491 108.165 117.952 108.159 117.377C108.156 116.814 107.703 116.328 107.121 116.393C106.316 116.481 105.616 117.769 105.469 118.479C105.457 118.532 105.389 119.284 105.384 119.475C105.131 118.986 104.881 118.494 104.654 118.002C104.343 117.321 104.075 116.635 103.864 115.954C103.914 115.942 105.254 115.636 105.748 115.256C106.177 114.926 106.633 114.386 106.627 113.812C106.624 113.249 106.171 112.763 105.589 112.827C104.784 112.916 104.084 114.204 103.937 114.914C103.925 114.97 103.852 115.777 103.852 115.924C103.84 115.883 103.822 115.842 103.811 115.804C103.596 115.07 103.476 114.336 103.399 113.641C103.355 113.237 103.334 112.848 103.323 112.471C103.578 112.438 104.746 112.285 105.228 111.991C105.689 111.711 106.201 111.224 106.26 110.653C106.318 110.093 105.922 109.56 105.337 109.56C104.525 109.56 103.69 110.762 103.467 111.451C103.455 111.49 103.373 111.885 103.317 112.173C103.317 112.002 103.308 111.826 103.308 111.664C103.308 111.048 103.349 110.485 103.387 109.987C103.411 109.704 103.44 109.448 103.467 109.209C103.702 109.047 104.64 108.384 104.928 107.909C105.21 107.447 105.439 106.778 105.231 106.244C105.025 105.723 104.428 105.431 103.911 105.699C103.19 106.074 102.999 107.526 103.12 108.242C103.132 108.304 103.402 109.253 103.414 109.244C103.414 109.244 103.426 109.235 103.428 109.235C103.396 109.465 103.367 109.71 103.337 109.981C103.287 110.479 103.237 111.042 103.223 111.661C103.208 112.276 103.208 112.948 103.27 113.653C103.331 114.36 103.434 115.102 103.637 115.851C103.637 115.86 103.643 115.868 103.646 115.877C103.52 115.677 103.143 115.126 103.108 115.088C102.635 114.54 101.397 113.756 100.65 114.074C100.112 114.304 99.9534 114.949 100.224 115.441C100.5 115.945 101.159 116.193 101.694 116.272L101.703 116.266Z" fill="black"/>
<path d="M115.612 112.447C115.612 112.447 115.871 111.498 115.879 111.437C115.979 110.718 115.75 109.271 115.021 108.917C114.495 108.664 113.907 108.97 113.716 109.498C113.519 110.037 113.768 110.697 114.062 111.154C114.406 111.687 115.612 112.447 115.615 112.45L115.612 112.447Z" fill="black"/>
<path d="M14.5206 119.794C14.841 119.935 15.629 119.917 15.629 119.917C15.6378 119.917 15.4584 119.402 15.4437 119.369C15.2703 119.007 14.7234 118.409 14.2795 118.47C13.959 118.515 13.7826 118.836 13.8532 119.136C13.9267 119.446 14.2442 119.676 14.5176 119.794H14.5206Z" fill="black"/>
<path d="M14.7911 122.08C15.1262 122.13 15.8289 121.924 15.8847 121.909C15.9964 122.304 16.1405 122.699 16.311 123.091C16.408 123.315 16.5109 123.539 16.6197 123.76C16.555 123.666 16.4962 123.583 16.4874 123.571C16.2258 123.268 15.5407 122.835 15.1291 123.011C14.8322 123.138 14.744 123.495 14.8939 123.766C15.0468 124.043 15.4114 124.181 15.7083 124.225C16.0082 124.27 16.6109 124.108 16.7697 124.063C16.8108 124.149 16.852 124.234 16.8961 124.317C17.0989 124.723 17.3047 125.127 17.4929 125.531C17.5605 125.672 17.6193 125.814 17.681 125.958C17.6252 125.876 17.5752 125.805 17.5664 125.796C17.3047 125.493 16.6197 125.059 16.2081 125.236C15.9112 125.363 15.823 125.719 15.9729 125.991C16.1258 126.268 16.4904 126.406 16.7873 126.45C17.0754 126.491 17.6311 126.347 17.8192 126.294C17.878 126.441 17.9368 126.589 17.9839 126.733C18.0162 126.833 18.0515 126.928 18.0779 127.031C18.1073 127.131 18.1338 127.231 18.1603 127.328C18.2073 127.52 18.2543 127.717 18.2955 127.906C18.3249 128.036 18.3484 128.162 18.3749 128.289C18.3102 128.148 18.1779 127.871 18.1632 127.85C17.9515 127.511 17.34 126.978 16.9049 127.09C16.5933 127.169 16.4521 127.508 16.558 127.8C16.6668 128.097 17.0078 128.289 17.293 128.377C17.6076 128.475 18.3043 128.386 18.3925 128.374C18.4337 128.584 18.4719 128.787 18.5072 128.979C18.5248 129.082 18.5395 129.176 18.5572 129.273H18.8335C18.8129 129.161 18.7924 129.049 18.7688 128.931C18.7277 128.719 18.6777 128.492 18.6277 128.262C18.6806 128.242 18.9776 128.121 19.2422 127.974C19.4715 128.224 20.0595 128.516 20.1359 128.551C20.0566 128.749 19.9772 128.94 19.8978 129.12C19.8743 129.173 19.8508 129.226 19.8272 129.276H20.1183C20.1242 129.258 20.133 129.241 20.1389 129.223C20.2212 129.023 20.3035 128.808 20.3888 128.587C20.474 128.604 21.162 128.746 21.4854 128.672C21.7764 128.607 22.1292 128.439 22.2615 128.15C22.3909 127.868 22.2762 127.517 21.9675 127.417C21.5412 127.272 20.8944 127.759 20.6563 128.08C20.6416 128.097 20.5122 128.321 20.4329 128.466C20.4652 128.374 20.5005 128.286 20.5328 128.192C20.6004 128.006 20.6622 127.82 20.7298 127.617C20.7592 127.52 20.7886 127.42 20.818 127.319C20.8503 127.222 20.8709 127.113 20.8974 127.007C20.9562 126.763 21.0032 126.515 21.0444 126.262C21.2061 126.321 21.7853 126.524 22.0851 126.5C22.3821 126.48 22.7584 126.371 22.9319 126.102C23.1024 125.843 23.0406 125.481 22.7525 125.33C22.3527 125.124 21.6383 125.504 21.356 125.787C21.3384 125.805 21.1561 126.032 21.0591 126.158C21.0826 126.005 21.1061 125.855 21.1267 125.702C21.1826 125.257 21.2237 124.803 21.2678 124.352C21.2825 124.214 21.2972 124.075 21.3119 123.94C21.3707 123.96 22.0528 124.217 22.388 124.193C22.6878 124.172 23.0612 124.063 23.2347 123.795C23.4052 123.536 23.3434 123.173 23.0553 123.023C22.6555 122.817 21.9411 123.197 21.6588 123.48C21.6383 123.501 21.3766 123.828 21.3149 123.913C21.3472 123.61 21.3825 123.306 21.4266 123.011C21.4913 122.602 21.5736 122.204 21.6853 121.824C21.7118 121.833 22.4232 122.104 22.7672 122.08C23.0642 122.06 23.4405 121.951 23.6139 121.682C23.7844 121.423 23.7227 121.061 23.4346 120.91C23.0348 120.704 22.3203 121.084 22.0381 121.367C22.0146 121.391 21.7353 121.741 21.6912 121.806C21.6971 121.783 21.7029 121.759 21.7088 121.738C21.8323 121.335 22.0028 120.957 22.1792 120.616C22.2821 120.415 22.3909 120.23 22.4997 120.053C22.6261 120.118 23.2112 120.401 23.5228 120.415C23.8227 120.427 24.2049 120.359 24.4077 120.115C24.6047 119.873 24.5841 119.508 24.3136 119.328C23.9403 119.08 23.1876 119.378 22.876 119.629C22.8584 119.643 22.7025 119.799 22.5879 119.917C22.6379 119.838 22.6908 119.755 22.7408 119.679C22.9289 119.396 23.1171 119.148 23.2876 118.93C23.3846 118.806 23.4757 118.697 23.561 118.597C23.7198 118.597 24.3519 118.574 24.6312 118.444C24.9016 118.317 25.2103 118.079 25.278 117.769C25.3426 117.466 25.1545 117.147 24.834 117.115C24.3871 117.068 23.8579 117.681 23.6962 118.046C23.6815 118.079 23.5198 118.6 23.5257 118.6H23.5345C23.4493 118.697 23.3611 118.8 23.2641 118.915C23.0906 119.131 22.8936 119.375 22.6996 119.655C22.5056 119.935 22.2998 120.244 22.1145 120.589C21.9293 120.934 21.75 121.308 21.6147 121.718C21.6147 121.724 21.6147 121.727 21.6118 121.732C21.6118 121.6 21.6089 121.232 21.6059 121.205C21.553 120.807 21.2208 120.068 20.7798 119.985C20.4623 119.926 20.1918 120.177 20.1683 120.486C20.1418 120.801 20.3711 121.12 20.5946 121.32C20.8474 121.544 21.5442 121.762 21.6 121.78C21.4766 122.169 21.3795 122.581 21.306 123C21.2619 123.241 21.2267 123.483 21.1943 123.727C21.1943 123.613 21.1914 123.512 21.1884 123.498C21.1355 123.1 20.8033 122.36 20.3623 122.278C20.0448 122.219 19.7743 122.469 19.7508 122.779C19.7243 123.094 19.9537 123.412 20.1771 123.613C20.4035 123.816 20.9944 124.013 21.1532 124.063C21.1414 124.158 21.1296 124.252 21.1179 124.346C21.065 124.797 21.012 125.248 20.9474 125.687C20.9238 125.843 20.8974 125.993 20.8709 126.147C20.8709 126.047 20.868 125.961 20.865 125.946C20.8121 125.549 20.4799 124.809 20.0389 124.726C19.7214 124.667 19.4509 124.918 19.4274 125.227C19.4009 125.543 19.6303 125.861 19.8537 126.061C20.0683 126.256 20.6151 126.441 20.8004 126.503C20.768 126.659 20.7357 126.813 20.6975 126.963C20.6681 127.063 20.6475 127.163 20.6151 127.264C20.5828 127.364 20.5505 127.461 20.5211 127.558C20.4535 127.744 20.3858 127.935 20.3153 128.115C20.2682 128.239 20.2183 128.36 20.1712 128.478C20.1947 128.324 20.2359 128.021 20.2359 127.994C20.2418 127.729 20.1477 127.293 19.9595 126.989C19.9595 126.951 19.9595 126.91 19.9537 126.872C19.9037 126.565 19.6156 126.338 19.3039 126.421C18.8717 126.536 18.5954 127.299 18.5748 127.7C18.5748 127.723 18.5895 127.983 18.6013 128.145C18.5807 128.05 18.5601 127.959 18.5366 127.862C18.4925 127.67 18.4396 127.479 18.3866 127.275C18.3572 127.178 18.3278 127.078 18.2955 126.978C18.269 126.877 18.2249 126.777 18.1897 126.674C18.1044 126.438 18.0044 126.206 17.9015 125.973C18.0691 125.932 18.663 125.781 18.9011 125.599C19.1393 125.416 19.3892 125.118 19.3892 124.8C19.3892 124.491 19.1363 124.22 18.8159 124.255C18.369 124.302 17.9839 125.015 17.9015 125.407C17.8957 125.431 17.8692 125.719 17.8574 125.879C17.7928 125.74 17.731 125.599 17.6605 125.46C17.4606 125.056 17.2459 124.656 17.0343 124.255C16.9696 124.131 16.9049 124.01 16.8432 123.887C16.902 123.872 17.6134 123.707 17.881 123.503C18.1191 123.321 18.369 123.023 18.369 122.705C18.369 122.396 18.1162 122.124 17.7957 122.16C17.3488 122.207 16.9637 122.92 16.8814 123.312C16.8755 123.341 16.8373 123.757 16.8343 123.863C16.6932 123.592 16.555 123.321 16.4316 123.047C16.2581 122.67 16.1111 122.292 15.9935 121.912C16.0229 121.906 16.7638 121.738 17.0372 121.526C17.2753 121.344 17.5252 121.046 17.5252 120.728C17.5252 120.418 17.2724 120.147 16.9519 120.183C16.5051 120.23 16.1199 120.943 16.0376 121.335C16.0317 121.364 15.9906 121.812 15.9906 121.895C15.9847 121.871 15.9729 121.85 15.967 121.827C15.8465 121.423 15.7818 121.013 15.7407 120.63C15.7142 120.406 15.7054 120.191 15.6966 119.982C15.8377 119.964 16.4815 119.879 16.7491 119.717C17.0049 119.561 17.2871 119.293 17.3194 118.977C17.3518 118.668 17.1313 118.373 16.8108 118.373C16.361 118.373 15.8994 119.036 15.7759 119.419C15.7701 119.44 15.723 119.658 15.6936 119.817C15.6936 119.723 15.6877 119.626 15.6907 119.534C15.6907 119.195 15.7113 118.883 15.7348 118.606C15.7495 118.45 15.7642 118.308 15.7789 118.176C15.9082 118.087 16.4286 117.719 16.5874 117.457C16.7432 117.2 16.8696 116.832 16.755 116.537C16.6403 116.249 16.311 116.087 16.0258 116.237C15.626 116.443 15.5231 117.248 15.5878 117.642C15.5937 117.678 15.7436 118.202 15.7495 118.196C15.7495 118.196 15.7554 118.193 15.7583 118.191C15.7407 118.317 15.723 118.453 15.7083 118.603C15.6819 118.88 15.6525 119.189 15.6436 119.531C15.6348 119.873 15.6348 120.244 15.6701 120.633C15.7054 121.025 15.7612 121.435 15.873 121.85C15.873 121.856 15.8759 121.859 15.8788 121.865C15.8083 121.753 15.5995 121.45 15.5819 121.429C15.3202 121.125 14.6352 120.692 14.2236 120.869C13.9267 120.996 13.8385 121.352 13.9884 121.626C14.1413 121.903 14.5059 122.042 14.8028 122.086L14.7911 122.08Z" fill="black"/>
<path d="M22.485 119.967C22.485 119.967 22.629 119.443 22.632 119.408C22.6878 119.01 22.5614 118.208 22.1557 118.014C21.8646 117.872 21.5383 118.043 21.4324 118.335C21.3237 118.633 21.4619 118.998 21.6235 119.251C21.8146 119.546 22.482 119.967 22.482 119.967H22.485Z" fill="black"/>
<path d="M92.0037 130.853L91.7274 81.4418L93.2003 80.823C93.2003 80.823 103.32 81.6481 109.023 81.0293C114.727 80.4105 117.946 77.9352 118.59 76.0788C119.234 74.2223 117.388 66.6905 116.191 65.7623C114.994 64.8341 85.8386 59.8835 85.8386 59.8835L81.0552 61.2243C81.0552 61.2243 78.7562 60.193 78.1123 59.9867C77.4685 59.7804 75.9955 61.3274 75.9955 61.3274L74.5226 61.5337H60.0991L58.4527 61.3274C58.4527 61.3274 56.8063 59.7804 56.086 59.9867C55.3657 60.193 52.7932 61.2243 52.7932 61.2243L47.4425 59.8835C47.4425 59.8835 17.0813 66.0717 15.7436 66.9999C14.4059 67.9281 10.0841 74.2223 10.8044 76.0788C11.5247 77.9352 15.1262 80.4105 21.5089 81.0293C27.8887 81.6481 39.2105 80.823 39.2105 80.823L40.8569 81.4418L40.5482 130.853" fill="#13A6D4"/>
<path d="M92.0037 130.853L91.7274 81.4418L93.2003 80.823C93.2003 80.823 103.32 81.6481 109.023 81.0293C114.727 80.4105 117.946 77.9352 118.59 76.0788C119.234 74.2223 117.388 66.6905 116.191 65.7623C114.994 64.8341 85.8386 59.8835 85.8386 59.8835L81.0552 61.2243C81.0552 61.2243 78.7562 60.193 78.1123 59.9867C77.4685 59.7804 75.9955 61.3274 75.9955 61.3274L74.5226 61.5337H60.0991L58.4527 61.3274C58.4527 61.3274 56.8063 59.7804 56.086 59.9867C55.3657 60.193 52.7932 61.2243 52.7932 61.2243L47.4425 59.8835C47.4425 59.8835 17.0813 66.0717 15.7436 66.9999C14.4059 67.9281 10.0841 74.2223 10.8044 76.0788C11.5247 77.9352 15.1262 80.4105 21.5089 81.0293C27.8887 81.6481 39.2105 80.823 39.2105 80.823L40.8569 81.4418L40.5482 130.853" stroke="black" stroke-linecap="round" stroke-linejoin="round"/>
<path d="M95.7493 72.7873L96.3284 71.5379" stroke="black" stroke-linecap="round" stroke-linejoin="round"/>
<path d="M93.4472 73.8098L91.7274 81.4419L95.0554 74.2783" stroke="black" stroke-linecap="round" stroke-linejoin="round"/>
<path d="M81.5344 76.9098C81.4845 77.8085 81.4051 78.3478 81.4051 78.3478" stroke="black" stroke-linecap="round" stroke-linejoin="round"/>
<path d="M78.1123 62.8745C78.1123 62.8745 79.7587 65.3497 80.8906 69.7845C81.411 71.8178 81.5609 73.7862 81.5727 75.3215" stroke="black" stroke-linecap="round" stroke-linejoin="round"/>
<path d="M79.9645 62.7714C79.9645 62.7714 84.2863 67.7219 84.595 69.0626" stroke="black" stroke-linecap="round" stroke-linejoin="round"/>
<path d="M52.7932 62.3588C52.7932 62.3588 53.4106 68.9595 54.7483 71.6439" stroke="black" stroke-linecap="round" stroke-linejoin="round"/>
<path d="M50.0914 64.4215C49.1241 66.6993 47.7423 70.203 47.5453 72.0565" stroke="black" stroke-linecap="round" stroke-linejoin="round"/>
<path d="M51.0439 62.2557C51.0439 62.2557 50.8293 62.7213 50.5059 63.4609" stroke="black" stroke-linecap="round" stroke-linejoin="round"/>
<path d="M53.6135 77.5286C53.7605 78.1002 53.9016 78.5982 54.028 78.9666" stroke="black" stroke-linecap="round" stroke-linejoin="round"/>
<path d="M52.1758 70.7128C52.1758 70.7128 52.6786 73.465 53.2284 75.9108" stroke="black" stroke-linecap="round" stroke-linejoin="round"/>
<path d="M67.7166 69.0626C67.7166 69.0626 66.1731 80.4105 66.0702 82.1638C65.9673 83.9171 65.9673 119.095 65.9673 119.095" stroke="black" stroke-linecap="round" stroke-linejoin="round"/>
<path d="M44.1497 84.639H56.6035C56.6035 84.639 57.4267 97.7402 57.2209 99.2872C57.0151 100.834 51.6643 103.31 49.9121 103.413C48.1628 103.516 44.3555 102.381 43.9439 101.247" stroke="black" stroke-linecap="round" stroke-linejoin="round"/>
<path d="M44.4584 86.7018H55.5715" stroke="black" stroke-linecap="round" stroke-linejoin="round"/>
<path d="M87.0293 84.639H74.5755C74.5755 84.639 73.7523 97.7402 73.9581 99.2872C74.1639 100.834 79.5147 103.31 81.264 103.413C83.0133 103.516 86.8205 102.381 87.2321 101.247" stroke="black" stroke-linecap="round" stroke-linejoin="round"/>
<path d="M86.7206 86.7018H75.6045" stroke="black" stroke-linecap="round" stroke-linejoin="round"/>
<path d="M37.4671 73.3973L36.9438 72.1567" stroke="black" stroke-linecap="round" stroke-linejoin="round"/>
<path d="M40.854 81.4419L38.355 75.5042" stroke="black" stroke-linecap="round" stroke-linejoin="round"/>
<path d="M39.2076 80.823L33.9597 76.8007" stroke="black" stroke-linecap="round" stroke-linejoin="round"/>
<path d="M45.258 71.1401C44.0909 73.2382 42.4739 76.344 42.0917 78.1386" stroke="black" stroke-linecap="round" stroke-linejoin="round"/>
<path d="M46.5164 68.9595C46.5164 68.9595 46.2077 69.4722 45.749 70.2708" stroke="black" stroke-linecap="round" stroke-linejoin="round"/>
<path d="M105.078 75.6663C105.078 75.6663 106.93 78.0384 108.371 78.9666" stroke="black" stroke-linecap="round" stroke-linejoin="round"/>
<path d="M69.2483 75.7045C69.2483 76.1436 68.8955 76.4972 68.4574 76.4972C68.0194 76.4972 67.6666 76.1436 67.6666 75.7045C67.6666 75.2655 68.0194 74.9119 68.4574 74.9119C68.8955 74.9119 69.2483 75.2655 69.2483 75.7045Z" fill="white" stroke="black" stroke-linecap="round" stroke-linejoin="round"/>
<path d="M68.5015 84.5831C68.5015 85.0221 68.1487 85.3757 67.7107 85.3757C67.2726 85.3757 66.9198 85.0221 66.9198 84.5831C66.9198 84.144 67.2726 83.7904 67.7107 83.7904C68.1487 83.7904 68.5015 84.144 68.5015 84.5831Z" fill="white" stroke="black" stroke-linecap="round" stroke-linejoin="round"/>
<path d="M68.4045 93.4616C68.4045 93.9006 68.0517 94.2542 67.6137 94.2542C67.1756 94.2542 66.8228 93.9006 66.8228 93.4616C66.8228 93.0225 67.1756 92.6689 67.6137 92.6689C68.0517 92.6689 68.4045 93.0225 68.4045 93.4616Z" fill="white" stroke="black" stroke-linecap="round" stroke-linejoin="round"/>
<path d="M68.2898 102.34C68.2898 102.779 67.937 103.133 67.499 103.133C67.0609 103.133 66.7081 102.779 66.7081 102.34C66.7081 101.901 67.0609 101.547 67.499 101.547C67.937 101.547 68.2898 101.901 68.2898 102.34Z" fill="white" stroke="black" stroke-linecap="round" stroke-linejoin="round"/>
<path d="M68.0782 111.222C68.0782 111.661 67.7254 112.014 67.2873 112.014C66.8493 112.014 66.4965 111.661 66.4965 111.222C66.4965 110.783 66.8493 110.429 67.2873 110.429C67.7254 110.429 68.0782 110.783 68.0782 111.222Z" fill="white" stroke="black" stroke-linecap="round" stroke-linejoin="round"/>
<path d="M66.0702 121.777V125.902" stroke="black" stroke-linecap="round" stroke-linejoin="round"/>
<path d="M28.0915 75.6663C28.0915 75.6663 26.548 78.2446 23.4611 79.5854" stroke="black" stroke-linecap="round" stroke-linejoin="round"/>
<path d="M68.2898 120.1C68.2898 120.539 67.937 120.893 67.499 120.893C67.0609 120.893 66.7081 120.539 66.7081 120.1C66.7081 119.661 67.0609 119.307 67.499 119.307C67.937 119.307 68.2898 119.661 68.2898 120.1Z" fill="white" stroke="black" stroke-linecap="round" stroke-linejoin="round"/>
<path d="M60.5136 58.5398C60.5136 58.5398 58.7643 58.9524 58.5585 59.3649C58.3527 59.7775 56.2947 66.9999 56.1918 67.7219C56.0889 68.4438 55.8831 69.8877 56.5005 69.7846C57.1179 69.6814 62.7774 65.3497 62.7774 65.3497C62.7774 65.3497 64.1151 65.6591 64.4238 66.4842C64.7325 67.3093 67.7165 69.0626 67.7165 69.0626C67.7165 69.0626 70.4948 67.5156 70.7006 66.8968C70.9064 66.278 71.8325 64.8341 71.8325 64.8341C71.8325 64.8341 77.8007 70.1971 78.3152 69.5783C78.8297 68.9595 78.8297 66.7936 78.521 65.8654C78.2123 64.9372 75.6398 58.4367 75.3311 58.0241C75.0224 57.6116 60.5107 58.5398 60.5107 58.5398H60.5136Z" fill="white" stroke="black" stroke-linecap="round" stroke-linejoin="round"/>
<path d="M64.3209 63.5964L67.7165 69.0626L70.289 64.009L64.3209 63.5964Z" fill="black" stroke="black" stroke-linecap="round" stroke-linejoin="round"/>
<path d="M59.37 33.4572C59.37 33.4572 56.1713 35.1987 55.0717 37.8567C53.9751 40.5147 56.627 55.4517 57.1738 56.3681C57.7206 57.2845 63.236 63.8793 65.1999 64.7162C67.5078 65.7033 70.1509 65.2083 71.1299 63.844C71.368 63.511 77.1657 57.4584 77.4391 56.265C77.7125 55.0715 79.6676 40.055 78.8444 37.397C78.0212 34.7391 76.1925 33.0889 75.5516 32.7235C74.9107 32.3581 73.082 31.533 73.082 31.533C73.082 31.533 74.1786 29.1491 73.8141 29.0578C73.4495 28.9664 71.3445 29.7915 71.3445 29.7915C70.0656 29.6088 73.082 28.5097 72.1677 28.6924C71.2534 28.8751 68.0547 30.2512 68.0547 30.2512C68.0547 30.2512 70.6154 27.7759 69.6099 27.8673C68.6044 27.9586 65.0382 28.9664 64.5825 29.6088C64.1268 30.2512 61.1075 32.5408 61.1075 32.5408C61.1075 32.5408 61.6573 30.4339 60.2843 31.3503C58.9143 32.2667 59.37 33.4572 59.37 33.4572Z" fill="#D9D9D9" stroke="black" stroke-linecap="round" stroke-linejoin="round"/>
<path d="M69.4512 43.706C69.4512 43.706 68.1458 46.2313 68.284 47.6193" stroke="black" stroke-linecap="round" stroke-linejoin="round"/>
<path d="M70.4331 37.8538L70.4566 37.7271C70.2449 37.8508 70.4331 37.8538 70.4331 37.8538Z" stroke="black" stroke-linecap="round" stroke-linejoin="round"/>
<path d="M75.5516 32.7235C74.9107 32.3581 73.082 31.533 73.082 31.533C73.082 31.533 74.1786 29.1491 73.8141 29.0578C73.4495 28.9664 71.3445 29.7915 71.3445 29.7915C70.0656 29.6088 73.082 28.5097 72.1677 28.6924C71.2534 28.8751 68.0547 30.2512 68.0547 30.2512C68.0547 30.2512 70.6154 27.7759 69.6099 27.8673C68.6044 27.9586 65.0382 28.9664 64.5825 29.6088C64.1269 30.2512 61.1075 32.5408 61.1075 32.5408C61.1075 32.5408 61.6573 30.4339 60.2843 31.3503C58.9143 32.2667 59.37 33.4572 59.37 33.4572C59.37 33.4572 56.1713 35.1987 55.0717 37.8567C54.5719 39.0678 54.8483 42.8219 55.351 46.638C55.889 45.7746 56.8357 44.0832 56.9004 42.7129C56.9915 40.7887 57.4502 37.674 58.2704 36.8489C59.0907 36.0238 65.2176 38.3164 66.7728 38.3164C68.3281 38.3164 70.7036 36.3922 70.7036 36.3922L70.4537 37.7329C70.5683 37.6652 70.8006 37.562 71.2534 37.4C72.5323 36.9432 73.3554 36.2095 73.3554 36.2095C73.3554 36.2095 76.0984 35.8441 76.2807 38.6847C76.463 41.5254 76.3719 43.7236 76.9216 44.9171C77.2303 45.5889 77.9506 47.1124 78.5181 48.3088C78.9591 43.9564 79.306 38.8969 78.8444 37.4029C78.0212 34.745 76.1925 33.0948 75.5516 32.7294V32.7235Z" fill="black" stroke="black" stroke-linecap="round" stroke-linejoin="round"/>
<path d="M63.7064 47.5338C63.7064 47.9846 63.43 48.353 63.089 48.353C62.748 48.353 62.4716 47.9876 62.4716 47.5338C62.4716 47.08 62.748 46.7146 63.089 46.7146C63.43 46.7146 63.7064 47.08 63.7064 47.5338Z" fill="black"/>
<path d="M71.8649 47.5338C71.8649 47.9846 71.5885 48.353 71.2475 48.353C70.9064 48.353 70.6301 47.9876 70.6301 47.5338C70.6301 47.08 70.9064 46.7146 71.2475 46.7146C71.5885 46.7146 71.8649 47.08 71.8649 47.5338Z" fill="black"/>
<path d="M64.9295 52.4489C64.9295 52.4489 64.7119 52.9381 64.7119 53.2681C64.7119 53.5981 65.3117 54.3584 65.3117 54.3584" stroke="black" stroke-linecap="round" stroke-linejoin="round"/>
<path d="M65.5822 53.6482C65.5822 53.6482 66.617 54.7945 67.5402 54.5765C68.4663 54.3584 69.0631 53.4302 69.0631 53.4302" stroke="black" stroke-linecap="round" stroke-linejoin="round"/>
<path d="M69.4982 52.2839C69.4982 52.2839 69.9333 52.9381 69.7157 53.7013C69.4982 54.4645 69.063 54.5735 69.063 54.5735" stroke="black" stroke-linecap="round" stroke-linejoin="round"/>
<path d="M64.3944 43.706C64.3944 43.706 62.8862 42.931 61.2045 43.5586C59.5228 44.1863 58.9525 46.0869 59.417 46.0869C59.8815 46.0869 60.79 44.4692 61.6426 44.2659C62.4952 44.0625 64.1298 44.5576 64.3944 43.703V43.706Z" fill="black"/>
<path d="M69.4512 43.706C69.4512 43.706 70.9594 42.931 72.6411 43.5586C74.3227 44.1863 74.8931 46.0869 74.4286 46.0869C73.964 46.0869 73.0556 44.4692 72.203 44.2659C71.3504 44.0625 69.7158 44.5576 69.4512 43.703V43.706Z" fill="black"/>
<path d="M61.3398 48.0318L60.0344 48.742" stroke="black" stroke-linecap="round" stroke-linejoin="round"/>
<path d="M59.2729 47.9228L60.0873 47.7047" stroke="black" stroke-linecap="round" stroke-linejoin="round"/>
<path d="M73.3055 48.1408L74.3933 48.6329" stroke="black" stroke-linecap="round" stroke-linejoin="round"/>
<path d="M74.3932 47.1036L73.6318 47.0505" stroke="black" stroke-linecap="round" stroke-linejoin="round"/>
<path d="M67.4579 60.0957C68.2243 60.0957 68.8455 59.3569 68.8455 58.4455C68.8455 57.5342 68.2243 56.7953 67.4579 56.7953C66.6915 56.7953 66.0702 57.5342 66.0702 58.4455C66.0702 59.3569 66.6915 60.0957 67.4579 60.0957Z" fill="black"/>
<path d="M25.3132 61.9462C25.3132 61.9462 25.519 60.6055 24.7987 60.6055C24.0784 60.6055 16.358 64.4215 15.8435 66.1748C15.329 67.9281 17.0783 73.6035 18.9305 74.8411C20.7827 76.0788 24.7958 77.1101 25.9277 76.6976C27.0596 76.285 30.8668 74.5317 31.1755 73.7066C31.4842 72.8816 30.7639 71.6439 30.7639 71.6439L25.3103 61.9462H25.3132Z" fill="white" stroke="black" stroke-linecap="round" stroke-linejoin="round"/>
<path d="M58.3175 34.3471C58.3175 34.3471 56.7387 37.1436 56.4741 37.5178C56.2095 37.8921 56.4006 48.9983 56.2595 50.6573C56.1184 52.3134 55.257 54.4498 54.6396 55.3839C54.0222 56.318 29.5292 73.1998 29.5292 73.1998C29.5292 73.1998 27.1625 73.8127 25.178 71.473C23.1935 69.1363 22.7202 64.9224 22.9672 63.8145C23.2141 62.7065 23.8374 61.9551 23.8374 61.9551C23.8374 61.9551 49.6122 52.2043 49.8827 52.1071C50.1561 52.0069 50.9411 50.5188 50.9234 49.7851C50.9058 49.0513 49.8415 39.6188 50.1061 39.2446C50.3707 38.8704 53.5635 34.6565 53.5635 34.6565C53.5635 34.6565 58.0823 32.2461 58.3527 32.0546C58.6232 31.863 60.7106 31.0763 60.7282 31.81C60.7459 32.5437 60.2079 32.9268 59.7551 33.1213C59.3024 33.3158 58.7614 33.6989 58.7614 33.6989L58.3204 34.353L58.3175 34.3471Z" fill="#D9D9D9" stroke="black" stroke-linecap="round" stroke-linejoin="round"/>
<path d="M57.8765 32.3228C57.8765 32.3228 53.9663 36.3981 53.8252 36.6456C53.6841 36.8931 52.9197 40.9832 52.9197 40.9832" stroke="black" stroke-linecap="round" stroke-linejoin="round"/>
<path d="M53.5606 34.6536C53.5606 34.6536 51.7349 38.1543 51.4556 38.5964C51.1763 39.0384 51.1469 39.7692 51.2086 40.2524" stroke="black" stroke-linecap="round" stroke-linejoin="round"/>
<path d="M108.085 61.9462C108.085 61.9462 107.88 60.6055 108.6 60.6055C109.32 60.6055 117.041 64.4215 117.555 66.1748C118.07 67.9281 116.32 73.6035 114.468 74.8411C112.616 76.0788 108.603 77.1101 107.471 76.6976C106.339 76.285 102.532 74.5317 102.223 73.7066C101.914 72.8816 102.635 71.6439 102.635 71.6439L108.088 61.9462H108.085Z" fill="white" stroke="black" stroke-linecap="round" stroke-linejoin="round"/>
<path d="M75.3164 34.1203C75.3164 34.1203 76.8775 36.9256 77.1392 37.3027C77.4008 37.6799 77.1392 48.7832 77.2715 50.4422C77.4008 52.0983 78.2505 54.2406 78.862 55.1776C79.4735 56.1147 103.861 73.1527 103.861 73.1527C103.861 73.1527 106.224 73.7804 108.221 71.4554C110.22 69.1304 110.72 64.9225 110.479 63.8116C110.237 62.7006 109.62 61.9463 109.62 61.9463C109.62 61.9463 83.907 52.0305 83.6365 51.9303C83.3661 51.8301 82.587 50.3361 82.6105 49.6024C82.634 48.8687 83.7571 39.4421 83.4954 39.0678C83.2338 38.6907 80.0674 34.4562 80.0674 34.4562C80.0674 34.4562 75.5634 32.0163 75.2929 31.8248C75.0253 31.6332 72.9409 30.8317 72.9174 31.5655C72.8939 32.2992 73.4319 32.6852 73.8846 32.8826C74.3374 33.0801 74.8754 33.4661 74.8754 33.4661L75.3135 34.1232L75.3164 34.1203Z" fill="#D9D9D9" stroke="black" stroke-linecap="round" stroke-linejoin="round"/>
<path d="M75.7721 32.0988C75.7721 32.0988 79.6587 36.1977 79.794 36.4452C79.9292 36.6928 80.673 40.7887 80.673 40.7887" stroke="black" stroke-linecap="round" stroke-linejoin="round"/>
<path d="M80.0704 34.4562C80.0704 34.4562 81.8726 37.9687 82.1489 38.4136C82.4253 38.8586 82.4518 39.5864 82.3871 40.0697" stroke="black" stroke-linecap="round" stroke-linejoin="round"/>
<path d="M39.2164 30.5959L44.9023 32.7058" stroke="black" stroke-linecap="round" stroke-linejoin="round"/>
<path d="M44.4819 40.936L40.2689 41.991" stroke="black" stroke-linecap="round" stroke-linejoin="round"/>
<path d="M93.5443 30.5959L87.8583 32.7058" stroke="black" stroke-linecap="round" stroke-linejoin="round"/>
<path d="M88.2787 40.936L92.4917 41.991" stroke="black" stroke-linecap="round" stroke-linejoin="round"/>
<path d="M51.7554 24.5493L53.8575 28.1295" stroke="black" stroke-linecap="round" stroke-linejoin="round"/>
<path d="M82.6487 24.5493L80.5466 28.1295" stroke="black" stroke-linecap="round" stroke-linejoin="round"/>
</g>
<defs>
<clipPath id="clip0_181_424">
<rect width="130" height="131" fill="white"/>
</clipPath>
</defs>
</svg>
