<svg width="14" height="14" viewBox="0 0 14 14" fill="none" xmlns="http://www.w3.org/2000/svg">
<g clip-path="url(#clip0_125_32)">
<path d="M11.0833 1.16667H10.5V0.583333C10.5 0.261333 10.2392 0 9.91667 0C9.59408 0 9.33333 0.261333 9.33333 0.583333V1.16667H4.66667V0.583333C4.66667 0.261333 4.40592 0 4.08333 0C3.76075 0 3.5 0.261333 3.5 0.583333V1.16667H2.91667C1.30842 1.16667 0 2.47508 0 4.08333V11.0833C0 12.6916 1.30842 14 2.91667 14H11.0833C12.6916 14 14 12.6916 14 11.0833V4.08333C14 2.47508 12.6916 1.16667 11.0833 1.16667ZM2.91667 2.33333H11.0833C12.0482 2.33333 12.8333 3.1185 12.8333 4.08333V4.66667H1.16667V4.08333C1.16667 3.1185 1.95183 2.33333 2.91667 2.33333ZM11.0833 12.8333H2.91667C1.95183 12.8333 1.16667 12.0482 1.16667 11.0833V5.83333H12.8333V11.0833C12.8333 12.0482 12.0482 12.8333 11.0833 12.8333ZM11.0833 8.16667C11.0833 8.48867 10.8226 8.75 10.5 8.75H3.5C3.17742 8.75 2.91667 8.48867 2.91667 8.16667C2.91667 7.84467 3.17742 7.58333 3.5 7.58333H10.5C10.8226 7.58333 11.0833 7.84467 11.0833 8.16667ZM7 10.5C7 10.822 6.73925 11.0833 6.41667 11.0833H3.5C3.17742 11.0833 2.91667 10.822 2.91667 10.5C2.91667 10.178 3.17742 9.91667 3.5 9.91667H6.41667C6.73925 9.91667 7 10.178 7 10.5Z" fill="white"/>
</g>
<defs>
<clipPath id="clip0_125_32">
<rect width="14" height="14" fill="white"/>
</clipPath>
</defs>
</svg>
