<svg width="135" height="150" viewBox="0 0 135 150" fill="none" xmlns="http://www.w3.org/2000/svg">
<g style="mix-blend-mode:multiply" opacity="0.6">
<path d="M89.043 121.413C89.043 126.262 69.1076 130.193 44.5195 130.193C19.9313 130.193 0 126.258 0 121.413C0 116.569 19.9354 112.634 44.5235 112.634C69.1117 112.634 89.047 116.565 89.047 121.413H89.043Z" fill="#CCCCCC"/>
</g>
<path d="M119.013 92.2314C119.013 92.2314 111.234 53.0409 81.9767 35.7231H61.0654C31.8042 53.0449 24.0293 92.2314 24.0293 92.2314C15.4729 137.801 68.6379 131.998 68.6379 131.998H74.4043C74.4043 131.998 127.569 137.801 119.013 92.2314Z" fill="#E8C47B"/>
<path d="M119.013 92.2314C119.013 92.2314 111.234 53.0409 81.9768 35.7231H70.3549C90.2295 53.1295 95.8137 81.2447 95.8137 81.2447C103.629 122.868 55.0683 117.568 55.0683 117.568H49.8C49.8 117.568 37.1374 118.945 25.7869 114.757C35.5581 135.606 68.638 132.002 68.638 132.002H74.4044C74.4044 132.002 127.569 137.805 119.013 92.2354V92.2314Z" fill="#DAB873"/>
<path d="M39.8423 10.2457C38.757 8.8281 37.0441 5.77132 38.9069 4.3577C41.3325 2.51316 46.0906 4.46644 48.5567 5.15513C51.7841 6.04921 55.3516 6.85066 58.8989 6.48416C62.3612 6.12573 66.3013 4.21272 69.3748 2.97228C72.4888 1.71574 75.7567 -0.543625 79.4781 0.596125C83.3697 1.79226 84.9003 5.17929 89.3952 5.60217C97.2916 6.34723 101.952 -0.696666 109.355 0.0564552C113.202 0.447112 112.76 2.83132 110.606 4.47047L81.9807 35.719H61.0694L39.8463 10.2417L39.8423 10.2457Z" fill="#E8C47B"/>
<g style="mix-blend-mode:multiply" opacity="0.6">
<path d="M98.0327 143.826C88.4113 143.826 80.6121 140.842 80.6121 137.165C80.6121 133.488 88.4113 130.503 98.0327 130.503C107.654 130.503 115.453 133.488 115.453 137.165C115.453 140.842 107.654 143.826 98.0327 143.826Z" fill="#CCCCCC"/>
</g>
<g style="mix-blend-mode:multiply" opacity="0.6">
<path d="M116.312 123.528C106.69 123.528 98.8912 120.544 98.8912 116.867C98.8912 113.19 106.69 110.206 116.312 110.206C125.933 110.206 133.733 113.19 133.733 116.867C133.733 120.544 125.933 123.528 116.312 123.528Z" fill="#CCCCCC"/>
</g>
<g style="mix-blend-mode:multiply" opacity="0.6">
<path d="M114.182 136.653C104.568 136.331 96.6721 139.05 96.5466 142.727C96.421 146.404 104.115 149.646 113.728 149.972C123.342 150.294 131.238 147.576 131.364 143.899C131.489 140.222 123.795 136.98 114.182 136.653Z" fill="#CCCCCC"/>
</g>
<g style="mix-blend-mode:multiply" opacity="0.6">
<path d="M64.9286 125.638C74.542 125.316 82.4384 128.035 82.5639 131.712C82.6894 135.389 74.9955 138.631 65.3822 138.957C55.7688 139.279 47.8724 136.561 47.7469 132.884C47.6213 129.206 55.3153 125.964 64.9286 125.638Z" fill="#CCCCCC"/>
</g>
<path d="M57.2711 127.6C57.2711 131.281 65.0703 134.261 74.6918 134.261C84.3132 134.261 92.1124 131.277 92.1124 127.6V124.45H57.2752V127.6H57.2711Z" fill="#FF931E"/>
<path d="M73.0315 126.069V134.229C73.5782 134.249 74.1289 134.261 74.6877 134.261V126.069H73.0315Z" fill="#D17918"/>
<path d="M69.6746 126.069V133.979C70.5735 134.084 71.5049 134.156 72.4606 134.205V126.069H69.6746Z" fill="#D17918"/>
<path d="M68.9861 133.894V124.466H57.2711V127.6C57.2711 130.515 62.1669 132.992 68.9861 133.894Z" fill="#D17918"/>
<path d="M80.8955 126.069V133.826C81.0858 133.798 81.2762 133.77 81.4624 133.742V126.073H80.8955V126.069Z" fill="#D17918"/>
<path d="M78.7291 134.08C78.9194 134.064 79.1098 134.044 79.2961 134.023V126.069H78.7291V134.08Z" fill="#D17918"/>
<path d="M75.9795 126.069V134.241C76.2589 134.233 76.5343 134.225 76.8096 134.209V126.065H75.9795V126.069Z" fill="#D17918"/>
<path d="M74.6918 131.116C65.0703 131.116 57.2711 128.131 57.2711 124.454C57.2711 120.777 65.0703 117.793 74.6918 117.793C84.3132 117.793 92.1124 120.777 92.1124 124.454C92.1124 128.131 84.3132 131.116 74.6918 131.116Z" fill="#FF931E"/>
<path style="mix-blend-mode:multiply" opacity="0.4" d="M84.5036 129.956C84.0095 129.972 83.5115 129.984 83.0053 129.984C73.3838 129.984 65.5846 127 65.5846 123.323C65.5846 121.035 68.5974 119.018 73.1895 117.817C64.2726 118.107 57.2671 120.967 57.2671 124.455C57.2671 128.136 65.0663 131.116 74.6878 131.116C78.3282 131.116 81.7054 130.689 84.5036 129.956Z" fill="url(#paint0_linear_369_240)"/>
<path d="M92.0963 124.66C91.8088 121.075 84.131 118.204 74.6918 118.204C65.2526 118.204 57.5749 121.075 57.2874 124.66C57.5749 128.244 65.2526 131.115 74.6918 131.115C84.131 131.115 91.8128 128.244 92.0963 124.66ZM74.6918 130.29C66.8724 130.29 60.5148 127.857 60.5148 124.865C60.5148 121.873 66.8764 119.44 74.6918 119.44C82.5072 119.44 88.8729 121.873 88.8729 124.865C88.8729 127.857 82.5113 130.29 74.6918 130.29Z" fill="#D17918"/>
<path d="M73.1125 123.528L66.3743 125.453V126.79L73.2705 124.676C73.9508 125.224 74.9348 125.638 76.2022 125.912C76.3035 125.936 76.4088 125.953 76.514 125.973V127.165H79.0166V126.247C79.5633 126.271 80.0695 126.275 80.5108 126.263V127.165H83.0134V123.58H80.5108V125.312C80.0937 125.328 79.5714 125.328 79.0166 125.292V123.58H76.514V124.801C75.9188 124.571 75.4045 124.241 75.0684 123.778L73.1125 123.52V123.528Z" fill="#D17918"/>
<path d="M88.8689 124.45C88.8689 127.439 82.5072 129.875 74.6878 129.875C66.8683 129.875 60.5107 127.443 60.5107 124.45C60.5107 121.458 66.8723 119.025 74.6878 119.025C82.5032 119.025 88.8689 121.458 88.8689 124.45ZM92.1084 124.45C92.1084 120.769 84.3092 117.789 74.6878 117.789C65.0663 117.789 57.2671 120.773 57.2671 124.45C57.2671 128.127 65.0663 131.112 74.6878 131.112C84.3092 131.112 92.1084 128.127 92.1084 124.45Z" fill="#FFC022"/>
<path d="M62.3855 124.45C62.3855 121.857 67.9049 119.742 74.6917 119.742C81.4786 119.742 86.9979 121.853 86.9979 124.45C86.9979 127.048 81.4786 129.158 74.6917 129.158C67.9049 129.158 62.3855 127.048 62.3855 124.45ZM86.4553 124.45C86.4553 121.969 81.1789 119.952 74.6917 119.952C68.2045 119.952 62.9281 121.969 62.9281 124.45C62.9281 126.931 68.2045 128.949 74.6917 128.949C81.1789 128.949 86.4553 126.931 86.4553 124.45Z" fill="#FFC022"/>
<path d="M73.1125 122.63L66.3743 124.555V125.892L73.2705 123.778C73.9508 124.325 74.9348 124.74 76.2022 125.014C76.3035 125.038 76.4088 125.054 76.514 125.075V126.271H79.0166V125.352C79.5633 125.377 80.0695 125.377 80.5108 125.369V126.271H83.0134V122.686H80.5108V124.418C80.0937 124.434 79.5714 124.434 79.0166 124.398V122.686H76.514V123.907C75.9188 123.677 75.4045 123.347 75.0684 122.884L73.1125 122.63Z" fill="#FFC022"/>
<path d="M57.2711 120.938C57.2711 124.615 65.0703 127.6 74.6918 127.6C84.3132 127.6 92.1124 124.615 92.1124 120.938V117.789H57.2752V120.938H57.2711Z" fill="#FF931E"/>
<path d="M73.0315 119.408V127.568C73.5782 127.588 74.1289 127.6 74.6877 127.6V119.408H73.0315Z" fill="#D17918"/>
<path d="M69.6746 119.408V127.318C70.5735 127.423 71.5049 127.499 72.4606 127.544V119.408H69.6746Z" fill="#D17918"/>
<path d="M68.9861 127.233V117.805H57.2711V120.938C57.2711 123.854 62.1669 126.327 68.9861 127.233Z" fill="#D17918"/>
<path d="M80.8955 119.408V127.165C81.0858 127.137 81.2762 127.109 81.4624 127.08V119.412H80.8955V119.408Z" fill="#D17918"/>
<path d="M78.7291 127.419C78.9194 127.403 79.1098 127.382 79.2961 127.362V119.408H78.7291V127.419Z" fill="#D17918"/>
<path d="M75.9795 119.408V127.58C76.2589 127.572 76.5343 127.564 76.8096 127.548V119.408H75.9795Z" fill="#D17918"/>
<path d="M74.6918 124.45C65.0703 124.45 57.2711 121.466 57.2711 117.789C57.2711 114.112 65.0703 111.127 74.6918 111.127C84.3132 111.127 92.1124 114.112 92.1124 117.789C92.1124 121.466 84.3132 124.45 74.6918 124.45Z" fill="#FF931E"/>
<path style="mix-blend-mode:multiply" opacity="0.4" d="M84.5036 123.294C84.0095 123.311 83.5115 123.319 83.0053 123.319C73.3838 123.319 65.5846 120.334 65.5846 116.657C65.5846 114.37 68.5974 112.352 73.1895 111.152C64.2726 111.442 57.2671 114.301 57.2671 117.789C57.2671 121.47 65.0663 124.45 74.6878 124.45C78.3282 124.45 81.7054 124.023 84.5036 123.29V123.294Z" fill="url(#paint1_linear_369_240)"/>
<path d="M92.0963 117.994C91.8088 114.41 84.131 111.539 74.6918 111.539C65.2526 111.539 57.5749 114.41 57.2874 117.994C57.5749 121.579 65.2526 124.45 74.6918 124.45C84.131 124.45 91.8128 121.579 92.0963 117.994ZM74.6918 123.625C66.8724 123.625 60.5148 121.192 60.5148 118.2C60.5148 115.208 66.8764 112.775 74.6918 112.775C82.5072 112.775 88.8729 115.208 88.8729 118.2C88.8729 121.192 82.5113 123.625 74.6918 123.625Z" fill="#D17918"/>
<path d="M73.1125 116.867L66.3743 118.792V120.129L73.2705 118.015C73.9508 118.562 74.9348 118.977 76.2022 119.251C76.3035 119.275 76.4088 119.291 76.514 119.311V120.508H79.0166V119.589C79.5633 119.613 80.0695 119.618 80.5108 119.605V120.508H83.0134V116.923H80.5108V118.655C80.0937 118.671 79.5714 118.671 79.0166 118.635V116.923H76.514V118.143C75.9188 117.914 75.4045 117.584 75.0684 117.121L73.1125 116.863V116.867Z" fill="#D17918"/>
<path d="M88.8689 117.789C88.8689 120.777 82.5072 123.214 74.6878 123.214C66.8683 123.214 60.5107 120.781 60.5107 117.789C60.5107 114.796 66.8723 112.364 74.6878 112.364C82.5032 112.364 88.8689 114.796 88.8689 117.789ZM92.1084 117.789C92.1084 114.108 84.3092 111.127 74.6878 111.127C65.0663 111.127 57.2671 114.112 57.2671 117.789C57.2671 121.466 65.0663 124.45 74.6878 124.45C84.3092 124.45 92.1084 121.466 92.1084 117.789Z" fill="#FFC022"/>
<path d="M62.3855 117.789C62.3855 115.191 67.9049 113.081 74.6917 113.081C81.4786 113.081 86.9979 115.191 86.9979 117.789C86.9979 120.387 81.4786 122.497 74.6917 122.497C67.9049 122.497 62.3855 120.387 62.3855 117.789ZM86.4553 117.789C86.4553 115.308 81.1789 113.29 74.6917 113.29C68.2045 113.29 62.9281 115.308 62.9281 117.789C62.9281 120.27 68.2045 122.288 74.6917 122.288C81.1789 122.288 86.4553 120.27 86.4553 117.789Z" fill="#FFC022"/>
<path d="M73.1125 115.968L66.3743 117.893V119.231L73.2705 117.116C73.9508 117.664 74.9348 118.079 76.2022 118.353C76.3035 118.373 76.4088 118.393 76.514 118.413V119.605H79.0166V118.687C79.5633 118.711 80.0695 118.711 80.5108 118.703V119.605H83.0134V116.021H80.5108V117.753C80.0937 117.769 79.5714 117.769 79.0166 117.732V116.021H76.514V117.241C75.9188 117.011 75.4045 116.681 75.0684 116.218L73.1125 115.964V115.968Z" fill="#FFC022"/>
<path d="M57.2711 114.273C57.2711 117.95 65.0703 120.934 74.6918 120.934C84.3132 120.934 92.1124 117.95 92.1124 114.273V111.124H57.2752V114.273H57.2711Z" fill="#FF931E"/>
<path d="M73.0315 112.743V120.902C73.5782 120.922 74.1289 120.934 74.6877 120.934V112.743H73.0315Z" fill="#D17918"/>
<path d="M69.6746 112.743V120.652C70.5735 120.757 71.5049 120.834 72.4606 120.878V112.743H69.6746Z" fill="#D17918"/>
<path d="M68.9861 120.568V111.14H57.2711V114.273C57.2711 117.189 62.1669 119.662 68.9861 120.568Z" fill="#D17918"/>
<path d="M80.8955 112.743V120.499C81.0858 120.471 81.2762 120.443 81.4624 120.415V112.743H80.8955Z" fill="#D17918"/>
<path d="M78.7291 120.753C78.9194 120.737 79.1098 120.717 79.2961 120.697V112.743H78.7291V120.753Z" fill="#D17918"/>
<path d="M75.9795 112.743V120.914C76.2589 120.906 76.5343 120.898 76.8096 120.882V112.743H75.9795Z" fill="#D17918"/>
<path d="M74.6918 117.789C65.0703 117.789 57.2711 114.805 57.2711 111.128C57.2711 107.451 65.0703 104.466 74.6918 104.466C84.3132 104.466 92.1124 107.451 92.1124 111.128C92.1124 114.805 84.3132 117.789 74.6918 117.789Z" fill="#FF931E"/>
<path style="mix-blend-mode:multiply" opacity="0.4" d="M84.5036 116.633C84.0095 116.649 83.5115 116.657 83.0053 116.657C73.3838 116.657 65.5846 113.673 65.5846 109.996C65.5846 107.709 68.5974 105.691 73.1895 104.491C64.2726 104.781 57.2671 107.64 57.2671 111.128C57.2671 114.809 65.0663 117.789 74.6878 117.789C78.3282 117.789 81.7054 117.362 84.5036 116.629V116.633Z" fill="url(#paint2_linear_369_240)"/>
<path d="M92.0963 111.333C91.8088 107.748 84.131 104.877 74.6918 104.877C65.2526 104.877 57.5749 107.748 57.2874 111.333C57.5749 114.917 65.2526 117.789 74.6918 117.789C84.131 117.789 91.8128 114.917 92.0963 111.333ZM74.6918 116.963C66.8724 116.963 60.5148 114.531 60.5148 111.538C60.5148 108.546 66.8764 106.113 74.6918 106.113C82.5072 106.113 88.8729 108.546 88.8729 111.538C88.8729 114.531 82.5113 116.963 74.6918 116.963Z" fill="#D17918"/>
<path d="M88.8689 111.128C88.8689 114.116 82.5072 116.552 74.6878 116.552C66.8683 116.552 60.5107 114.12 60.5107 111.128C60.5107 108.135 66.8723 105.703 74.6878 105.703C82.5032 105.703 88.8689 108.135 88.8689 111.128ZM92.1084 111.128C92.1084 107.447 84.3092 104.466 74.6878 104.466C65.0663 104.466 57.2671 107.451 57.2671 111.128C57.2671 114.805 65.0663 117.789 74.6878 117.789C84.3092 117.789 92.1084 114.805 92.1084 111.128Z" fill="#FFC022"/>
<path d="M62.3855 111.127C62.3855 108.53 67.9049 106.419 74.6917 106.419C81.4786 106.419 86.9979 108.53 86.9979 111.127C86.9979 113.725 81.4786 115.835 74.6917 115.835C67.9049 115.835 62.3855 113.725 62.3855 111.127ZM86.4553 111.127C86.4553 108.647 81.1789 106.629 74.6917 106.629C68.2045 106.629 62.9281 108.647 62.9281 111.127C62.9281 113.608 68.2045 115.626 74.6917 115.626C81.1789 115.626 86.4553 113.608 86.4553 111.127Z" fill="#FFC022"/>
<path d="M100.159 114.805C100.159 118.486 107.958 121.466 117.579 121.466C127.201 121.466 135 118.482 135 114.805V111.655H100.163V114.805H100.159Z" fill="#FF931E"/>
<path d="M115.923 113.274V121.434C116.47 121.454 117.02 121.466 117.579 121.466V113.274H115.923Z" fill="#D17918"/>
<path d="M112.562 113.274V121.184C113.461 121.289 114.392 121.361 115.348 121.41V113.274H112.562Z" fill="#D17918"/>
<path d="M111.874 121.099V111.671H100.159V114.805C100.159 117.721 105.054 120.197 111.874 121.099Z" fill="#D17918"/>
<path d="M123.783 113.274V121.031C123.973 121.003 124.164 120.975 124.35 120.947V113.278H123.783V113.274Z" fill="#D17918"/>
<path d="M121.617 121.285C121.807 121.269 121.997 121.249 122.184 121.229V113.274H121.617V121.285Z" fill="#D17918"/>
<path d="M118.871 113.274V121.446C119.151 121.438 119.426 121.43 119.701 121.413V113.27H118.871V113.274Z" fill="#D17918"/>
<path d="M117.579 118.321C107.958 118.321 100.159 115.336 100.159 111.659C100.159 107.982 107.958 104.998 117.579 104.998C127.201 104.998 135 107.982 135 111.659C135 115.336 127.201 118.321 117.579 118.321Z" fill="#FF931E"/>
<path style="mix-blend-mode:multiply" opacity="0.4" d="M127.395 117.161C126.901 117.177 126.403 117.189 125.897 117.189C116.275 117.189 108.476 114.204 108.476 110.527C108.476 108.24 111.489 106.222 116.081 105.022C107.164 105.312 100.159 108.171 100.159 111.659C100.159 115.34 107.958 118.32 117.579 118.32C121.22 118.32 124.597 117.894 127.395 117.161Z" fill="url(#paint3_linear_369_240)"/>
<path d="M134.984 111.865C134.696 108.28 127.019 105.409 117.579 105.409C108.14 105.409 100.462 108.28 100.175 111.865C100.462 115.449 108.14 118.32 117.579 118.32C127.019 118.32 134.7 115.449 134.984 111.865ZM117.579 117.495C109.76 117.495 103.402 115.062 103.402 112.07C103.402 109.078 109.764 106.645 117.579 106.645C125.395 106.645 131.761 109.078 131.761 112.07C131.761 115.062 125.399 117.495 117.579 117.495Z" fill="#D17918"/>
<path d="M116 110.733L109.262 112.658V113.995L116.158 111.881C116.838 112.429 117.822 112.844 119.09 113.117C119.191 113.142 119.296 113.158 119.402 113.178V114.37H121.904V113.452C122.451 113.476 122.957 113.48 123.398 113.468V114.37H125.901V110.786H123.398V112.517C122.981 112.533 122.459 112.533 121.904 112.497V110.786H119.402V112.006C118.806 111.776 118.292 111.446 117.956 110.983L116 110.725V110.733Z" fill="#D17918"/>
<path d="M131.756 111.659C131.756 114.648 125.395 117.084 117.575 117.084C109.756 117.084 103.398 114.652 103.398 111.659C103.398 108.667 109.76 106.234 117.575 106.234C125.391 106.234 131.756 108.667 131.756 111.659ZM134.996 111.659C134.996 107.978 127.197 104.998 117.575 104.998C107.954 104.998 100.155 107.982 100.155 111.659C100.155 115.336 107.954 118.321 117.575 118.321C127.197 118.321 134.996 115.336 134.996 111.659Z" fill="#FFC022"/>
<path d="M105.273 111.659C105.273 109.066 110.792 106.951 117.579 106.951C124.366 106.951 129.886 109.062 129.886 111.659C129.886 114.257 124.366 116.367 117.579 116.367C110.792 116.367 105.273 114.257 105.273 111.659ZM129.343 111.659C129.343 109.178 124.066 107.161 117.579 107.161C111.092 107.161 105.816 109.178 105.816 111.659C105.816 114.14 111.092 116.158 117.579 116.158C124.066 116.158 129.343 114.14 129.343 111.659Z" fill="#FFC022"/>
<path d="M116 109.839L109.262 111.764V113.101L116.158 110.987C116.838 111.534 117.822 111.949 119.09 112.223C119.191 112.247 119.296 112.263 119.402 112.283V113.48H121.904V112.561C122.451 112.586 122.957 112.586 123.398 112.577V113.48H125.901V109.895H123.398V111.627C122.981 111.643 122.459 111.643 121.904 111.607V109.895H119.402V111.116C118.806 110.886 118.292 110.556 117.956 110.093L116 109.839Z" fill="#FFC022"/>
<path d="M100.159 108.144C100.159 111.821 107.958 114.805 117.579 114.805C127.201 114.805 135 111.821 135 108.144V104.994H100.163V108.144H100.159Z" fill="#FF931E"/>
<path d="M115.923 106.613V114.772C116.47 114.792 117.02 114.804 117.579 114.804V106.613H115.923Z" fill="#D17918"/>
<path d="M112.562 106.613V114.523C113.461 114.627 114.392 114.704 115.348 114.748V106.613H112.562Z" fill="#D17918"/>
<path d="M111.874 114.438V105.01H100.159V108.144C100.159 111.059 105.054 113.532 111.874 114.438Z" fill="#D17918"/>
<path d="M123.783 106.613V114.37C123.973 114.341 124.164 114.313 124.35 114.285V106.617H123.783V106.613Z" fill="#D17918"/>
<path d="M121.617 114.623C121.807 114.607 121.997 114.587 122.184 114.567V106.613H121.617V114.623Z" fill="#D17918"/>
<path d="M118.871 106.613V114.784C119.151 114.776 119.426 114.768 119.701 114.752V106.613H118.871Z" fill="#D17918"/>
<path d="M117.579 111.66C107.958 111.66 100.159 108.675 100.159 104.998C100.159 101.321 107.958 98.3369 117.579 98.3369C127.201 98.3369 135 101.321 135 104.998C135 108.675 127.201 111.66 117.579 111.66Z" fill="#FF931E"/>
<path style="mix-blend-mode:multiply" opacity="0.4" d="M127.395 110.5C126.901 110.516 126.403 110.524 125.897 110.524C116.275 110.524 108.476 107.539 108.476 103.862C108.476 101.575 111.489 99.5571 116.081 98.3569C107.164 98.6469 100.159 101.506 100.159 104.994C100.159 108.675 107.958 111.655 117.579 111.655C121.22 111.655 124.597 111.228 127.395 110.495V110.5Z" fill="url(#paint4_linear_369_240)"/>
<path d="M134.984 105.203C134.696 101.619 127.019 98.7476 117.579 98.7476C108.14 98.7476 100.462 101.619 100.175 105.203C100.462 108.788 108.14 111.659 117.579 111.659C127.019 111.659 134.7 108.788 134.984 105.203ZM117.579 110.834C109.76 110.834 103.402 108.401 103.402 105.409C103.402 102.417 109.764 99.984 117.579 99.984C125.395 99.984 131.761 102.417 131.761 105.409C131.761 108.401 125.399 110.834 117.579 110.834Z" fill="#D17918"/>
<path d="M116 104.072L109.262 105.997V107.334L116.158 105.22C116.838 105.767 117.822 106.182 119.09 106.456C119.191 106.48 119.296 106.496 119.402 106.517V107.713H121.904V106.794C122.451 106.819 122.957 106.823 123.398 106.811V107.713H125.901V104.128H123.398V105.86C122.981 105.876 122.459 105.876 121.904 105.84V104.128H119.402V105.349C118.806 105.119 118.292 104.789 117.956 104.326L116 104.068V104.072Z" fill="#D17918"/>
<path d="M131.756 104.994C131.756 107.982 125.395 110.419 117.575 110.419C109.756 110.419 103.398 107.986 103.398 104.994C103.398 102.001 109.76 99.5689 117.575 99.5689C125.391 99.5689 131.756 102.001 131.756 104.994ZM134.996 104.994C134.996 101.313 127.197 98.3325 117.575 98.3325C107.954 98.3325 100.155 101.317 100.155 104.994C100.155 108.671 107.954 111.655 117.575 111.655C127.197 111.655 134.996 108.671 134.996 104.994Z" fill="#FFC022"/>
<path d="M105.273 104.994C105.273 102.396 110.792 100.286 117.579 100.286C124.366 100.286 129.886 102.396 129.886 104.994C129.886 107.592 124.366 109.702 117.579 109.702C110.792 109.702 105.273 107.592 105.273 104.994ZM129.343 104.994C129.343 102.513 124.066 100.496 117.579 100.496C111.092 100.496 105.816 102.513 105.816 104.994C105.816 107.475 111.092 109.493 117.579 109.493C124.066 109.493 129.343 107.475 129.343 104.994Z" fill="#FFC022"/>
<path d="M116 103.173L109.262 105.099V106.436L116.158 104.321C116.838 104.869 117.822 105.284 119.09 105.558C119.191 105.578 119.296 105.598 119.402 105.618V106.81H121.904V105.892C122.451 105.916 122.957 105.916 123.398 105.908V106.81H125.901V103.226H123.398V104.958C122.981 104.974 122.459 104.974 121.904 104.937V103.226H119.402V104.446C118.806 104.217 118.292 103.886 117.956 103.423L116 103.169V103.173Z" fill="#FFC022"/>
<path d="M100.159 101.482C100.159 105.159 107.958 108.143 117.579 108.143C127.201 108.143 135 105.159 135 101.482V98.3325H100.163V101.482H100.159Z" fill="#FF931E"/>
<path d="M115.923 99.9517V108.111C116.47 108.131 117.02 108.143 117.579 108.143V99.9517H115.923Z" fill="#D17918"/>
<path d="M112.562 99.9517V107.861C113.461 107.966 114.392 108.043 115.348 108.087V99.9517H112.562Z" fill="#D17918"/>
<path d="M111.874 107.773V98.3447H100.159V101.478C100.159 104.394 105.054 106.867 111.874 107.773Z" fill="#D17918"/>
<path d="M123.783 99.9517V107.708C123.973 107.68 124.164 107.652 124.35 107.624V99.9557H123.783V99.9517Z" fill="#D17918"/>
<path d="M121.617 107.962C121.807 107.946 121.997 107.926 122.184 107.906V99.9517H121.617V107.962Z" fill="#D17918"/>
<path d="M118.871 99.9517V108.123C119.151 108.115 119.426 108.107 119.701 108.091V99.9517H118.871Z" fill="#D17918"/>
<path d="M117.579 104.994C107.958 104.994 100.159 102.01 100.159 98.3327C100.159 94.6557 107.958 91.6714 117.579 91.6714C127.201 91.6714 135 94.6557 135 98.3327C135 102.01 127.201 104.994 117.579 104.994Z" fill="#FF931E"/>
<path style="mix-blend-mode:multiply" opacity="0.4" d="M127.395 103.838C126.901 103.854 126.403 103.862 125.897 103.862C116.275 103.862 108.476 100.878 108.476 97.2008C108.476 94.9132 111.489 92.8955 116.081 91.6953C107.164 91.9853 100.159 94.8447 100.159 98.3324C100.159 102.013 107.958 104.994 117.579 104.994C121.22 104.994 124.597 104.567 127.395 103.834V103.838Z" fill="url(#paint5_linear_369_240)"/>
<path d="M134.984 98.5379C134.696 94.9536 127.019 92.082 117.579 92.082C108.14 92.082 100.462 94.9536 100.175 98.5379C100.462 102.122 108.14 104.994 117.579 104.994C127.019 104.994 134.7 102.122 134.984 98.5379ZM117.579 104.168C109.76 104.168 103.402 101.736 103.402 98.7433C103.402 95.751 109.764 93.3184 117.579 93.3184C125.395 93.3184 131.761 95.751 131.761 98.7433C131.761 101.736 125.399 104.168 117.579 104.168Z" fill="#D17918"/>
<path d="M116 97.4061L109.262 99.3312V100.668L116.158 98.5539C116.838 99.1017 117.822 99.5165 119.09 99.7903C119.191 99.8145 119.296 99.8306 119.402 99.8507V101.043H121.904V100.125C122.451 100.149 122.957 100.153 123.398 100.141V101.043H125.901V97.4585H123.398V99.1862C122.981 99.2023 122.459 99.2023 121.904 99.1661V97.4545H119.402V98.6747C118.806 98.4452 118.292 98.1149 117.956 97.6518L116 97.394V97.4061Z" fill="#D17918"/>
<path d="M131.756 98.3327C131.756 101.321 125.395 103.758 117.575 103.758C109.756 103.758 103.398 101.325 103.398 98.3327C103.398 95.3403 109.76 92.9078 117.575 92.9078C125.391 92.9078 131.756 95.3403 131.756 98.3327ZM134.996 98.3327C134.996 94.6517 127.197 91.6714 117.575 91.6714C107.954 91.6714 100.155 94.6557 100.155 98.3327C100.155 102.01 107.954 104.994 117.575 104.994C127.197 104.994 134.996 102.01 134.996 98.3327Z" fill="#FFC022"/>
<path d="M105.273 98.3325C105.273 95.7349 110.792 93.6245 117.579 93.6245C124.366 93.6245 129.886 95.7349 129.886 98.3325C129.886 100.93 124.366 103.041 117.579 103.041C110.792 103.041 105.273 100.93 105.273 98.3325ZM129.343 98.3325C129.343 95.8517 124.066 93.8339 117.579 93.8339C111.092 93.8339 105.816 95.8517 105.816 98.3325C105.816 100.813 111.092 102.831 117.579 102.831C124.066 102.831 129.343 100.813 129.343 98.3325Z" fill="#FFC022"/>
<path d="M116 96.5123L109.262 98.4374V99.7745L116.158 97.6601C116.838 98.2079 117.822 98.6227 119.09 98.8965C119.191 98.9167 119.296 98.9368 119.402 98.957V100.149H121.904V99.2308C122.451 99.255 122.957 99.255 123.398 99.2469V100.149H125.901V96.5647H123.398V98.2965C122.981 98.3126 122.459 98.3126 121.904 98.2763V96.5647H119.402V97.785C118.806 97.5554 118.292 97.2252 117.956 96.762L116 96.5083V96.5123Z" fill="#FFC022"/>
<path d="M100.159 94.8169C100.159 98.4939 107.958 101.478 117.579 101.478C127.201 101.478 135 98.4939 135 94.8169V91.6675H100.163V94.8169H100.159Z" fill="#FF931E"/>
<path d="M115.923 93.2861V101.446C116.47 101.466 117.02 101.478 117.579 101.478V93.2861H115.923Z" fill="#D17918"/>
<path d="M112.562 93.2861V101.196C113.461 101.301 114.392 101.373 115.348 101.421V93.2861H112.562Z" fill="#D17918"/>
<path d="M111.874 101.112V91.6836H100.159V94.8169C100.159 97.7327 105.054 100.206 111.874 101.112Z" fill="#D17918"/>
<path d="M123.783 93.2861V101.043C123.973 101.015 124.164 100.986 124.35 100.958V93.2902H123.783V93.2861Z" fill="#D17918"/>
<path d="M121.617 101.297C121.807 101.28 121.997 101.26 122.184 101.24V93.2861H121.617V101.297Z" fill="#D17918"/>
<path d="M118.871 93.2863V101.458C119.151 101.45 119.426 101.442 119.701 101.426V93.2822H118.871V93.2863Z" fill="#D17918"/>
<path d="M117.579 98.3328C107.958 98.3328 100.159 95.3486 100.159 91.6715C100.159 87.9945 107.958 85.0103 117.579 85.0103C127.201 85.0103 135 87.9945 135 91.6715C135 95.3486 127.201 98.3328 117.579 98.3328Z" fill="#FF931E"/>
<path style="mix-blend-mode:multiply" opacity="0.4" d="M127.395 97.1727C126.901 97.1888 126.403 97.2009 125.897 97.2009C116.275 97.2009 108.476 94.2166 108.476 90.5396C108.476 88.2521 111.489 86.2343 116.081 85.0342C107.164 85.3242 100.159 88.1836 100.159 91.6713C100.159 95.3523 107.958 98.3326 117.579 98.3326C121.22 98.3326 124.597 97.9057 127.395 97.1727Z" fill="url(#paint6_linear_369_240)"/>
<path d="M134.984 91.8768C134.696 88.2924 127.019 85.4209 117.579 85.4209C108.14 85.4209 100.462 88.2924 100.175 91.8768C100.462 95.4612 108.14 98.3327 117.579 98.3327C127.019 98.3327 134.7 95.4612 134.984 91.8768ZM117.579 97.5071C109.76 97.5071 103.402 95.0745 103.402 92.0822C103.402 89.0898 109.764 86.6573 117.579 86.6573C125.395 86.6573 131.761 89.0898 131.761 92.0822C131.761 95.0745 125.399 97.5071 117.579 97.5071Z" fill="#D17918"/>
<path d="M116 90.7449L109.262 92.67V94.0071L116.158 91.8927C116.838 92.4404 117.822 92.8552 119.09 93.1291C119.191 93.1532 119.296 93.1694 119.402 93.1895V94.3816H121.904V93.4634C122.451 93.4875 122.957 93.4875 123.398 93.4795V94.3816H125.901V90.7972H123.398V92.529C122.981 92.5451 122.459 92.5451 121.904 92.5089V90.7972H119.402V92.0175C118.806 91.788 118.292 91.4577 117.956 90.9946L116 90.7368V90.7449Z" fill="#D17918"/>
<path d="M131.756 91.6715C131.756 94.6599 125.395 97.0964 117.575 97.0964C109.756 97.0964 103.398 94.6639 103.398 91.6715C103.398 88.6792 109.76 86.2467 117.575 86.2467C125.391 86.2467 131.756 88.6792 131.756 91.6715ZM134.996 91.6715C134.996 87.9905 127.197 85.0103 117.575 85.0103C107.954 85.0103 100.155 87.9945 100.155 91.6715C100.155 95.3486 107.954 98.3328 117.575 98.3328C127.197 98.3328 134.996 95.3486 134.996 91.6715Z" fill="#FFC022"/>
<path d="M105.273 91.6714C105.273 89.0737 110.792 86.9634 117.579 86.9634C124.366 86.9634 129.886 89.0737 129.886 91.6714C129.886 94.2691 124.366 96.3794 117.579 96.3794C110.792 96.3794 105.273 94.2691 105.273 91.6714ZM129.343 91.6714C129.343 89.1905 124.066 87.1728 117.579 87.1728C111.092 87.1728 105.816 89.1905 105.816 91.6714C105.816 94.1523 111.092 96.17 117.579 96.17C124.066 96.17 129.343 94.1523 129.343 91.6714Z" fill="#FFC022"/>
<path d="M116 89.8511L109.262 91.7762V93.1133L116.158 90.9989C116.838 91.5466 117.822 91.9614 119.09 92.2353C119.191 92.2595 119.296 92.2756 119.402 92.2957V93.4918H121.904V92.5736C122.451 92.5977 122.957 92.5977 123.398 92.5897V93.4918H125.901V89.9075H123.398V91.6392C122.981 91.6553 122.459 91.6553 121.904 91.6191V89.9075H119.402V91.1278C118.806 90.8982 118.292 90.5679 117.956 90.1048L116 89.8511Z" fill="#FFC022"/>
<path d="M100.159 88.1553C100.159 91.8323 107.958 94.8166 117.579 94.8166C127.201 94.8166 135 91.8323 135 88.1553V85.0059H100.163V88.1553H100.159Z" fill="#FF931E"/>
<path d="M115.923 86.625V94.7845C116.47 94.8046 117.02 94.8167 117.579 94.8167V86.625H115.923Z" fill="#D17918"/>
<path d="M112.562 86.625V94.5348C113.461 94.6395 114.392 94.712 115.348 94.7603V86.625H112.562Z" fill="#D17918"/>
<path d="M111.874 94.4501V85.022H100.159V88.1553C100.159 91.0711 105.054 93.548 111.874 94.4501Z" fill="#D17918"/>
<path d="M123.783 86.625V94.3817C123.973 94.3536 124.164 94.3254 124.35 94.2972V86.625H123.783Z" fill="#D17918"/>
<path d="M121.617 94.6355C121.807 94.6194 121.997 94.5992 122.184 94.5791V86.625H121.617V94.6355Z" fill="#D17918"/>
<path d="M118.871 86.6251V94.7967C119.151 94.7886 119.426 94.7806 119.701 94.7645V86.6211H118.871V86.6251Z" fill="#D17918"/>
<path d="M117.579 91.6712C107.958 91.6712 100.159 88.6869 100.159 85.0099C100.159 81.3329 107.958 78.3486 117.579 78.3486C127.201 78.3486 135 81.3329 135 85.0099C135 88.6869 127.201 91.6712 117.579 91.6712Z" fill="#FF931E"/>
<path style="mix-blend-mode:multiply" opacity="0.4" d="M127.395 90.5116C126.901 90.5277 126.403 90.5398 125.897 90.5398C116.275 90.5398 108.476 87.5555 108.476 83.8785C108.476 81.5909 111.489 79.5732 116.081 78.373C107.164 78.663 100.159 81.5225 100.159 85.0102C100.159 88.6912 107.958 91.6715 117.579 91.6715C121.22 91.6715 124.597 91.2446 127.395 90.5116Z" fill="url(#paint7_linear_369_240)"/>
<path d="M134.984 85.2157C134.696 81.6313 127.019 78.7598 117.579 78.7598C108.14 78.7598 100.462 81.6313 100.175 85.2157C100.462 88.8 108.14 91.6716 117.579 91.6716C127.019 91.6716 134.7 88.8 134.984 85.2157ZM117.579 90.846C109.76 90.846 103.402 88.4134 103.402 85.4211C103.402 82.4287 109.764 79.9962 117.579 79.9962C125.395 79.9962 131.761 82.4287 131.761 85.4211C131.761 88.4134 125.399 90.846 117.579 90.846Z" fill="#D17918"/>
<path d="M131.756 85.006C131.756 87.9943 125.395 90.4309 117.575 90.4309C109.756 90.4309 103.398 87.9984 103.398 85.006C103.398 82.0137 109.76 79.5811 117.575 79.5811C125.391 79.5811 131.756 82.0137 131.756 85.006ZM134.996 85.006C134.996 81.325 127.197 78.3447 117.575 78.3447C107.954 78.3447 100.155 81.329 100.155 85.006C100.155 88.683 107.954 91.6673 117.575 91.6673C127.197 91.6673 134.996 88.683 134.996 85.006Z" fill="#FFC022"/>
<path d="M105.273 85.0059C105.273 82.4122 110.792 80.2979 117.579 80.2979C124.366 80.2979 129.886 82.4082 129.886 85.0059C129.886 87.6035 124.366 89.7139 117.579 89.7139C110.792 89.7139 105.273 87.6035 105.273 85.0059ZM129.343 85.0059C129.343 82.525 124.066 80.5073 117.579 80.5073C111.092 80.5073 105.816 82.525 105.816 85.0059C105.816 87.4867 111.092 89.5045 117.579 89.5045C124.066 89.5045 129.343 87.4867 129.343 85.0059Z" fill="#FFC022"/>
<path d="M84.4146 134.941C84.4146 138.622 92.2138 141.603 101.835 141.603C111.457 141.603 119.256 138.618 119.256 134.941V131.792H84.4186V134.941H84.4146Z" fill="#FF931E"/>
<path d="M100.179 133.411V141.571C100.726 141.591 101.276 141.603 101.835 141.603V133.411H100.179Z" fill="#D17918"/>
<path d="M96.8179 133.411V141.321C97.7168 141.426 98.6482 141.498 99.6039 141.546V133.411H96.8179Z" fill="#D17918"/>
<path d="M96.1296 141.236V131.808H84.4146V134.941C84.4146 137.857 89.3103 140.334 96.1296 141.236Z" fill="#D17918"/>
<path d="M108.039 133.411V141.168C108.229 141.14 108.419 141.111 108.606 141.083V133.411H108.039Z" fill="#D17918"/>
<path d="M105.872 141.422C106.063 141.405 106.253 141.385 106.439 141.365V133.411H105.872V141.422Z" fill="#D17918"/>
<path d="M103.127 133.411V141.583C103.406 141.575 103.682 141.567 103.957 141.551V133.407H103.127V133.411Z" fill="#D17918"/>
<path d="M101.835 138.453C92.2138 138.453 84.4146 135.469 84.4146 131.792C84.4146 128.115 92.2138 125.131 101.835 125.131C111.457 125.131 119.256 128.115 119.256 131.792C119.256 135.469 111.457 138.453 101.835 138.453Z" fill="#FF931E"/>
<path style="mix-blend-mode:multiply" opacity="0.4" d="M111.651 137.298C111.157 137.314 110.659 137.326 110.153 137.326C100.531 137.326 92.7321 134.342 92.7321 130.665C92.7321 128.377 95.7449 126.359 100.337 125.159C91.4201 125.449 84.4146 128.309 84.4146 131.796C84.4146 135.477 92.2138 138.458 101.835 138.458C105.476 138.458 108.857 138.031 111.651 137.298Z" fill="url(#paint8_linear_369_240)"/>
<path d="M119.24 132.002C118.952 128.417 111.274 125.546 101.835 125.546C92.3959 125.546 84.7182 128.417 84.4307 132.002C84.7182 135.586 92.3959 138.458 101.835 138.458C111.274 138.458 118.956 135.586 119.24 132.002ZM101.835 137.632C94.0157 137.632 87.6581 135.2 87.6581 132.207C87.6581 129.215 94.0197 126.782 101.835 126.782C109.651 126.782 116.016 129.215 116.016 132.207C116.016 135.2 109.655 137.632 101.835 137.632Z" fill="#D17918"/>
<path d="M100.256 130.866L93.5176 132.791V134.128L100.414 132.014C101.094 132.561 102.078 132.976 103.346 133.25C103.447 133.274 103.552 133.29 103.657 133.311V134.503H106.16V133.584C106.707 133.609 107.213 133.613 107.654 133.601V134.503H110.157V130.918H107.654V132.65C107.237 132.666 106.715 132.666 106.16 132.63V130.918H103.657V132.139C103.062 131.909 102.548 131.579 102.212 131.116L100.256 130.858V130.866Z" fill="#D17918"/>
<path d="M116.016 131.792C116.016 134.78 109.655 137.217 101.835 137.217C94.0158 137.217 87.6581 134.784 87.6581 131.792C87.6581 128.8 94.0198 126.367 101.835 126.367C109.651 126.367 116.016 128.8 116.016 131.792ZM119.256 131.792C119.256 128.111 111.457 125.131 101.835 125.131C92.2138 125.131 84.4146 128.115 84.4146 131.792C84.4146 135.469 92.2138 138.453 101.835 138.453C111.457 138.453 119.256 135.469 119.256 131.792Z" fill="#FFC022"/>
<path d="M89.5289 131.792C89.5289 129.198 95.0483 127.084 101.835 127.084C108.622 127.084 114.141 129.194 114.141 131.792C114.141 134.39 108.622 136.5 101.835 136.5C95.0483 136.5 89.5289 134.39 89.5289 131.792ZM113.599 131.792C113.599 129.311 108.322 127.293 101.835 127.293C95.348 127.293 90.0716 129.311 90.0716 131.792C90.0716 134.273 95.348 136.291 101.835 136.291C108.322 136.291 113.599 134.273 113.599 131.792Z" fill="#FFC022"/>
<path d="M100.256 129.972L93.5176 131.897V133.234L100.414 131.119C101.094 131.667 102.078 132.082 103.346 132.356C103.447 132.38 103.552 132.396 103.657 132.416V133.612H106.16V132.694C106.707 132.718 107.213 132.718 107.654 132.71V133.612H110.157V130.028H107.654V131.76C107.237 131.776 106.715 131.776 106.16 131.74V130.028H103.657V131.248C103.062 131.019 102.548 130.689 102.212 130.225L100.256 129.972Z" fill="#FFC022"/>
<path d="M84.4146 128.276C84.4146 131.953 92.2138 134.938 101.835 134.938C111.457 134.938 119.256 131.953 119.256 128.276V125.127H84.4186V128.276H84.4146Z" fill="#FF931E"/>
<path d="M100.179 126.746V134.906C100.726 134.926 101.276 134.938 101.835 134.938V126.746H100.179Z" fill="#D17918"/>
<path d="M96.8179 126.746V134.656C97.7168 134.761 98.6482 134.837 99.6039 134.881V126.746H96.8179Z" fill="#D17918"/>
<path d="M96.1296 134.571V125.143H84.4146V128.276C84.4146 131.192 89.3103 133.665 96.1296 134.571Z" fill="#D17918"/>
<path d="M108.039 126.746V134.503C108.229 134.475 108.419 134.446 108.606 134.418V126.75H108.039V126.746Z" fill="#D17918"/>
<path d="M105.872 134.757C106.063 134.74 106.253 134.72 106.439 134.7V126.746H105.872V134.757Z" fill="#D17918"/>
<path d="M103.127 126.746V134.918C103.406 134.91 103.682 134.902 103.957 134.885V126.746H103.127Z" fill="#D17918"/>
<path d="M101.835 131.792C92.2138 131.792 84.4146 128.808 84.4146 125.131C84.4146 121.454 92.2138 118.47 101.835 118.47C111.457 118.47 119.256 121.454 119.256 125.131C119.256 128.808 111.457 131.792 101.835 131.792Z" fill="#FF931E"/>
<path style="mix-blend-mode:multiply" opacity="0.4" d="M111.651 130.632C111.157 130.648 110.659 130.656 110.153 130.656C100.531 130.656 92.7321 127.672 92.7321 123.995C92.7321 121.708 95.7449 119.69 100.337 118.49C91.4201 118.78 84.4146 121.639 84.4146 125.127C84.4146 128.808 92.2138 131.788 101.835 131.788C105.476 131.788 108.857 131.361 111.651 130.628V130.632Z" fill="url(#paint9_linear_369_240)"/>
<path d="M119.24 125.336C118.952 121.752 111.274 118.88 101.835 118.88C92.3959 118.88 84.7182 121.752 84.4307 125.336C84.7182 128.921 92.3959 131.792 101.835 131.792C111.274 131.792 118.956 128.921 119.24 125.336ZM101.835 130.967C94.0157 130.967 87.6581 128.534 87.6581 125.542C87.6581 122.549 94.0197 120.117 101.835 120.117C109.651 120.117 116.016 122.549 116.016 125.542C116.016 128.534 109.655 130.967 101.835 130.967Z" fill="#D17918"/>
<path d="M100.256 124.205L93.5176 126.13V127.467L100.414 125.353C101.094 125.9 102.078 126.315 103.346 126.589C103.447 126.613 103.552 126.629 103.657 126.649V127.845H106.16V126.927C106.707 126.951 107.213 126.955 107.654 126.943V127.845H110.157V124.261H107.654V125.993C107.237 126.009 106.715 126.009 106.16 125.973V124.261H103.657V125.481C103.062 125.252 102.548 124.922 102.212 124.458L100.256 124.201V124.205Z" fill="#D17918"/>
<path d="M116.016 125.131C116.016 128.119 109.655 130.556 101.835 130.556C94.0158 130.556 87.6581 128.123 87.6581 125.131C87.6581 122.139 94.0198 119.706 101.835 119.706C109.651 119.706 116.016 122.139 116.016 125.131ZM119.256 125.131C119.256 121.45 111.457 118.47 101.835 118.47C92.2138 118.47 84.4146 121.454 84.4146 125.131C84.4146 128.808 92.2138 131.792 101.835 131.792C111.457 131.792 119.256 128.808 119.256 125.131Z" fill="#FFC022"/>
<path d="M89.5289 125.131C89.5289 122.533 95.0483 120.423 101.835 120.423C108.622 120.423 114.141 122.533 114.141 125.131C114.141 127.729 108.622 129.839 101.835 129.839C95.0483 129.839 89.5289 127.729 89.5289 125.131ZM113.599 125.131C113.599 122.65 108.322 120.632 101.835 120.632C95.348 120.632 90.0716 122.65 90.0716 125.131C90.0716 127.612 95.348 129.629 101.835 129.629C108.322 129.629 113.599 127.612 113.599 125.131Z" fill="#FFC022"/>
<path d="M100.256 123.311L93.5176 125.236V126.573L100.414 124.458C101.094 125.006 102.078 125.421 103.346 125.695C103.447 125.715 103.552 125.735 103.657 125.755V126.947H106.16V126.029C106.707 126.053 107.213 126.053 107.654 126.045V126.947H110.157V123.363H107.654V125.095C107.237 125.111 106.715 125.111 106.16 125.075V123.363H103.657V124.583C103.062 124.354 102.548 124.024 102.212 123.56L100.256 123.307V123.311Z" fill="#FFC022"/>
<path d="M84.4146 121.615C84.4146 125.292 92.2138 128.276 101.835 128.276C111.457 128.276 119.256 125.292 119.256 121.615V118.465H84.4186V121.615H84.4146Z" fill="#FF931E"/>
<path d="M100.179 120.084V128.244C100.726 128.264 101.276 128.276 101.835 128.276V120.084H100.179Z" fill="#D17918"/>
<path d="M96.8179 120.084V127.994C97.7168 128.099 98.6482 128.175 99.6039 128.22V120.084H96.8179Z" fill="#D17918"/>
<path d="M96.1296 127.91V118.481H84.4146V121.615C84.4146 124.531 89.3103 127.003 96.1296 127.91Z" fill="#D17918"/>
<path d="M108.039 120.084V127.841C108.229 127.813 108.419 127.785 108.606 127.757V120.088H108.039V120.084Z" fill="#D17918"/>
<path d="M105.872 128.095C106.063 128.079 106.253 128.059 106.439 128.039V120.084H105.872V128.095Z" fill="#D17918"/>
<path d="M103.127 120.084V128.256C103.406 128.248 103.682 128.24 103.957 128.224V120.084H103.127Z" fill="#D17918"/>
<path d="M101.835 125.131C92.2138 125.131 84.4146 122.146 84.4146 118.469C84.4146 114.792 92.2138 111.808 101.835 111.808C111.457 111.808 119.256 114.792 119.256 118.469C119.256 122.146 111.457 125.131 101.835 125.131Z" fill="#FF931E"/>
<path style="mix-blend-mode:multiply" opacity="0.4" d="M111.651 123.971C111.157 123.987 110.659 123.995 110.153 123.995C100.531 123.995 92.7321 121.011 92.7321 117.334C92.7321 115.046 95.7449 113.029 100.337 111.829C91.4201 112.119 84.4146 114.978 84.4146 118.466C84.4146 122.147 92.2138 125.127 101.835 125.127C105.476 125.127 108.857 124.7 111.651 123.967V123.971Z" fill="url(#paint10_linear_369_240)"/>
<path d="M119.24 118.675C118.952 115.091 111.274 112.219 101.835 112.219C92.3959 112.219 84.7182 115.091 84.4307 118.675C84.7182 122.26 92.3959 125.131 101.835 125.131C111.274 125.131 118.956 122.26 119.24 118.675ZM101.835 124.305C94.0157 124.305 87.6581 121.873 87.6581 118.881C87.6581 115.888 94.0197 113.456 101.835 113.456C109.651 113.456 116.016 115.888 116.016 118.881C116.016 121.873 109.655 124.305 101.835 124.305Z" fill="#D17918"/>
<path d="M100.256 117.543L93.5176 119.468V120.805L100.414 118.691C101.094 119.239 102.078 119.654 103.346 119.927C103.447 119.952 103.552 119.968 103.657 119.988V121.18H106.16V120.262C106.707 120.286 107.213 120.29 107.654 120.278V121.18H110.157V117.596H107.654V119.327C107.237 119.343 106.715 119.343 106.16 119.307V117.596H103.657V118.816C103.062 118.586 102.548 118.256 102.212 117.793L100.256 117.535V117.543Z" fill="#D17918"/>
<path d="M116.016 118.466C116.016 121.454 109.655 123.89 101.835 123.89C94.0158 123.89 87.6581 121.458 87.6581 118.466C87.6581 115.473 94.0198 113.041 101.835 113.041C109.651 113.041 116.016 115.473 116.016 118.466ZM119.256 118.466C119.256 114.784 111.457 111.804 101.835 111.804C92.2138 111.804 84.4146 114.788 84.4146 118.466C84.4146 122.143 92.2138 125.127 101.835 125.127C111.457 125.127 119.256 122.143 119.256 118.466Z" fill="#FFC022"/>
<path d="M89.5289 118.465C89.5289 115.868 95.0483 113.757 101.835 113.757C108.622 113.757 114.141 115.868 114.141 118.465C114.141 121.063 108.622 123.173 101.835 123.173C95.0483 123.173 89.5289 121.063 89.5289 118.465ZM113.599 118.465C113.599 115.984 108.322 113.967 101.835 113.967C95.348 113.967 90.0716 115.984 90.0716 118.465C90.0716 120.946 95.348 122.964 101.835 122.964C108.322 122.964 113.599 120.946 113.599 118.465Z" fill="#FFC022"/>
<path d="M100.256 116.645L93.5176 118.57V119.907L100.414 117.793C101.094 118.341 102.078 118.755 103.346 119.029C103.447 119.049 103.552 119.07 103.657 119.09V120.282H106.16V119.364C106.707 119.388 107.213 119.388 107.654 119.38V120.282H110.157V116.698H107.654V118.429C107.237 118.445 106.715 118.445 106.16 118.409V116.698H103.657V117.918C103.062 117.688 102.548 117.358 102.212 116.895L100.256 116.641V116.645Z" fill="#FFC022"/>
<path d="M84.4146 114.954C84.4146 118.631 92.2138 121.615 101.835 121.615C111.457 121.615 119.256 118.631 119.256 114.954V111.804H84.4186V114.954H84.4146Z" fill="#FF931E"/>
<path d="M100.179 113.423V121.583C100.726 121.603 101.276 121.615 101.835 121.615V113.423H100.179Z" fill="#D17918"/>
<path d="M96.8179 113.423V121.333C97.7168 121.438 98.6482 121.51 99.6039 121.559V113.423H96.8179Z" fill="#D17918"/>
<path d="M96.1296 121.248V111.82H84.4146V114.954C84.4146 117.869 89.3103 120.342 96.1296 121.248Z" fill="#D17918"/>
<path d="M108.039 113.423V121.18C108.229 121.152 108.419 121.124 108.606 121.096V113.423H108.039Z" fill="#D17918"/>
<path d="M105.872 121.434C106.063 121.418 106.253 121.398 106.439 121.377V113.423H105.872V121.434Z" fill="#D17918"/>
<path d="M103.127 113.423V121.595C103.406 121.587 103.682 121.579 103.957 121.563V113.419H103.127V113.423Z" fill="#D17918"/>
<path d="M101.835 118.466C92.2138 118.466 84.4146 115.481 84.4146 111.804C84.4146 108.127 92.2138 105.143 101.835 105.143C111.457 105.143 119.256 108.127 119.256 111.804C119.256 115.481 111.457 118.466 101.835 118.466Z" fill="#FF931E"/>
<path style="mix-blend-mode:multiply" opacity="0.4" d="M111.651 117.31C111.157 117.326 110.659 117.338 110.153 117.338C100.531 117.338 92.7321 114.354 92.7321 110.677C92.7321 108.389 95.7449 106.372 100.337 105.171C91.4201 105.461 84.4146 108.321 84.4146 111.809C84.4146 115.49 92.2138 118.47 101.835 118.47C105.476 118.47 108.857 118.043 111.651 117.31Z" fill="url(#paint11_linear_369_240)"/>
<path d="M119.24 112.014C118.952 108.429 111.274 105.558 101.835 105.558C92.3959 105.558 84.7182 108.429 84.4307 112.014C84.7182 115.598 92.3959 118.469 101.835 118.469C111.274 118.469 118.956 115.598 119.24 112.014ZM101.835 117.644C94.0157 117.644 87.6581 115.211 87.6581 112.219C87.6581 109.227 94.0197 106.794 101.835 106.794C109.651 106.794 116.016 109.227 116.016 112.219C116.016 115.211 109.655 117.644 101.835 117.644Z" fill="#D17918"/>
<path d="M100.256 110.878L93.5176 112.803V114.14L100.414 112.026C101.094 112.574 102.078 112.989 103.346 113.262C103.447 113.287 103.552 113.303 103.657 113.323V114.515H106.16V113.597C106.707 113.621 107.213 113.621 107.654 113.613V114.515H110.157V110.931H107.654V112.662C107.237 112.678 106.715 112.678 106.16 112.642V110.931H103.657V112.151C103.062 111.921 102.548 111.591 102.212 111.128L100.256 110.87V110.878Z" fill="#D17918"/>
<path d="M116.016 111.804C116.016 114.793 109.655 117.229 101.835 117.229C94.0158 117.229 87.6581 114.797 87.6581 111.804C87.6581 108.812 94.0198 106.379 101.835 106.379C109.651 106.379 116.016 108.812 116.016 111.804ZM119.256 111.804C119.256 108.123 111.457 105.143 101.835 105.143C92.2138 105.143 84.4146 108.127 84.4146 111.804C84.4146 115.481 92.2138 118.466 101.835 118.466C111.457 118.466 119.256 115.481 119.256 111.804Z" fill="#FFC022"/>
<path d="M89.5289 111.804C89.5289 109.207 95.0483 107.096 101.835 107.096C108.622 107.096 114.141 109.207 114.141 111.804C114.141 114.402 108.622 116.512 101.835 116.512C95.0483 116.512 89.5289 114.402 89.5289 111.804ZM113.599 111.804C113.599 109.323 108.322 107.306 101.835 107.306C95.348 107.306 90.0716 109.323 90.0716 111.804C90.0716 114.285 95.348 116.303 101.835 116.303C108.322 116.303 113.599 114.285 113.599 111.804Z" fill="#FFC022"/>
<path d="M100.256 109.984L93.5176 111.909V113.246L100.414 111.132C101.094 111.679 102.078 112.094 103.346 112.368C103.447 112.392 103.552 112.408 103.657 112.429V113.625H106.16V112.706C106.707 112.731 107.213 112.731 107.654 112.723V113.625H110.157V110.04H107.654V111.772C107.237 111.788 106.715 111.788 106.16 111.752V110.04H103.657V111.261C103.062 111.031 102.548 110.701 102.212 110.238L100.256 109.984Z" fill="#FFC022"/>
<path d="M84.4146 108.289C84.4146 111.966 92.2138 114.95 101.835 114.95C111.457 114.95 119.256 111.966 119.256 108.289V105.139H84.4186V108.289H84.4146Z" fill="#FF931E"/>
<path d="M100.179 106.758V114.917C100.726 114.937 101.276 114.95 101.835 114.95V106.758H100.179Z" fill="#D17918"/>
<path d="M96.8179 106.758V114.668C97.7168 114.772 98.6482 114.845 99.6039 114.893V106.758H96.8179Z" fill="#D17918"/>
<path d="M96.1296 114.583V105.155H84.4146V108.289C84.4146 111.204 89.3103 113.681 96.1296 114.583Z" fill="#D17918"/>
<path d="M108.039 106.758V114.515C108.229 114.486 108.419 114.458 108.606 114.43V106.762H108.039V106.758Z" fill="#D17918"/>
<path d="M105.872 114.768C106.063 114.752 106.253 114.732 106.439 114.712V106.758H105.872V114.768Z" fill="#D17918"/>
<path d="M103.127 106.758V114.929C103.406 114.921 103.682 114.913 103.957 114.897V106.754H103.127V106.758Z" fill="#D17918"/>
<path d="M101.835 111.804C92.2138 111.804 84.4146 108.82 84.4146 105.143C84.4146 101.466 92.2138 98.4814 101.835 98.4814C111.457 98.4814 119.256 101.466 119.256 105.143C119.256 108.82 111.457 111.804 101.835 111.804Z" fill="#FF931E"/>
<path style="mix-blend-mode:multiply" opacity="0.4" d="M111.651 110.644C111.157 110.661 110.659 110.673 110.153 110.673C100.531 110.673 92.7321 107.688 92.7321 104.011C92.7321 101.724 95.7449 99.706 100.337 98.5059C91.4201 98.7958 84.4146 101.655 84.4146 105.143C84.4146 108.824 92.2138 111.804 101.835 111.804C105.476 111.804 108.857 111.377 111.651 110.644Z" fill="url(#paint12_linear_369_240)"/>
<path d="M119.24 105.348C118.952 101.764 111.274 98.8926 101.835 98.8926C92.3959 98.8926 84.7182 101.764 84.4307 105.348C84.7182 108.933 92.3959 111.804 101.835 111.804C111.274 111.804 118.956 108.933 119.24 105.348ZM101.835 110.979C94.0157 110.979 87.6581 108.546 87.6581 105.554C87.6581 102.562 94.0197 100.129 101.835 100.129C109.651 100.129 116.016 102.562 116.016 105.554C116.016 108.546 109.655 110.979 101.835 110.979Z" fill="#D17918"/>
<path d="M116.016 105.143C116.016 108.131 109.655 110.568 101.835 110.568C94.0158 110.568 87.6581 108.135 87.6581 105.143C87.6581 102.15 94.0198 99.7179 101.835 99.7179C109.651 99.7179 116.016 102.15 116.016 105.143ZM119.256 105.143C119.256 101.462 111.457 98.4814 101.835 98.4814C92.2138 98.4814 84.4146 101.466 84.4146 105.143C84.4146 108.82 92.2138 111.804 101.835 111.804C111.457 111.804 119.256 108.82 119.256 105.143Z" fill="#FFC022"/>
<path d="M89.5289 105.143C89.5289 102.549 95.0483 100.435 101.835 100.435C108.622 100.435 114.141 102.545 114.141 105.143C114.141 107.741 108.622 109.851 101.835 109.851C95.0483 109.851 89.5289 107.741 89.5289 105.143ZM113.599 105.143C113.599 102.662 108.322 100.644 101.835 100.644C95.348 100.644 90.0716 102.662 90.0716 105.143C90.0716 107.624 95.348 109.642 101.835 109.642C108.322 109.642 113.599 107.624 113.599 105.143Z" fill="#FFC022"/>
<g style="mix-blend-mode:multiply" opacity="0.6">
<path d="M65.6696 106.705C63.0578 106.065 59.8223 109.496 57.3683 114.986C57.3683 114.994 57.3724 115.002 57.3764 115.01C57.3967 115.082 57.4209 115.155 57.4493 115.227C57.4614 115.26 57.4695 115.288 57.4817 115.32C57.5222 115.421 57.5667 115.517 57.6194 115.614C57.6275 115.63 57.6396 115.646 57.6477 115.662C57.6923 115.743 57.7409 115.823 57.7935 115.904C57.8178 115.94 57.8421 115.972 57.8664 116.009C57.8704 116.017 57.8785 116.025 57.8826 116.033C57.8502 116.077 57.8178 116.121 57.7895 116.166C57.753 116.222 57.7206 116.279 57.6882 116.335C57.6599 116.383 57.6315 116.432 57.6072 116.48C57.5748 116.54 57.5505 116.601 57.5222 116.661C57.5019 116.709 57.4776 116.754 57.4614 116.802C57.4371 116.867 57.4169 116.931 57.3967 116.995C57.3845 117.04 57.3683 117.084 57.3562 117.128C57.3359 117.201 57.3238 117.273 57.3116 117.346C57.3035 117.382 57.2954 117.418 57.2914 117.459C57.2752 117.567 57.2711 117.68 57.2711 117.793V120.942C57.2711 121.047 57.2792 121.152 57.2914 121.256C57.2914 121.289 57.3035 121.321 57.3076 121.353C57.3197 121.426 57.3319 121.498 57.3521 121.571C57.3602 121.607 57.3683 121.643 57.3805 121.675C57.4007 121.748 57.425 121.82 57.4533 121.893C57.4655 121.925 57.4736 121.953 57.4857 121.985C57.5262 122.086 57.5708 122.183 57.6234 122.279C57.6315 122.295 57.6437 122.312 57.6518 122.332C57.6963 122.412 57.7449 122.493 57.7975 122.573C57.8218 122.61 57.8461 122.642 57.8704 122.678C57.8745 122.686 57.8826 122.694 57.8866 122.702C57.8542 122.747 57.8218 122.791 57.7935 122.835C57.7571 122.892 57.7206 122.952 57.6882 123.008C57.6599 123.057 57.6315 123.101 57.6072 123.149C57.5748 123.21 57.5505 123.27 57.5222 123.33C57.5019 123.375 57.4776 123.423 57.4614 123.467C57.4371 123.532 57.4169 123.596 57.3967 123.665C57.3845 123.709 57.3683 123.749 57.3562 123.794C57.3359 123.866 57.3238 123.939 57.3116 124.015C57.3035 124.051 57.2954 124.088 57.2914 124.124C57.2752 124.233 57.2711 124.345 57.2711 124.458V127.608C57.2711 127.712 57.2792 127.817 57.2914 127.922C57.2914 127.954 57.3035 127.986 57.3076 128.018C57.3197 128.091 57.3319 128.163 57.3521 128.236C57.3602 128.272 57.3683 128.308 57.3805 128.341C57.4007 128.413 57.425 128.486 57.4533 128.558C57.4655 128.59 57.4736 128.618 57.4857 128.651C57.5262 128.751 57.5708 128.848 57.6234 128.949C57.6315 128.965 57.6437 128.981 57.6518 128.997C57.6963 129.078 57.7449 129.158 57.7975 129.239C57.8218 129.275 57.8461 129.307 57.8704 129.343C57.915 129.408 57.9595 129.468 58.0081 129.533C58.0365 129.569 58.0648 129.605 58.0972 129.641C58.1498 129.706 58.2065 129.766 58.2632 129.831C58.2916 129.863 58.3199 129.895 58.3523 129.927C58.4374 130.016 58.5305 130.105 58.6236 130.189C58.656 130.221 58.6965 130.25 58.733 130.282C58.7978 130.338 58.8666 130.399 58.9395 130.455C58.9881 130.495 59.0407 130.531 59.0893 130.572C59.1501 130.62 59.2148 130.668 59.2796 130.717C59.3363 130.757 59.393 130.797 59.4497 130.838C59.5145 130.882 59.5833 130.93 59.6522 130.974C59.7129 131.015 59.7696 131.055 59.8344 131.091C59.9518 131.164 60.0733 131.24 60.2029 131.309C60.2798 131.353 60.3608 131.397 60.4418 131.438C60.5026 131.47 60.5674 131.506 60.6321 131.538C60.7172 131.583 60.8063 131.627 60.8954 131.671C60.9561 131.699 61.0168 131.732 61.0776 131.76C61.1748 131.804 61.272 131.852 61.3691 131.897C61.4177 131.917 61.4663 131.937 61.5109 131.961C61.8794 132.126 62.2681 132.283 62.6771 132.432C62.7176 132.448 62.7581 132.465 62.8026 132.477C62.9363 132.525 63.0699 132.569 63.2035 132.618C63.244 132.63 63.2805 132.642 63.321 132.658C63.896 132.847 64.5075 133.02 65.1473 133.181C66.2811 130.874 67.2813 128.131 68.0264 125.131C70.3224 115.84 69.2736 107.595 65.6777 106.718L65.6696 106.705Z" fill="#CCCCCC"/>
</g>
<path d="M51.7235 136.976C55.1614 138.333 60.8226 132.219 64.3699 123.323C67.9131 114.426 67.9981 106.118 64.5602 104.76L61.6162 103.601L48.7795 135.812L51.7235 136.972V136.976Z" fill="#FF931E"/>
<path d="M56.1008 121.837L63.73 124.845C63.9486 124.35 64.1633 123.842 64.3698 123.323L56.7123 120.306L56.1008 121.837Z" fill="#D17918"/>
<path d="M54.8657 124.942L62.26 127.857C62.6892 127.064 63.1023 126.23 63.4991 125.365L55.8943 122.368L54.8698 124.942H54.8657Z" fill="#D17918"/>
<path d="M61.9238 128.461L53.1082 124.986L48.7915 135.815L51.7233 136.971C54.4486 138.047 58.5668 134.43 61.9238 128.461Z" fill="#D17918"/>
<path d="M58.9962 114.567L66.2447 117.423C66.2893 117.237 66.3338 117.052 66.3743 116.867L59.2028 114.04L58.9922 114.563L58.9962 114.567Z" fill="#D17918"/>
<path d="M65.6859 119.521C65.7385 119.339 65.7912 119.158 65.8438 118.977L58.4091 116.045L58.1985 116.568L65.6859 119.521Z" fill="#D17918"/>
<path d="M57.186 119.11L64.8233 122.119C64.9205 121.857 65.0095 121.599 65.0986 121.341L57.4897 118.341L57.186 119.106V119.11Z" fill="#D17918"/>
<path d="M61.4258 122.163C57.8826 131.059 52.2214 137.169 48.7794 135.816C45.3415 134.458 45.4265 126.15 48.9698 117.258C52.513 108.361 58.1741 102.251 61.6161 103.605C65.0541 104.962 64.9691 113.27 61.4258 122.167V122.163Z" fill="#FF931E"/>
<path style="mix-blend-mode:multiply" opacity="0.4" d="M63.9609 112.662C63.7949 113.125 63.6207 113.588 63.4345 114.056C59.8912 122.952 54.2301 129.062 50.7881 127.708C48.65 126.867 47.8765 123.335 48.4435 118.651C45.4307 127.004 45.5238 134.531 48.7796 135.816C52.2175 137.173 57.8827 131.059 61.4259 122.163C62.7663 118.796 63.6126 115.513 63.9609 112.662Z" fill="url(#paint13_linear_369_240)"/>
<path d="M61.8065 103.693C58.3524 102.638 52.837 108.679 49.3586 117.407C45.8801 126.134 45.7384 134.293 48.982 135.88C52.4361 136.935 57.9515 130.894 61.4299 122.167C64.9084 113.44 65.0501 105.28 61.8065 103.693ZM60.6565 121.861C57.7773 129.09 53.1569 134.076 50.3628 132.972C47.5687 131.869 47.6376 125.095 50.5167 117.866C53.3959 110.636 58.0163 105.651 60.8104 106.754C63.6045 107.858 63.5356 114.632 60.6565 121.861Z" fill="#D17918"/>
<path d="M60.4216 106.597C63.2157 107.701 63.1468 114.475 60.2677 121.704C57.3885 128.933 52.7681 133.919 49.974 132.815C47.1799 131.712 47.2487 124.938 50.1279 117.709C53.007 110.479 57.6274 105.494 60.4216 106.597ZM61.6161 103.601C58.1782 102.243 52.513 108.357 48.9698 117.254C45.4265 126.146 45.3415 134.459 48.7794 135.812C52.2174 137.169 57.8826 131.055 61.4258 122.159C64.9691 113.262 65.0541 104.954 61.6161 103.597V103.601Z" fill="#FFC022"/>
<path d="M50.6664 131.083C48.2408 130.129 48.3016 124.245 50.8001 117.974C53.2986 111.7 57.3075 107.374 59.7331 108.329C62.1587 109.283 62.098 115.167 59.5995 121.442C57.101 127.713 53.092 132.042 50.6664 131.083ZM59.5347 108.828C57.2144 107.914 53.3836 112.05 50.9944 118.047C48.6053 124.044 48.5486 129.67 50.8689 130.584C53.1892 131.498 57.02 127.362 59.4092 121.365C61.7983 115.369 61.855 109.742 59.5387 108.828H59.5347Z" fill="#FFC022"/>
<g style="mix-blend-mode:multiply" opacity="0.6">
<path d="M108.606 141.079C114.862 140.068 119.252 137.7 119.252 134.937V131.788C119.252 131.18 119.033 130.592 118.636 130.032C119.037 129.472 119.252 128.884 119.252 128.276V125.127C119.252 124.519 119.033 123.931 118.636 123.371C119.037 122.811 119.252 122.223 119.252 121.615V118.465C119.252 117.857 119.033 117.269 118.636 116.709C119.037 116.15 119.252 115.562 119.252 114.953V114.909C115.68 113.665 109.011 119.017 103.916 127.386C100.778 132.541 98.9357 137.688 98.6279 141.49C98.9478 141.514 99.2718 141.534 99.5998 141.55C100.329 141.587 101.074 141.607 101.831 141.607C102.544 141.607 103.248 141.587 103.941 141.558C103.941 141.558 103.949 141.558 103.953 141.558C105.463 141.49 106.913 141.345 108.278 141.136C108.387 141.119 108.496 141.103 108.606 141.087V141.079Z" fill="#CCCCCC"/>
</g>
<path d="M128.731 147.318C125.294 148.675 119.632 142.561 116.085 133.665C112.542 124.768 112.457 116.46 115.895 115.103L118.839 113.943L131.675 146.154L128.731 147.314V147.318Z" fill="#FF931E"/>
<path d="M124.354 132.179L116.725 135.187C116.506 134.692 116.292 134.184 116.085 133.665L123.743 130.648L124.354 132.179Z" fill="#D17918"/>
<path d="M125.593 135.288L118.199 138.204C117.77 137.41 117.357 136.577 116.964 135.711L124.569 132.714L125.593 135.288Z" fill="#D17918"/>
<path d="M118.531 138.808L127.347 135.332L131.663 146.162L128.732 147.318C126.006 148.393 121.888 144.776 118.531 138.808Z" fill="#D17918"/>
<path d="M121.459 124.909L114.21 127.765C114.166 127.58 114.121 127.394 114.081 127.209L121.252 124.382L121.463 124.905L121.459 124.909Z" fill="#D17918"/>
<path d="M114.769 129.867C114.716 129.686 114.664 129.505 114.611 129.324L122.046 126.392L122.256 126.915L114.769 129.867Z" fill="#D17918"/>
<path d="M123.269 129.456L115.632 132.465C115.534 132.203 115.445 131.945 115.356 131.687L122.965 128.687L123.269 129.452V129.456Z" fill="#D17918"/>
<path d="M119.029 132.509C122.572 141.406 128.233 147.515 131.675 146.162C135.113 144.805 135.028 136.496 131.485 127.604C127.942 118.707 122.281 112.598 118.839 113.951C115.401 115.308 115.486 123.617 119.029 132.513V132.509Z" fill="#FF931E"/>
<path style="mix-blend-mode:multiply" opacity="0.4" d="M116.494 123.004C116.66 123.468 116.834 123.931 117.021 124.398C120.564 133.29 126.225 139.404 129.667 138.051C131.805 137.209 132.578 133.677 132.012 128.993C135.024 137.346 134.931 144.873 131.675 146.158C128.238 147.515 122.576 141.401 119.029 132.505C117.689 129.138 116.842 125.856 116.494 123.004Z" fill="url(#paint14_linear_369_240)"/>
<path d="M119.029 132.509C122.507 141.237 128.023 147.278 131.477 146.222C134.721 144.636 134.579 136.476 131.1 127.749C127.622 119.021 122.107 112.98 118.652 114.036C115.409 115.622 115.555 123.782 119.029 132.509ZM119.649 117.096C122.443 115.993 127.059 120.979 129.942 128.208C132.821 135.437 132.894 142.215 130.096 143.315C127.302 144.418 122.682 139.432 119.802 132.203C116.923 124.974 116.854 118.196 119.649 117.096Z" fill="#D17918"/>
<path d="M120.033 116.943C122.827 115.84 127.448 120.826 130.327 128.055C133.206 135.284 133.275 142.062 130.481 143.161C127.687 144.265 123.066 139.279 120.187 132.05C117.308 124.821 117.235 118.043 120.033 116.943ZM118.839 113.947C115.401 115.304 115.486 123.613 119.029 132.509C122.572 141.406 128.233 147.515 131.675 146.162C135.113 144.805 135.028 136.496 131.485 127.604C127.942 118.707 122.281 112.598 118.839 113.951V113.947Z" fill="#FFC022"/>
<path d="M120.855 131.788C118.357 125.513 118.296 119.633 120.722 118.675C123.147 117.72 127.156 122.046 129.655 128.321C132.153 134.591 132.214 140.475 129.788 141.43C127.363 142.388 123.354 138.059 120.855 131.788ZM121.05 131.712C123.439 137.708 127.27 141.844 129.59 140.93C131.91 140.016 131.854 134.394 129.464 128.393C127.075 122.396 123.245 118.26 120.924 119.174C118.604 120.089 118.661 125.711 121.054 131.712H121.05Z" fill="#FFC022"/>
<path d="M64.2038 110.89L63.4951 109.102L62.7865 110.89L60.9845 111.599L62.7865 112.304L63.4951 114.096L64.2038 112.304L66.0058 111.599L64.2038 110.89Z" fill="white"/>
<path d="M115.32 108.997L114.611 107.205L113.902 108.997L112.1 109.702L113.902 110.407L114.611 112.199L115.32 110.407L117.122 109.702L115.32 108.997Z" fill="white"/>
<path d="M132.076 89.0295L131.368 87.2373L130.655 89.0295L128.857 89.7343L130.655 90.4431L131.368 92.2313L132.076 90.4431L133.878 89.7343L132.076 89.0295Z" fill="white"/>
<path d="M89.1523 121.989L88.4436 120.197L87.735 121.989L85.933 122.694L87.735 123.399L88.4436 125.191L89.1523 123.399L90.9543 122.694L89.1523 121.989Z" fill="white"/>
<path d="M63.252 35.7231C63.252 35.7231 53.6144 42.7227 50.5935 48.0671C50.5935 48.0671 63.4707 38.5745 70.3547 35.7231H63.252Z" fill="#DAB873"/>
<path d="M66.1475 35.7231C66.1475 35.7231 73.5741 39.6337 77.2065 48.0671C77.2065 48.0671 76.7367 40.9547 72.8695 35.7231H66.1475Z" fill="#DAB873"/>
<path d="M80.8955 53.3184C80.8955 53.3184 87.4151 65.4851 90.9543 78.7594C90.9543 78.7594 91.7237 63.6929 80.8955 53.3184Z" fill="#DAB873"/>
<path d="M89.5289 54.8608C89.5289 54.8608 96.0485 67.0276 99.5877 80.3018C99.5877 80.3018 100.357 65.2354 89.5289 54.8608Z" fill="#E8C47B"/>
<path d="M79.3 59.3997C79.3 59.3997 90.2416 57.6236 100.187 60.177C100.187 60.177 90.2254 55.038 79.3 59.3997Z" fill="#E8C47B"/>
<path d="M81.6892 65.264C81.6892 65.264 92.6308 63.4879 102.576 66.0412C102.576 66.0412 92.6146 60.9023 81.6892 65.264Z" fill="#E8C47B"/>
<path d="M81.6892 65.2639C81.6892 65.2639 85.362 64.6678 90.3874 64.6638C90.2295 64.2893 90.0675 63.9147 89.8974 63.5361C87.3341 63.6408 84.5481 64.1241 81.6892 65.2679V65.2639Z" fill="#DAB873"/>
<path d="M87.6702 58.8041C87.4839 58.4335 87.2936 58.063 87.0992 57.6885C84.6493 57.8254 82.005 58.3208 79.3041 59.4001C79.3041 59.4001 82.819 58.8323 87.6702 58.8V58.8041Z" fill="#DAB873"/>
<path d="M52.1931 6.0411L66.1475 31.9976V4.31738C65.8802 4.42612 65.6129 4.53486 65.3416 4.6436C65.293 4.66374 65.2444 4.68387 65.1958 4.69998C64.9245 4.80872 64.6492 4.91344 64.3779 5.01815C64.3657 5.02218 64.3576 5.0262 64.3455 5.03023C64.062 5.13494 63.7785 5.23965 63.4951 5.34034C63.4384 5.36048 63.3776 5.38061 63.321 5.40075C63.0982 5.47727 62.8755 5.55379 62.6528 5.62628C62.5759 5.65045 62.503 5.67461 62.426 5.69878C62.1709 5.77932 61.9118 5.85584 61.6566 5.92834C61.6323 5.93639 61.6121 5.94042 61.5878 5.94847C61.3124 6.02499 61.0411 6.09346 60.7698 6.1579C60.6969 6.17401 60.62 6.19012 60.5471 6.20623C60.3406 6.25053 60.1381 6.2908 59.9356 6.33108C59.8587 6.34719 59.7777 6.35927 59.7008 6.37135C59.4335 6.41565 59.1662 6.45592 58.903 6.48009C56.6475 6.71368 54.3798 6.47203 52.1972 6.03708L52.1931 6.0411Z" fill="#DAB873"/>
<path d="M48.5568 5.15509C48.2652 5.07454 47.9413 4.97385 47.593 4.86914L59.1703 22.5171L50.703 5.71489C49.9741 5.54171 49.2573 5.35243 48.5568 5.15911V5.15509Z" fill="#DAB873"/>
<path d="M110.602 4.4705C112.76 2.83135 113.202 0.447142 109.351 0.0564853C102.605 -0.62817 98.1339 5.15516 91.424 5.62636L75.9795 35.723H81.9726L110.602 4.4705Z" fill="#DAB873"/>
<path d="M77.8423 28.2965L89.2738 5.58611C86.9292 5.33238 85.3945 4.27318 83.8921 3.15356L77.8463 28.2965H77.8423Z" fill="#DAB873"/>
<path d="M87.6702 34.6394C87.5406 34.6394 87.4111 34.6273 87.2774 34.5951C76.7206 32.2753 57.1982 34.5991 56.9998 34.6233C55.8903 34.7562 54.8901 33.8581 54.7686 32.6136C54.6471 31.3692 55.4529 30.2495 56.5625 30.1166C57.3886 30.016 76.8906 27.6922 88.0549 30.1448C89.1523 30.3865 89.8691 31.5746 89.6504 32.8029C89.4601 33.8822 88.6137 34.6313 87.6662 34.6313L87.6702 34.6394Z" fill="#FF931E"/>
<path d="M70.1565 29.1099C69.8204 29.1219 69.4843 29.134 69.1522 29.1461C68.5448 30.1087 67.743 31.6753 67.2814 33.7816C67.5608 33.7655 67.8442 33.7534 68.1318 33.7373C68.6703 31.4699 69.6138 29.8831 70.1565 29.1099Z" fill="#BF6E17"/>
<path d="M64.4062 29.4082C64.062 29.4324 63.7299 29.4565 63.4019 29.4807C62.7905 30.5198 62.0575 32.1025 61.6566 34.1726C61.9279 34.1484 62.2114 34.1283 62.4989 34.1041C62.9646 31.9132 63.819 30.3103 64.4021 29.4122L64.4062 29.4082Z" fill="#BF6E17"/>
<path d="M67.2976 29.231C66.9574 29.2471 66.6213 29.2672 66.2933 29.2873C65.6818 30.2861 64.9084 31.8608 64.4751 33.9511C64.7505 33.9309 65.0339 33.9148 65.3174 33.8947C65.8236 31.6554 66.7306 30.0646 67.2976 29.231Z" fill="#BF6E17"/>
<path d="M61.4907 29.6294C61.1424 29.6576 60.8104 29.6898 60.4905 29.718C59.8831 30.8014 59.1906 32.3882 58.8302 34.43C59.0894 34.4059 59.3688 34.3777 59.6765 34.3455C60.0936 32.2029 60.8914 30.596 61.4907 29.6294Z" fill="#BF6E17"/>
<path d="M57.5587 30.008C56.9877 31.0874 56.3762 32.5936 56.0482 34.4825C56.2952 34.5912 56.5665 34.6476 56.85 34.6355C57.2145 32.5413 57.9515 30.9343 58.5548 29.9033C58.1742 29.9436 57.8381 29.9758 57.5587 30.008Z" fill="#BF6E17"/>
<path d="M86.346 29.8186C86.0625 29.7702 85.771 29.7259 85.4794 29.6816C84.9044 30.6965 84.2565 32.1625 83.8759 34.0312C84.1472 34.0634 84.4185 34.0997 84.6817 34.1359C85.0826 32.227 85.7791 30.765 86.342 29.8186H86.346Z" fill="#BF6E17"/>
<path d="M88.059 30.1488C88.059 30.1488 88.0266 30.1407 88.0104 30.1367C87.4597 31.1999 86.8928 32.6498 86.5769 34.45C86.8158 34.4944 87.0507 34.5427 87.2775 34.595C87.3099 34.6031 87.3382 34.5991 87.3706 34.6071C87.6743 32.8794 88.2331 31.4819 88.7555 30.467C88.549 30.318 88.3141 30.2052 88.0549 30.1488H88.059Z" fill="#BF6E17"/>
<path d="M81.1709 29.2347C80.859 29.2146 80.5472 29.1945 80.2354 29.1743C79.6442 30.1167 78.8829 31.623 78.4172 33.6286C78.6966 33.6367 78.972 33.6487 79.2474 33.6608C79.7616 31.5464 80.6242 30.0362 81.1709 29.2307V29.2347Z" fill="#BF6E17"/>
<path d="M83.7908 29.4686C83.4912 29.4364 83.1915 29.4042 82.8878 29.376C82.3006 30.3506 81.5879 31.8327 81.1587 33.7779C81.4341 33.798 81.7054 33.8182 81.9767 33.8423C82.4424 31.8287 83.228 30.3425 83.7868 29.4726L83.7908 29.4686Z" fill="#BF6E17"/>
<path d="M78.4901 29.0936C78.1702 29.0815 77.8503 29.0735 77.5304 29.0654C76.9351 29.9877 76.1374 31.5101 75.6555 33.5721C75.9349 33.5721 76.2143 33.5761 76.4937 33.5801C77.0445 31.3852 77.9637 29.8427 78.4901 29.0936Z" fill="#BF6E17"/>
<path d="M74.7769 29.0293C74.1776 29.9516 73.3636 31.49 72.8777 33.5843C73.1571 33.5802 73.4406 33.5762 73.72 33.5722C74.2828 31.3209 75.2385 29.7583 75.7568 29.0333C75.4288 29.0333 75.1049 29.0293 74.7769 29.0293Z" fill="#BF6E17"/>
<path d="M72.9789 29.0415C72.6469 29.0455 72.3148 29.0536 71.9868 29.0576C71.3835 29.992 70.5695 31.5465 70.0876 33.6569C70.3671 33.6488 70.6505 33.6368 70.934 33.6287C71.4928 31.3573 72.4525 29.7785 72.9789 29.0415Z" fill="#BF6E17"/>
<g style="mix-blend-mode:multiply" opacity="0.8">
<path d="M87.6702 32.7066C87.5406 32.7066 87.411 32.6945 87.2774 32.6623C76.7205 30.3425 57.1982 32.6663 56.9998 32.6905C56.1211 32.7952 55.3112 32.2515 54.9508 31.4058C54.7969 31.7723 54.724 32.183 54.7685 32.614C54.89 33.8584 55.8902 34.7565 56.9998 34.6236C57.1942 34.5995 76.7165 32.2757 87.2774 34.5955C87.411 34.6236 87.5406 34.6398 87.6702 34.6398C88.6178 34.6398 89.4641 33.8907 89.6544 32.8113C89.7395 32.316 89.6706 31.8327 89.4924 31.4098C89.1604 32.1951 88.4517 32.7106 87.6702 32.7106V32.7066Z" fill="#B3B3B3"/>
</g>
<path d="M87.6702 39.1907C87.5406 39.1907 87.4111 39.1786 87.2774 39.1464C76.7206 36.8266 57.1982 39.1504 56.9998 39.1746C55.8903 39.3075 54.8901 38.4094 54.7686 37.1649C54.6471 35.9204 55.4529 34.8008 56.5625 34.6679C57.3886 34.5672 76.8906 32.2434 88.0549 34.6961C89.1523 34.9377 89.8691 36.1258 89.6504 37.3542C89.4601 38.4335 88.6137 39.1826 87.6662 39.1826L87.6702 39.1907Z" fill="#FF931E"/>
<path d="M70.1565 33.6611C69.8204 33.6732 69.4843 33.6853 69.1522 33.6974C68.5448 34.6599 67.743 36.2266 67.2814 38.3329C67.5608 38.3168 67.8442 38.3047 68.1318 38.2886C68.6703 36.0212 69.6138 34.4344 70.1565 33.6611Z" fill="#BF6E17"/>
<path d="M64.4062 33.959C64.062 33.9831 63.7299 34.0073 63.4019 34.0315C62.7905 35.0705 62.0575 36.6533 61.6566 38.7234C61.9279 38.6992 62.2114 38.6791 62.4989 38.6549C62.9646 36.464 63.819 34.8611 64.4021 33.963L64.4062 33.959Z" fill="#BF6E17"/>
<path d="M67.2976 33.7856C66.9574 33.8018 66.6213 33.8219 66.2933 33.842C65.6818 34.8408 64.9084 36.4155 64.4751 38.5057C64.7505 38.4856 65.0339 38.4695 65.3174 38.4494C65.8236 36.2101 66.7306 34.6193 67.2976 33.7856Z" fill="#BF6E17"/>
<path d="M61.4907 34.1807C61.1424 34.2089 60.8104 34.2411 60.4905 34.2693C59.8831 35.3526 59.1906 36.9394 58.8302 38.9813C59.0894 38.9571 59.3688 38.929 59.6765 38.8967C60.0936 36.7542 60.8914 35.1472 61.4907 34.1807Z" fill="#BF6E17"/>
<path d="M57.5587 34.5588C56.9877 35.6382 56.3762 37.1444 56.0482 39.0332C56.2952 39.142 56.5665 39.1984 56.85 39.1863C57.2145 37.092 57.9515 35.4851 58.5548 34.4541C58.1742 34.4944 57.8381 34.5266 57.5587 34.5588Z" fill="#BF6E17"/>
<path d="M86.346 34.3737C86.0625 34.3254 85.771 34.2811 85.4794 34.2368C84.9044 35.2517 84.2565 36.7177 83.8759 38.5864C84.1472 38.6186 84.4185 38.6549 84.6817 38.6911C85.0826 36.7821 85.7791 35.3202 86.342 34.3737H86.346Z" fill="#BF6E17"/>
<path d="M88.059 34.7001C88.059 34.7001 88.0266 34.692 88.0104 34.688C87.4597 35.7512 86.8928 37.2011 86.5769 39.0013C86.8158 39.0456 87.0507 39.0939 87.2775 39.1463C87.3099 39.1544 87.3382 39.1503 87.3706 39.1584C87.6743 37.4306 88.2331 36.0331 88.7555 35.0182C88.549 34.8692 88.3141 34.7565 88.0549 34.7001H88.059Z" fill="#BF6E17"/>
<path d="M81.1709 33.7855C80.859 33.7654 80.5472 33.7452 80.2354 33.7251C79.6442 34.6675 78.8829 36.1738 78.4172 38.1794C78.6966 38.1874 78.972 38.1995 79.2474 38.2116C79.7616 36.0972 80.6242 34.587 81.1709 33.7815V33.7855Z" fill="#BF6E17"/>
<path d="M83.7908 34.0194C83.4912 33.9872 83.1915 33.9549 82.8878 33.9268C82.3006 34.9014 81.5879 36.3835 81.1587 38.3287C81.4341 38.3488 81.7054 38.369 81.9767 38.3931C82.4424 36.3794 83.228 34.8933 83.7868 34.0234L83.7908 34.0194Z" fill="#BF6E17"/>
<path d="M78.4901 33.6449C78.1702 33.6328 77.8503 33.6248 77.5304 33.6167C76.9351 34.539 76.1374 36.0613 75.6555 38.1233C75.9349 38.1233 76.2143 38.1274 76.4937 38.1314C77.0445 35.9365 77.9637 34.394 78.4901 33.6449Z" fill="#BF6E17"/>
<path d="M74.7769 33.5806C74.1776 34.5028 73.3636 36.0413 72.8777 38.1355C73.1571 38.1315 73.4406 38.1275 73.72 38.1235C74.2828 35.8722 75.2385 34.3095 75.7568 33.5846C75.4288 33.5846 75.1049 33.5806 74.7769 33.5806Z" fill="#BF6E17"/>
<path d="M72.9789 33.5923C72.6469 33.5963 72.3148 33.6044 71.9868 33.6084C71.3835 34.5427 70.5695 36.0973 70.0876 38.2077C70.3671 38.1996 70.6505 38.1875 70.934 38.1795C71.4928 35.908 72.4525 34.3293 72.9789 33.5923Z" fill="#BF6E17"/>
<g style="mix-blend-mode:multiply" opacity="0.8">
<path d="M87.6702 37.2613C87.5406 37.2613 87.411 37.2492 87.2774 37.217C76.7205 34.8972 57.1982 37.221 56.9998 37.2452C56.1211 37.3499 55.3112 36.8062 54.9508 35.9604C54.7969 36.3269 54.724 36.7377 54.7685 37.1687C54.89 38.4131 55.8902 39.3112 56.9998 39.1783C57.1942 39.1542 76.7165 36.8304 87.2774 39.1501C87.411 39.1783 87.5406 39.1944 87.6702 39.1944C88.6178 39.1944 89.4641 38.4453 89.6544 37.366C89.7395 36.8706 89.6706 36.3874 89.4924 35.9645C89.1604 36.7498 88.4517 37.2653 87.6702 37.2653V37.2613Z" fill="#B3B3B3"/>
</g>
<defs>
<linearGradient id="paint0_linear_369_240" x1="70.8894" y1="117.817" x2="70.8894" y2="131.116" gradientUnits="userSpaceOnUse">
<stop stop-color="white"/>
<stop offset="1" stop-color="#D17918"/>
</linearGradient>
<linearGradient id="paint1_linear_369_240" x1="1.10955" y1="111.156" x2="1.10955" y2="124.454" gradientUnits="userSpaceOnUse">
<stop stop-color="white"/>
<stop offset="1" stop-color="#D17918"/>
</linearGradient>
<linearGradient id="paint2_linear_369_240" x1="1.10955" y1="104.491" x2="1.10955" y2="117.789" gradientUnits="userSpaceOnUse">
<stop stop-color="white"/>
<stop offset="1" stop-color="#D17918"/>
</linearGradient>
<linearGradient id="paint3_linear_369_240" x1="113.777" y1="105.022" x2="113.777" y2="118.32" gradientUnits="userSpaceOnUse">
<stop stop-color="white"/>
<stop offset="1" stop-color="#D17918"/>
</linearGradient>
<linearGradient id="paint4_linear_369_240" x1="113.777" y1="98.361" x2="113.777" y2="111.659" gradientUnits="userSpaceOnUse">
<stop stop-color="white"/>
<stop offset="1" stop-color="#D17918"/>
</linearGradient>
<linearGradient id="paint5_linear_369_240" x1="113.777" y1="91.6953" x2="113.777" y2="104.998" gradientUnits="userSpaceOnUse">
<stop stop-color="white"/>
<stop offset="1" stop-color="#D17918"/>
</linearGradient>
<linearGradient id="paint6_linear_369_240" x1="113.777" y1="85.0342" x2="113.777" y2="98.3326" gradientUnits="userSpaceOnUse">
<stop stop-color="white"/>
<stop offset="1" stop-color="#D17918"/>
</linearGradient>
<linearGradient id="paint7_linear_369_240" x1="113.777" y1="78.373" x2="113.777" y2="91.6715" gradientUnits="userSpaceOnUse">
<stop stop-color="white"/>
<stop offset="1" stop-color="#D17918"/>
</linearGradient>
<linearGradient id="paint8_linear_369_240" x1="98.0368" y1="125.159" x2="98.0368" y2="138.458" gradientUnits="userSpaceOnUse">
<stop stop-color="white"/>
<stop offset="1" stop-color="#D17918"/>
</linearGradient>
<linearGradient id="paint9_linear_369_240" x1="98.0368" y1="118.494" x2="98.0368" y2="131.792" gradientUnits="userSpaceOnUse">
<stop stop-color="white"/>
<stop offset="1" stop-color="#D17918"/>
</linearGradient>
<linearGradient id="paint10_linear_369_240" x1="98.0368" y1="111.833" x2="98.0368" y2="125.131" gradientUnits="userSpaceOnUse">
<stop stop-color="white"/>
<stop offset="1" stop-color="#D17918"/>
</linearGradient>
<linearGradient id="paint11_linear_369_240" x1="98.0368" y1="105.171" x2="98.0368" y2="118.47" gradientUnits="userSpaceOnUse">
<stop stop-color="white"/>
<stop offset="1" stop-color="#D17918"/>
</linearGradient>
<linearGradient id="paint12_linear_369_240" x1="98.0368" y1="98.5059" x2="98.0368" y2="111.804" gradientUnits="userSpaceOnUse">
<stop stop-color="white"/>
<stop offset="1" stop-color="#D17918"/>
</linearGradient>
<linearGradient id="paint13_linear_369_240" x1="47.5847" y1="120.779" x2="59.9967" y2="125.726" gradientUnits="userSpaceOnUse">
<stop stop-color="white"/>
<stop offset="1" stop-color="#D17918"/>
</linearGradient>
<linearGradient id="paint14_linear_369_240" x1="132.863" y1="131.104" x2="120.451" y2="136.05" gradientUnits="userSpaceOnUse">
<stop stop-color="white"/>
<stop offset="1" stop-color="#D17918"/>
</linearGradient>
</defs>
</svg>
