<svg width="28" height="16" viewBox="0 0 28 16" fill="none" xmlns="http://www.w3.org/2000/svg">
<g clip-path="url(#clip0_194_126)">
<path d="M14 16C10.7677 16 7.53577 15.3315 4.52485 13.9943C3.94229 13.7355 3.35799 13.4455 2.78784 13.1324C2.64876 13.0559 2.59855 12.8828 2.67617 12.7457C2.75379 12.6086 2.92951 12.5592 3.06859 12.6357C3.6246 12.941 4.19418 13.2237 4.76203 13.4756C10.633 16.083 17.3675 16.083 23.2382 13.4756C23.8051 13.224 24.375 12.9413 24.9313 12.6357C25.0707 12.5592 25.2461 12.6086 25.3237 12.7457C25.4014 12.8828 25.3512 13.0559 25.2121 13.1324C24.6413 13.4458 24.0568 13.7355 23.4751 13.994C20.4641 15.3312 17.2319 16 13.9997 16" fill="#FFCD03"/>
<path d="M28 2.68449C28 1.76122 27.2406 1.01255 26.3034 1.01255C25.3662 1.01255 24.6068 1.76122 24.6068 2.68449C24.6068 3.15451 24.8038 3.57903 25.1206 3.88271C24.0831 4.9507 23.0608 6.17139 22.022 7.47141C21.5474 6.17508 21.0695 4.80995 20.5937 3.39278C21.2106 3.14256 21.6449 2.54459 21.6449 1.84653C21.6449 0.922979 20.8852 0.174587 19.9483 0.174587C19.0114 0.174587 18.2516 0.923263 18.2516 1.84653C18.2516 2.61511 18.7782 3.26227 19.4953 3.45761C18.7254 4.94302 17.9452 6.49952 17.1457 8.07706C16.2858 6.51317 15.441 4.87848 14.6155 3.23014C15.2479 2.98731 15.6963 2.38138 15.6963 1.67222C15.6966 0.748676 14.9372 0 14 0C13.0628 0 12.3034 0.748392 12.3034 1.67194C12.3034 2.38109 12.7518 2.98703 13.3843 3.22986C12.5587 4.87819 11.7139 6.51288 10.854 8.07677C10.0545 6.49924 9.27457 4.94274 8.50445 3.45733C9.22147 3.26199 9.74806 2.61482 9.74806 1.84624C9.74806 0.922694 8.98833 0.174302 8.05144 0.174302C7.11455 0.174302 6.35482 0.922978 6.35482 1.84624C6.35482 2.54459 6.78908 3.14228 7.40598 3.3925C6.93017 4.80967 6.45235 6.1748 5.9777 7.47112C4.93895 6.1711 3.91665 4.95042 2.87906 3.88242C3.19588 3.57846 3.39324 3.15422 3.39324 2.68392C3.39324 1.76065 2.63351 1.01198 1.69662 1.01198C0.759728 1.01198 0 1.76094 0 2.68449C0 3.53353 0.642292 4.23416 1.47415 4.34164C1.99209 6.67837 2.46818 9.54427 2.92811 12.3212C3.48817 12.6288 4.06121 12.9135 4.6432 13.1722C10.5894 15.8132 17.4103 15.8132 23.3565 13.1722C23.9385 12.9137 24.5115 12.6288 25.0716 12.3214C25.5315 9.54455 26.0079 6.67866 26.5256 4.34192C27.3574 4.23444 27.9997 3.53382 27.9997 2.68477" fill="#FFCD03"/>
<path d="M14 15.437C10.7677 15.437 7.53577 14.7685 4.52485 13.4313C3.94229 13.1725 3.35799 12.8825 2.78784 12.5694C2.64876 12.4929 2.59855 12.3198 2.67617 12.1827C2.75379 12.0457 2.92951 11.9962 3.06859 12.0727C3.6246 12.3781 4.19418 12.6607 4.76203 12.9129C10.633 15.5203 17.3675 15.5203 23.2382 12.9129C23.8051 12.6613 24.375 12.3786 24.9313 12.073C25.0707 11.9965 25.2461 12.0459 25.3237 12.183C25.4014 12.3201 25.3512 12.4932 25.2121 12.5697C24.6413 12.8831 24.0568 13.1728 23.4751 13.4313C20.4641 14.7685 17.2319 15.4373 13.9997 15.4373" fill="#FBAD18"/>
<path d="M13.9977 1.0262C13.9977 1.36116 13.7221 1.63242 13.3825 1.63242C13.0429 1.63242 12.7673 1.36088 12.7673 1.0262C12.7673 0.691531 13.0429 0.419983 13.3825 0.419983C13.7221 0.419983 13.9977 0.691531 13.9977 1.0262Z" fill="#FFDC3D"/>
<path d="M19.9351 1.27242C19.9351 1.60738 19.6595 1.87864 19.3199 1.87864C18.9803 1.87864 18.7047 1.60709 18.7047 1.27242C18.7047 0.937747 18.9803 0.666199 19.3199 0.666199C19.6595 0.666199 19.9351 0.937747 19.9351 1.27242Z" fill="#FFDC3D"/>
<path d="M8.0266 1.27242C8.0266 1.60738 7.75105 1.87864 7.41143 1.87864C7.07182 1.87864 6.79626 1.60709 6.79626 1.27242C6.79626 0.937747 7.07182 0.666199 7.41143 0.666199C7.75105 0.666199 8.0266 0.937747 8.0266 1.27242Z" fill="#FFDC3D"/>
<path d="M1.60949 2.13344C1.60949 2.4684 1.33393 2.73966 0.994319 2.73966C0.654707 2.73966 0.37915 2.46811 0.37915 2.13344C0.37915 1.79877 0.654707 1.52722 0.994319 1.52722C1.33393 1.52722 1.60949 1.79877 1.60949 2.13344Z" fill="#FFDC3D"/>
<path d="M26.2705 2.13344C26.2705 2.4684 25.9949 2.73966 25.6553 2.73966C25.3157 2.73966 25.0402 2.46811 25.0402 2.13344C25.0402 1.79877 25.3157 1.52722 25.6553 1.52722C25.9949 1.52722 26.2705 1.79877 26.2705 2.13344Z" fill="#FFDC3D"/>
<path d="M25.1415 12.6081C24.5932 12.9067 24.0329 13.1833 23.4751 13.431C20.4645 14.7682 17.232 15.437 13.9998 15.437V16C17.232 16 20.4642 15.3312 23.4751 13.994C24.0568 13.7355 24.6414 13.4458 25.2122 13.1324C25.3512 13.0559 25.4014 12.8828 25.3238 12.7457C25.2834 12.6741 25.2162 12.6266 25.1415 12.6081Z" fill="#DDA827"/>
<path d="M14 0V14.8683C17.1518 14.8683 20.3024 14.2166 23.2383 12.9126C23.8052 12.661 24.3748 12.3783 24.9314 12.0726C24.9758 12.0482 25.024 12.0368 25.0716 12.0365C25.0872 12.0365 25.1031 12.038 25.1184 12.0402C25.5639 9.35177 26.0256 6.59961 26.5259 4.34135C27.3578 4.23387 27.9998 3.53325 27.9998 2.6842C27.9998 1.76094 27.2403 1.01226 26.3031 1.01226C25.366 1.01226 24.6065 1.76094 24.6065 2.6842C24.6065 3.15422 24.8036 3.57875 25.1204 3.88242C24.0828 4.95042 23.0605 6.1711 22.0218 7.47112C21.5471 6.1748 21.0693 4.80967 20.5935 3.3925C21.2104 3.14228 21.6446 2.5443 21.6446 1.84624C21.6446 0.922978 20.8849 0.174302 19.948 0.174302C19.0111 0.174302 18.2514 0.922978 18.2514 1.84624C18.2514 2.61511 18.778 3.26199 19.495 3.45733C18.7252 4.94274 17.945 6.49924 17.1454 8.07677C16.2856 6.51288 15.4407 4.87819 14.6155 3.22986C15.248 2.98703 15.6964 2.38109 15.6964 1.67194C15.6964 0.748676 14.9366 0 13.9998 0M19.3196 1.87894C18.9797 1.87894 18.7044 1.60739 18.7044 1.27272C18.7044 0.938049 18.98 0.666501 19.3196 0.666501C19.6592 0.666501 19.9348 0.938049 19.9348 1.27272C19.9348 1.60739 19.6592 1.87894 19.3196 1.87894ZM25.6551 2.73965C25.3152 2.73965 25.0399 2.4681 25.0399 2.13343C25.0399 1.79876 25.3155 1.52721 25.6551 1.52721C25.9947 1.52721 26.2702 1.79876 26.2702 2.13343C26.2702 2.4681 25.9947 2.73965 25.6551 2.73965Z" fill="#DDA827"/>
<path d="M25.0716 12.0366C25.024 12.0366 24.9758 12.0482 24.9314 12.0727C24.3748 12.3783 23.8052 12.661 23.238 12.9126C20.3021 14.2166 17.1515 14.8686 13.9998 14.8683V15.437C17.232 15.437 20.4642 14.7682 23.4751 13.431C24.0329 13.1833 24.593 12.9067 25.1412 12.6081C25.1648 12.5953 25.1885 12.5822 25.2122 12.5694C25.3512 12.4929 25.4014 12.3198 25.3238 12.1827C25.2791 12.1039 25.2021 12.0539 25.1184 12.0405C25.1031 12.038 25.0872 12.0368 25.0716 12.0368" fill="#DB9129"/>
<path d="M19.3199 0.666199C18.98 0.666199 18.7047 0.937747 18.7047 1.27242C18.7047 1.60709 18.9803 1.87864 19.3199 1.87864C19.6595 1.87864 19.9351 1.60709 19.9351 1.27242C19.9351 0.937747 19.6595 0.666199 19.3199 0.666199Z" fill="#DEB33E"/>
<path d="M25.6553 1.52692C25.3154 1.52692 25.0402 1.79846 25.0402 2.13314C25.0402 2.46781 25.3157 2.73936 25.6553 2.73936C25.9949 2.73936 26.2705 2.46781 26.2705 2.13314C26.2705 1.79846 25.9949 1.52692 25.6553 1.52692Z" fill="#DEB33E"/>
</g>
<defs>
<clipPath id="clip0_194_126">
<rect width="28" height="16" fill="white"/>
</clipPath>
</defs>
</svg>
