<svg width="24" height="24" viewBox="0 0 24 24" fill="none" xmlns="http://www.w3.org/2000/svg">
<rect width="24" height="24" rx="12" fill="#353535"/>
<g clip-path="url(#clip0_201_5138)">
<path d="M16.5 8H14.95C14.834 7.43571 14.5269 6.92867 14.0806 6.56436C13.6343 6.20005 13.0761 6.00073 12.5 6L11.5 6C10.9239 6.00073 10.3657 6.20005 9.91937 6.56436C9.47309 6.92867 9.16605 7.43571 9.05 8H7.5C7.36739 8 7.24021 8.05268 7.14645 8.14645C7.05268 8.24021 7 8.36739 7 8.5C7 8.63261 7.05268 8.75979 7.14645 8.85355C7.24021 8.94732 7.36739 9 7.5 9H8V15.5C8.00079 16.1628 8.26444 16.7982 8.73311 17.2669C9.20178 17.7356 9.8372 17.9992 10.5 18H13.5C14.1628 17.9992 14.7982 17.7356 15.2669 17.2669C15.7356 16.7982 15.9992 16.1628 16 15.5V9H16.5C16.6326 9 16.7598 8.94732 16.8536 8.85355C16.9473 8.75979 17 8.63261 17 8.5C17 8.36739 16.9473 8.24021 16.8536 8.14645C16.7598 8.05268 16.6326 8 16.5 8ZM11.5 7H12.5C12.8101 7.00038 13.1126 7.09669 13.3658 7.27572C13.6191 7.45476 13.8107 7.70775 13.9145 8H10.0855C10.1893 7.70775 10.381 7.45476 10.6342 7.27572C10.8874 7.09669 11.1899 7.00038 11.5 7ZM15 15.5C15 15.8978 14.842 16.2794 14.5607 16.5607C14.2794 16.842 13.8978 17 13.5 17H10.5C10.1022 17 9.72064 16.842 9.43934 16.5607C9.15804 16.2794 9 15.8978 9 15.5V9H15V15.5Z" fill="#FBFBFB"/>
<path d="M11 15C11.1326 15 11.2598 14.9473 11.3536 14.8536C11.4473 14.7598 11.5 14.6326 11.5 14.5V11.5C11.5 11.3674 11.4473 11.2402 11.3536 11.1464C11.2598 11.0527 11.1326 11 11 11C10.8674 11 10.7402 11.0527 10.6464 11.1464C10.5527 11.2402 10.5 11.3674 10.5 11.5V14.5C10.5 14.6326 10.5527 14.7598 10.6464 14.8536C10.7402 14.9473 10.8674 15 11 15Z" fill="#FBFBFB"/>
<path d="M13 15C13.1326 15 13.2598 14.9473 13.3536 14.8536C13.4473 14.7598 13.5 14.6326 13.5 14.5V11.5C13.5 11.3674 13.4473 11.2402 13.3536 11.1464C13.2598 11.0527 13.1326 11 13 11C12.8674 11 12.7402 11.0527 12.6464 11.1464C12.5527 11.2402 12.5 11.3674 12.5 11.5V14.5C12.5 14.6326 12.5527 14.7598 12.6464 14.8536C12.7402 14.9473 12.8674 15 13 15Z" fill="#FBFBFB"/>
</g>
<defs>
<clipPath id="clip0_201_5138">
<rect width="12" height="12" fill="white" transform="translate(6 6)"/>
</clipPath>
</defs>
</svg>
