<svg width="18" height="18" viewBox="0 0 18 18" fill="none" xmlns="http://www.w3.org/2000/svg">
<path d="M13.4626 0.0371094C14.9633 1.5387 16.4525 3.02829 17.9554 4.53246C17.9104 4.58045 17.8624 4.63531 17.8111 4.6863C14.0438 8.45528 10.2774 12.2251 6.50501 15.9889C6.3868 16.1068 6.2172 16.2015 6.05487 16.2431C4.41452 16.6622 2.77073 17.0684 1.12738 17.4764C0.686237 17.5857 0.4147 17.314 0.523914 16.8726C0.937216 15.2017 1.35137 13.5304 1.7711 11.8613C1.79808 11.7542 1.85933 11.6414 1.93685 11.5635C5.75378 7.73791 9.57415 3.91579 13.3941 0.0932475C13.4129 0.0743919 13.4356 0.0589647 13.4622 0.0371094H13.4626Z" fill="#13A6D4"/>
</svg>
