<svg width="20" height="20" viewBox="0 0 20 20" fill="none" xmlns="http://www.w3.org/2000/svg">
<g clip-path="url(#clip0_194_659)">
<path d="M0.834336 3.95894H3.11411C3.56406 5.61448 5.27089 6.5918 6.92642 6.14185C7.98972 5.85285 8.82034 5.02223 9.10933 3.95894H19.1658C19.626 3.95894 19.9991 3.58589 19.9991 3.1257C19.9991 2.66552 19.626 2.29247 19.1658 2.29247H9.10933C8.65938 0.636889 6.95256 -0.340435 5.29702 0.10952C4.23372 0.398514 3.4031 1.22913 3.11411 2.29243H0.834336C0.374147 2.29243 0.00109863 2.66548 0.00109863 3.12566C0.00109863 3.58585 0.374147 3.95894 0.834336 3.95894Z" fill="white"/>
<path d="M19.1657 9.16675H16.8859C16.4369 7.51145 14.731 6.53358 13.0757 6.9826C12.0115 7.27128 11.1802 8.10256 10.8915 9.16675H0.834214C0.374025 9.16675 0.000976562 9.5398 0.000976562 9.99999C0.000976562 10.4602 0.374025 10.8332 0.834214 10.8332H10.8915C11.3406 12.4885 13.0465 13.4664 14.7018 13.0174C15.7659 12.7287 16.5973 11.8974 16.8859 10.8332H19.1657C19.6259 10.8332 19.9989 10.4602 19.9989 9.99999C19.9989 9.5398 19.6259 9.16675 19.1657 9.16675Z" fill="white"/>
<path d="M19.1657 16.0411H9.10921C8.65926 14.3855 6.95243 13.4082 5.29689 13.8581C4.2336 14.1471 3.40298 14.9778 3.11399 16.0411H0.834214C0.374025 16.0411 0.000976562 16.4141 0.000976562 16.8743C0.000976562 17.3345 0.374025 17.7075 0.834214 17.7075H3.11399C3.56394 19.3631 5.27076 20.3404 6.9263 19.8904C7.98959 19.6014 8.82022 18.7708 9.10921 17.7075H19.1657C19.6259 17.7075 19.9989 17.3345 19.9989 16.8743C19.9989 16.4141 19.6259 16.0411 19.1657 16.0411Z" fill="white"/>
</g>
<defs>
<clipPath id="clip0_194_659">
<rect width="20" height="20" fill="white"/>
</clipPath>
</defs>
</svg>
