<svg width="108" height="17" viewBox="0 0 108 17" fill="none" xmlns="http://www.w3.org/2000/svg">
<path fill-rule="evenodd" clip-rule="evenodd" d="M8.12104 0C7.78303 0 7.53071 0.184136 7.38754 0.313893C7.23005 0.456629 7.09132 0.637271 6.97153 0.81786C6.72967 1.18247 6.49242 1.65882 6.27742 2.14381C5.84414 3.12116 5.45291 4.24493 5.24844 4.85841C5.24544 4.86741 5.2366 4.87449 5.22591 4.87485C4.58526 4.8965 3.41115 4.95396 2.38781 5.10404C1.88225 5.17818 1.37309 5.28041 0.975558 5.42844C0.779816 5.50132 0.566348 5.60131 0.390272 5.74636C0.212067 5.89316 0 6.15045 0 6.52147C0 6.77807 0.0970841 7.00522 0.184964 7.16732C0.27916 7.34107 0.403647 7.51327 0.536804 7.67586C0.803696 8.00177 1.1566 8.35065 1.52146 8.68245C2.25468 9.34923 3.10378 10.0077 3.58687 10.3717C3.5945 10.3774 3.59804 10.387 3.59489 10.3974C3.40937 11.0064 3.08715 12.1209 2.88218 13.1546C2.78036 13.668 2.70175 14.1892 2.68994 14.6294C2.68407 14.8484 2.69371 15.075 2.73749 15.2829C2.77827 15.4764 2.86787 15.7481 3.0972 15.9508C3.35457 16.1783 3.66434 16.2084 3.87883 16.1952C4.09816 16.1816 4.31783 16.1181 4.51358 16.0442C4.9089 15.895 5.35513 15.6454 5.783 15.3758C6.64738 14.8313 7.56264 14.1245 8.08315 13.7089C8.09257 13.7014 8.10641 13.7012 8.11629 13.7091C8.63669 14.125 9.5527 14.8322 10.4235 15.3772C10.8548 15.647 11.3057 15.8967 11.7078 16.0457C11.9075 16.1197 12.1294 16.182 12.3507 16.1953C12.5679 16.2083 12.8691 16.1778 13.1262 15.9667C13.367 15.769 13.4671 15.4975 13.5135 15.296C13.5624 15.0839 13.5738 14.8536 13.5683 14.6329C13.5575 14.1895 13.4748 13.6663 13.3676 13.1531C13.1518 12.1192 12.8103 11.0044 12.6127 10.3928C12.6092 10.3819 12.613 10.3718 12.6209 10.3659C13.1064 9.99979 13.9536 9.34228 14.6844 8.67714C15.048 8.34616 15.3995 7.99827 15.6653 7.67324C15.798 7.51107 15.922 7.3393 16.0158 7.16591C16.1034 7.00409 16.2 6.77747 16.2 6.52147C16.2 6.15084 15.9884 5.89368 15.8103 5.74683C15.6344 5.60178 15.4212 5.50179 15.2257 5.42891C14.8287 5.2809 14.3203 5.17867 13.8154 5.10451C12.7933 4.95438 11.6202 4.89676 10.9781 4.87498C10.9673 4.87461 10.9586 4.86757 10.9556 4.85849C10.7558 4.24319 10.3744 3.12038 9.94985 2.14438C9.73922 1.66012 9.50618 1.18423 9.26736 0.819771C9.14909 0.639274 9.01158 0.458276 8.85465 0.315078C8.71159 0.184533 8.45956 0 8.12104 0Z" fill="#CE9A49"/>
<path fill-rule="evenodd" clip-rule="evenodd" d="M54.0209 0C53.6829 0 53.4306 0.184136 53.2874 0.313893C53.1299 0.456629 52.9912 0.637271 52.8714 0.81786C52.6296 1.18247 52.3923 1.65882 52.1773 2.14381C51.744 3.12116 51.3528 4.24493 51.1483 4.85841C51.1453 4.86741 51.1365 4.87449 51.1258 4.87485C50.4852 4.8965 49.3111 4.95396 48.2877 5.10404C47.7821 5.17818 47.273 5.28041 46.8755 5.42844C46.6797 5.50132 46.4663 5.60131 46.2902 5.74636C46.112 5.89316 45.8999 6.15045 45.8999 6.52147C45.8999 6.77807 45.997 7.00522 46.0849 7.16732C46.1791 7.34107 46.3035 7.51327 46.4367 7.67586C46.7036 8.00177 47.0565 8.35065 47.4214 8.68245C48.1546 9.34923 49.0037 10.0077 49.4868 10.3717C49.4944 10.3774 49.4979 10.387 49.4948 10.3974C49.3093 11.0064 48.9871 12.1209 48.7821 13.1546C48.6803 13.668 48.6016 14.1892 48.5898 14.6294C48.584 14.8484 48.5936 15.075 48.6374 15.2829C48.6782 15.4764 48.7678 15.7481 48.9971 15.9508C49.2545 16.1783 49.5642 16.2084 49.7787 16.1952C49.9981 16.1816 50.2177 16.1181 50.4135 16.0442C50.8088 15.895 51.255 15.6454 51.6829 15.3758C52.5473 14.8313 53.4625 14.1245 53.983 13.7089C53.9925 13.7014 54.0063 13.7012 54.0162 13.7091C54.5366 14.125 55.4526 14.8322 56.3234 15.3772C56.7547 15.647 57.2056 15.8967 57.6077 16.0457C57.8074 16.1197 58.0293 16.182 58.2506 16.1953C58.4678 16.2083 58.769 16.1778 59.0261 15.9667C59.2669 15.769 59.367 15.4975 59.4134 15.296C59.4623 15.0839 59.4737 14.8536 59.4682 14.6329C59.4574 14.1895 59.3747 13.6663 59.2675 13.1531C59.0517 12.1192 58.7102 11.0044 58.5127 10.3928C58.5092 10.3819 58.5129 10.3718 58.5208 10.3659C59.0063 9.99979 59.8535 9.34228 60.5843 8.67714C60.9479 8.34616 61.2994 7.99827 61.5652 7.67324C61.6979 7.51107 61.8219 7.3393 61.9157 7.16591C62.0033 7.00409 62.0999 6.77747 62.0999 6.52147C62.0999 6.15084 61.8883 5.89368 61.7102 5.74683C61.5343 5.60178 61.3211 5.50179 61.1256 5.42891C60.7286 5.2809 60.2202 5.17867 59.7153 5.10451C58.6932 4.95438 57.5201 4.89676 56.878 4.87498C56.8672 4.87461 56.8585 4.86757 56.8555 4.85849C56.6557 4.24319 56.2743 3.12038 55.8498 2.14438C55.6391 1.66012 55.4061 1.18423 55.1673 0.819771C55.049 0.639274 54.9115 0.458276 54.7546 0.315078C54.6115 0.184533 54.3595 0 54.0209 0Z" fill="#CE9A49"/>
<path fill-rule="evenodd" clip-rule="evenodd" d="M31.071 0C30.733 0 30.4807 0.184136 30.3375 0.313893C30.18 0.456629 30.0413 0.637271 29.9215 0.81786C29.6796 1.18247 29.4424 1.65882 29.2274 2.14381C28.7941 3.12116 28.4029 4.24493 28.1984 4.85841C28.1954 4.86741 28.1866 4.87449 28.1759 4.87485C27.5352 4.8965 26.3611 4.95396 25.3378 5.10404C24.8322 5.17818 24.323 5.28041 23.9255 5.42844C23.7298 5.50132 23.5163 5.60131 23.3402 5.74636C23.162 5.89316 22.95 6.15045 22.95 6.52147C22.95 6.77807 23.047 7.00522 23.1349 7.16732C23.2291 7.34107 23.3536 7.51327 23.4868 7.67586C23.7536 8.00177 24.1065 8.35065 24.4714 8.68245C25.2046 9.34923 26.0537 10.0077 26.5368 10.3717C26.5444 10.3774 26.548 10.387 26.5448 10.3974C26.3593 11.0064 26.0371 12.1209 25.8321 13.1546C25.7303 13.668 25.6517 14.1892 25.6399 14.6294C25.634 14.8484 25.6437 15.075 25.6874 15.2829C25.7282 15.4764 25.8178 15.7481 26.0471 15.9508C26.3045 16.1783 26.6143 16.2084 26.8288 16.1952C27.0481 16.1816 27.2678 16.1181 27.4635 16.0442C27.8589 15.895 28.3051 15.6454 28.733 15.3758C29.5973 14.8313 30.5126 14.1245 31.0331 13.7089C31.0425 13.7014 31.0564 13.7012 31.0662 13.7091C31.5866 14.125 32.5027 14.8322 33.3735 15.3772C33.8048 15.647 34.2557 15.8967 34.6578 16.0457C34.8574 16.1197 35.0793 16.182 35.3006 16.1953C35.5179 16.2083 35.8191 16.1778 36.0761 15.9667C36.317 15.769 36.417 15.4975 36.4635 15.296C36.5124 15.0839 36.5237 14.8536 36.5183 14.6329C36.5074 14.1895 36.4247 13.6663 36.3176 13.1531C36.1017 12.1192 35.7603 11.0044 35.5627 10.3928C35.5592 10.3819 35.5629 10.3718 35.5708 10.3659C36.0563 9.99979 36.9036 9.34228 37.6343 8.67714C37.998 8.34616 38.3495 7.99827 38.6153 7.67324C38.7479 7.51107 38.8719 7.3393 38.9658 7.16591C39.0533 7.00409 39.15 6.77747 39.15 6.52147C39.15 6.15084 38.9383 5.89368 38.7603 5.74683C38.5844 5.60178 38.3711 5.50179 38.1757 5.42891C37.7787 5.2809 37.2702 5.17867 36.7653 5.10451C35.7433 4.95438 34.5701 4.89676 33.928 4.87498C33.9172 4.87461 33.9085 4.86757 33.9056 4.85849C33.7057 4.24319 33.3243 3.12038 32.8998 2.14438C32.6892 1.66012 32.4561 1.18423 32.2173 0.819771C32.099 0.639274 31.9615 0.458276 31.8046 0.315078C31.6615 0.184533 31.4095 0 31.071 0Z" fill="#CE9A49"/>
<path fill-rule="evenodd" clip-rule="evenodd" d="M76.9711 0C76.6331 0 76.3808 0.184136 76.2376 0.313893C76.0801 0.456629 75.9414 0.637271 75.8216 0.81786C75.5798 1.18247 75.3425 1.65882 75.1275 2.14381C74.6942 3.12116 74.303 4.24493 74.0985 4.85841C74.0955 4.86741 74.0867 4.87449 74.076 4.87485C73.4354 4.8965 72.2613 4.95396 71.2379 5.10404C70.7323 5.17818 70.2232 5.28041 69.8257 5.42844C69.6299 5.50132 69.4164 5.60131 69.2404 5.74636C69.0622 5.89316 68.8501 6.15045 68.8501 6.52147C68.8501 6.77807 68.9472 7.00522 69.0351 7.16732C69.1293 7.34107 69.2537 7.51327 69.3869 7.67586C69.6538 8.00177 70.0067 8.35065 70.3716 8.68245C71.1048 9.34923 71.9539 10.0077 72.437 10.3717C72.4446 10.3774 72.4481 10.387 72.445 10.3974C72.2595 11.0064 71.9372 12.1209 71.7323 13.1546C71.6305 13.668 71.5518 14.1892 71.54 14.6294C71.5342 14.8484 71.5438 15.075 71.5876 15.2829C71.6284 15.4764 71.718 15.7481 71.9473 15.9508C72.2047 16.1783 72.5144 16.2084 72.7289 16.1952C72.9483 16.1816 73.1679 16.1181 73.3637 16.0442C73.759 15.895 74.2052 15.6454 74.6331 15.3758C75.4975 14.8313 76.4127 14.1245 76.9332 13.7089C76.9427 13.7014 76.9565 13.7012 76.9664 13.7091C77.4868 14.125 78.4028 14.8322 79.2736 15.3772C79.7049 15.647 80.1558 15.8967 80.5579 16.0457C80.7576 16.1197 80.9795 16.182 81.2008 16.1953C81.418 16.2083 81.7192 16.1778 81.9763 15.9667C82.2171 15.769 82.3172 15.4975 82.3636 15.296C82.4125 15.0839 82.4239 14.8536 82.4184 14.6329C82.4076 14.1895 82.3249 13.6663 82.2177 13.1531C82.0019 12.1192 81.6604 11.0044 81.4628 10.3928C81.4593 10.3819 81.4631 10.3718 81.4709 10.3659C81.9565 9.99979 82.8037 9.34228 83.5345 8.67714C83.8981 8.34616 84.2496 7.99827 84.5154 7.67324C84.6481 7.51107 84.7721 7.3393 84.8659 7.16591C84.9535 7.00409 85.0501 6.77747 85.0501 6.52147C85.0501 6.15084 84.8385 5.89368 84.6604 5.74683C84.4845 5.60178 84.2713 5.50179 84.0758 5.42891C83.6788 5.2809 83.1704 5.17867 82.6655 5.10451C81.6434 4.95438 80.4703 4.89676 79.8282 4.87498C79.8174 4.87461 79.8087 4.86757 79.8057 4.85849C79.6059 4.24319 79.2245 3.12038 78.8 2.14438C78.5893 1.66012 78.3563 1.18423 78.1175 0.819771C77.9992 0.639274 77.8617 0.458276 77.7047 0.315078C77.5617 0.184533 77.3097 0 76.9711 0Z" fill="#CE9A49"/>
<path fill-rule="evenodd" clip-rule="evenodd" d="M99.9211 0C99.5831 0 99.3308 0.184136 99.1876 0.313893C99.0301 0.456629 98.8914 0.637271 98.7716 0.81786C98.5297 1.18247 98.2925 1.65882 98.0775 2.14381C97.6442 3.12116 97.253 4.24493 97.0485 4.85841C97.0455 4.86741 97.0366 4.87449 97.026 4.87485C96.3853 4.8965 95.2112 4.95396 94.1879 5.10404C93.6823 5.17818 93.1731 5.28041 92.7756 5.42844C92.5799 5.50132 92.3664 5.60131 92.1903 5.74636C92.0121 5.89316 91.8 6.15045 91.8 6.52147C91.8 6.77807 91.8971 7.00522 91.985 7.16732C92.0792 7.34107 92.2037 7.51327 92.3369 7.67586C92.6037 8.00177 92.9566 8.35065 93.3215 8.68245C94.0547 9.34923 94.9038 10.0077 95.3869 10.3717C95.3945 10.3774 95.3981 10.387 95.3949 10.3974C95.2094 11.0064 94.8872 12.1209 94.6822 13.1546C94.5804 13.668 94.5018 14.1892 94.49 14.6294C94.4841 14.8484 94.4938 15.075 94.5375 15.2829C94.5783 15.4764 94.6679 15.7481 94.8972 15.9508C95.1546 16.1783 95.4644 16.2084 95.6789 16.1952C95.8982 16.1816 96.1179 16.1181 96.3136 16.0442C96.7089 15.895 97.1552 15.6454 97.5831 15.3758C98.4474 14.8313 99.3627 14.1245 99.8832 13.7089C99.8926 13.7014 99.9065 13.7012 99.9163 13.7091C100.437 14.125 101.353 14.8322 102.224 15.3772C102.655 15.647 103.106 15.8967 103.508 16.0457C103.708 16.1197 103.929 16.182 104.151 16.1953C104.368 16.2083 104.669 16.1778 104.926 15.9667C105.167 15.769 105.267 15.4975 105.314 15.296C105.362 15.0839 105.374 14.8536 105.368 14.6329C105.358 14.1895 105.275 13.6663 105.168 13.1531C104.952 12.1192 104.61 11.0044 104.413 10.3928C104.409 10.3819 104.413 10.3718 104.421 10.3659C104.906 9.99979 105.754 9.34228 106.484 8.67714C106.848 8.34616 107.2 7.99827 107.465 7.67324C107.598 7.51107 107.722 7.3393 107.816 7.16591C107.903 7.00409 108 6.77747 108 6.52147C108 6.15084 107.788 5.89368 107.61 5.74683C107.434 5.60178 107.221 5.50179 107.026 5.42891C106.629 5.2809 106.12 5.17867 105.615 5.10451C104.593 4.95438 103.42 4.89676 102.778 4.87498C102.767 4.87461 102.759 4.86757 102.756 4.85849C102.556 4.24319 102.174 3.12038 101.75 2.14438C101.539 1.66012 101.306 1.18423 101.067 0.819771C100.949 0.639274 100.812 0.458276 100.655 0.315078C100.512 0.184533 100.26 0 99.9211 0Z" fill="#CE9A49"/>
</svg>
