<svg width="20" height="20" viewBox="0 0 20 20" fill="none" xmlns="http://www.w3.org/2000/svg">
<g clip-path="url(#clip0_125_105)">
<path d="M15 9.99999C15 9.01109 14.7067 8.04439 14.1573 7.22214C13.6079 6.3999 12.827 5.75903 11.9134 5.3806C10.9998 5.00216 9.99445 4.90314 9.02454 5.09607C8.05464 5.28899 7.16372 5.7652 6.46446 6.46446C5.7652 7.16372 5.28899 8.05464 5.09607 9.02454C4.90314 9.99445 5.00216 10.9998 5.3806 11.9134C5.75903 12.827 6.3999 13.6079 7.22214 14.1573C8.04439 14.7067 9.01109 15 9.99999 15C11.3257 14.9987 12.5967 14.4715 13.5341 13.5341C14.4715 12.5967 14.9987 11.3257 15 9.99999ZM9.99999 13.3333L7.49999 9.99999L9.99999 6.66666L12.5 9.99999L9.99999 13.3333ZM13.6592 0.702493C14.9341 1.20766 16.0921 1.96853 17.0618 2.93823C18.0315 3.90792 18.7923 5.06591 19.2975 6.34083L16.0917 7.30249C15.4178 5.79111 14.2089 4.58223 12.6975 3.90833L13.6592 0.702493ZM7.93499 0.21666C9.2965 -0.0722199 10.7035 -0.0722199 12.065 0.21666L11.1 3.43166C10.3725 3.30055 9.62747 3.30055 8.89999 3.43166L7.93499 0.21666ZM16.5683 11.1C16.6994 10.3725 16.6994 9.62747 16.5683 8.89999L19.7833 7.93499C20.0722 9.2965 20.0722 10.7035 19.7833 12.065L16.5683 11.1ZM3.43166 11.1L0.21666 12.065C-0.0722199 10.7035 -0.0722199 9.2965 0.21666 7.93499L3.43166 8.89999C3.30055 9.62747 3.30055 10.3725 3.43166 11.1ZM12.065 19.7833C10.7035 20.0722 9.2965 20.0722 7.93499 19.7833L8.89999 16.5683C9.62747 16.6994 10.3725 16.6994 11.1 16.5683L12.065 19.7833ZM19.2975 13.6592C18.7923 14.9341 18.0315 16.0921 17.0618 17.0618C16.0921 18.0315 14.9341 18.7923 13.6592 19.2975L12.6975 16.0917C14.2089 15.4178 15.4178 14.2089 16.0917 12.6975L19.2975 13.6592ZM0.703326 6.34083C1.20819 5.06586 1.96885 3.90782 2.93843 2.9381C3.908 1.96838 5.06593 1.20754 6.34083 0.702493L7.30249 3.90833C5.79115 4.582 4.58246 5.79098 3.90916 7.30249L0.703326 6.34083ZM6.34083 19.2975C5.06593 18.7924 3.908 18.0316 2.93843 17.0619C1.96885 16.0922 1.20819 14.9341 0.703326 13.6592L3.90916 12.6975C4.58246 14.209 5.79115 15.418 7.30249 16.0917L6.34083 19.2975Z" fill="white"/>
</g>
<defs>
<clipPath id="clip0_125_105">
<rect width="20" height="20" fill="white"/>
</clipPath>
</defs>
</svg>
