<svg width="96" height="29" viewBox="0 0 96 29" fill="none" xmlns="http://www.w3.org/2000/svg">
<g clip-path="url(#clip0_194_140)">
<path d="M61.988 10.9168C62.0218 10.5487 61.947 10.183 61.8867 9.99654C61.614 9.1623 60.8855 8.55514 60.0097 8.42845L53.1508 7.44123L50.0845 1.28363C49.6937 0.497197 48.8855 0 48.0001 0C47.1147 0 46.3065 0.497197 45.9156 1.28363L42.8493 7.44123L35.9904 8.42845C35.1147 8.55514 34.3885 9.1623 34.1134 9.99654C34.0531 10.183 34.0194 10.3742 34.0073 10.5631H34.0049V10.587C34.0049 10.5989 34.0049 13.2259 34.0097 13.2713V13.3048C34.058 13.8426 34.2968 14.3566 34.6997 14.7462L39.3077 19.1971L38.4898 23.9181C38.4584 24.1021 38.4536 24.2862 38.4657 24.4679H38.4633L38.4584 26.612C38.4295 27.3722 38.7817 28.106 39.4138 28.5602C40.1303 29.0765 41.0785 29.1434 41.8601 28.7347L47.9952 25.5387L54.1303 28.7347C54.9144 29.1434 55.8625 29.0741 56.5767 28.5602C57.1412 28.1538 57.4789 27.5251 57.5248 26.8558H57.5272V24.4655H57.5248C57.5368 24.2862 57.5344 24.1021 57.5007 23.9181L56.6828 19.1971L61.2908 14.7462C61.7902 14.2634 62.0338 13.594 61.9808 12.9224V10.9144L61.988 10.9168Z" fill="#D15404"/>
<path d="M61.988 10.9168C62.0218 10.5487 61.947 10.183 61.8867 9.99654C61.614 9.1623 60.8855 8.55514 60.0097 8.42845L53.1508 7.44123L50.0845 1.28363C49.6937 0.497197 48.8855 0 48.0001 0C47.1147 0 46.3065 0.497197 45.9156 1.28363L42.8493 7.44123L35.9904 8.42845C35.1147 8.55514 34.3885 9.1623 34.1134 9.99654C34.0531 10.183 34.0194 10.3742 34.0073 10.5631H34.0049V10.587C34.0049 10.5989 34.0049 13.2259 34.0097 13.2713V13.3048C34.058 13.8426 34.2968 14.3566 34.6997 14.7462L39.3077 19.1971L38.4898 23.9181C38.4584 24.1021 38.4536 24.2862 38.4657 24.4679H38.4633L38.4584 26.612C38.4295 27.3722 38.7817 28.106 39.4138 28.5602C40.1303 29.0765 41.0785 29.1434 41.8601 28.7347L47.9952 25.5387L54.1303 28.7347C54.9144 29.1434 55.8625 29.0741 56.5767 28.5602C57.1412 28.1538 57.4789 27.5251 57.5248 26.8558H57.5272V24.4655H57.5248C57.5368 24.2862 57.5344 24.1021 57.5007 23.9181L56.6828 19.1971L61.2908 14.7462C61.7902 14.2634 62.0338 13.594 61.9808 12.9224V10.9144L61.988 10.9168Z" fill="url(#paint0_linear_194_140)"/>
<path style="mix-blend-mode:multiply" d="M48 25.5411L54.1351 28.737C54.3788 28.8637 54.6393 28.9402 54.9047 28.9761L56.1568 25.5913L48 22.3404V25.5411Z" fill="url(#paint1_linear_194_140)"/>
<path d="M45.9154 1.28363C46.3062 0.497197 47.1144 0 47.9998 0C48.8852 0 49.6934 0.497197 50.0842 1.28363L53.1506 7.44123L60.0094 8.42845C60.8852 8.55514 61.6114 9.1623 61.8864 9.99654C62.159 10.8308 61.9322 11.7463 61.2977 12.3582L56.3351 17.1509L57.5076 23.9181C57.6572 24.781 57.2977 25.6559 56.5836 26.1698C55.8695 26.6837 54.919 26.753 54.1373 26.3443L48.0022 23.1484L41.8671 26.3443C41.083 26.753 40.1349 26.6837 39.4208 26.1698C38.7067 25.6559 38.3472 24.781 38.4968 23.9181L39.6693 17.1509L34.7018 12.3558C34.0673 11.7439 33.8406 10.8284 34.1132 9.99415C34.3858 9.15991 35.1144 8.55275 35.9901 8.42606L42.849 7.43884L45.9154 1.28124V1.28363Z" fill="#FBC817"/>
<path d="M55.2159 25.8925C54.9578 25.8925 54.6996 25.8304 54.4728 25.7108L48.0024 22.3404L41.5319 25.7108C41.3027 25.8304 41.0446 25.8925 40.7865 25.8925C40.4463 25.8925 40.1206 25.7873 39.8456 25.5889C39.3486 25.2304 39.1049 24.6376 39.2087 24.0376L40.4439 16.8975L35.2062 11.8419C34.7672 11.4164 34.6128 10.7949 34.8009 10.2165C34.9915 9.63798 35.4861 9.22445 36.0916 9.13839L43.3269 8.09619L46.5621 1.59916C46.8347 1.05415 47.3824 0.714722 47.9976 0.714722C48.6128 0.714722 49.1604 1.05415 49.433 1.59916L52.6682 8.09619L59.9035 9.13839C60.5114 9.22684 61.006 9.64037 61.1942 10.2165C61.3848 10.7949 61.228 11.4164 60.7889 11.8419L55.5536 16.8975L56.7889 24.0376C56.8926 24.6376 56.6489 25.2304 56.152 25.5889C55.8769 25.7873 55.5512 25.8925 55.2111 25.8925H55.2159Z" fill="url(#paint2_radial_194_140)"/>
<path d="M55.216 24.6973C55.1533 24.6973 55.0881 24.6806 55.0326 24.6519L48.0001 20.9875L40.9675 24.6519C40.912 24.6806 40.8469 24.6973 40.7841 24.6973C40.6997 24.6973 40.6201 24.671 40.5525 24.6232C40.4295 24.5348 40.3692 24.3914 40.3957 24.2408L41.7395 16.4816L36.0507 10.9861C35.9398 10.881 35.9036 10.7304 35.9518 10.587C36.0001 10.4411 36.1159 10.3431 36.2703 10.3216L44.1328 9.18859L47.6503 2.12982C47.7178 1.99357 47.8505 1.91229 48.0025 1.91229C48.1545 1.91229 48.2872 1.99357 48.3547 2.12982L51.8722 9.18859L59.7347 10.3216C59.8891 10.3431 60.0049 10.4411 60.0531 10.587C60.1014 10.7304 60.0628 10.881 59.9542 10.9861L54.2654 16.4816L55.6092 24.2408C55.6358 24.3914 55.5755 24.5324 55.4524 24.6232C55.3849 24.6734 55.3053 24.6973 55.2208 24.6973H55.216Z" fill="#EF8C2E"/>
<path d="M55.216 24.2192C55.1533 24.2192 55.0881 24.2025 55.0326 24.1738L48.0001 20.5094L40.9675 24.1738C40.912 24.2025 40.8469 24.2192 40.7841 24.2192C40.6997 24.2192 40.6201 24.1929 40.5525 24.1451C40.4295 24.0567 40.3692 23.9133 40.3957 23.7627L41.7395 16.0035L36.0507 10.5081C35.9398 10.4029 35.9036 10.2523 35.9518 10.1089C36.0001 9.96305 36.1159 9.86505 36.2703 9.84353L44.1328 8.7105L47.6503 1.65173C47.7178 1.51548 47.8505 1.4342 48.0025 1.4342C48.1545 1.4342 48.2872 1.51548 48.3547 1.65173L51.8722 8.7105L59.7347 9.84353C59.8891 9.86505 60.0049 9.96305 60.0531 10.1089C60.1014 10.2523 60.0628 10.4029 59.9542 10.5081L54.2654 16.0035L55.6092 23.7627C55.6358 23.9133 55.5755 24.0543 55.4524 24.1451C55.3849 24.1953 55.3053 24.2192 55.2208 24.2192H55.216Z" fill="url(#paint3_linear_194_140)"/>
<path d="M38.1375 10.0324C37.3945 10.0324 36.6635 10.073 35.9421 10.1424C35.9107 10.2762 35.9469 10.4101 36.0483 10.5081L41.737 16.0036L40.3932 23.7627C40.3667 23.9133 40.427 24.0543 40.5501 24.1452C40.62 24.1954 40.6972 24.2193 40.7817 24.2193C40.8444 24.2193 40.9095 24.2025 40.965 24.1739L47.9976 20.5094L55.0302 24.1739C55.0856 24.2025 55.1508 24.2193 55.2135 24.2193C55.298 24.2193 55.3776 24.193 55.4451 24.1452C55.5682 24.0567 55.6285 23.9133 55.6019 23.7627L54.7407 18.786C52.0386 13.649 45.6236 10.0324 38.1351 10.0324H38.1375Z" fill="url(#paint4_linear_194_140)"/>
</g>
<g clip-path="url(#clip1_194_140)">
<path d="M67.0068 18.3995C66.9875 18.1837 67.0303 17.9693 67.0647 17.86C67.2205 17.371 67.6369 17.0151 68.1373 16.9408L72.0566 16.3621L73.8088 12.7525C74.0322 12.2915 74.494 12 74.9999 12C75.5059 12 75.9677 12.2915 76.1911 12.7525L77.9433 16.3621L81.8626 16.9408C82.363 17.0151 82.778 17.371 82.9352 17.86C82.9696 17.9693 82.9889 18.0814 82.9958 18.1921H82.9972V18.2061C82.9972 18.2132 82.9972 19.7531 82.9944 19.7798V19.7994C82.9669 20.1147 82.8304 20.4159 82.6002 20.6443L79.967 23.2535L80.4344 26.0209C80.4523 26.1288 80.4551 26.2367 80.4482 26.3432H80.4495L80.4523 27.6001C80.4688 28.0457 80.2676 28.4759 79.9064 28.7422C79.4969 29.0448 78.9551 29.0841 78.5085 28.8445L75.0027 26.971L71.4969 28.8445C71.0489 29.0841 70.5071 29.0434 70.099 28.7422C69.7764 28.504 69.5834 28.1354 69.5572 27.7431H69.5559V26.3418H69.5572C69.5504 26.2367 69.5517 26.1288 69.571 26.0209L70.0384 23.2535L67.4053 20.6443C67.1199 20.3613 66.9806 19.9689 67.011 19.5752V18.3981L67.0068 18.3995Z" fill="#D15404"/>
<path d="M67.0068 18.3995C66.9875 18.1837 67.0303 17.9693 67.0647 17.86C67.2205 17.371 67.6369 17.0151 68.1373 16.9408L72.0566 16.3621L73.8088 12.7525C74.0322 12.2915 74.494 12 74.9999 12C75.5059 12 75.9677 12.2915 76.1911 12.7525L77.9433 16.3621L81.8626 16.9408C82.363 17.0151 82.778 17.371 82.9352 17.86C82.9696 17.9693 82.9889 18.0814 82.9958 18.1921H82.9972V18.2061C82.9972 18.2132 82.9972 19.7531 82.9944 19.7798V19.7994C82.9669 20.1147 82.8304 20.4159 82.6002 20.6443L79.967 23.2535L80.4344 26.0209C80.4523 26.1288 80.4551 26.2367 80.4482 26.3432H80.4495L80.4523 27.6001C80.4688 28.0457 80.2676 28.4759 79.9064 28.7422C79.4969 29.0448 78.9551 29.0841 78.5085 28.8445L75.0027 26.971L71.4969 28.8445C71.0489 29.0841 70.5071 29.0434 70.099 28.7422C69.7764 28.504 69.5834 28.1354 69.5572 27.7431H69.5559V26.3418H69.5572C69.5504 26.2367 69.5517 26.1288 69.571 26.0209L70.0384 23.2535L67.4053 20.6443C67.1199 20.3613 66.9806 19.9689 67.011 19.5752V18.3981L67.0068 18.3995Z" fill="url(#paint5_linear_194_140)"/>
<path style="mix-blend-mode:multiply" d="M75 26.9724L71.4942 28.8459C71.355 28.9201 71.2061 28.965 71.0545 28.986L70.339 27.0018L75 25.0961V26.9724Z" fill="url(#paint6_linear_194_140)"/>
<path d="M76.1915 12.7525C75.9682 12.2915 75.5063 12 75.0004 12C74.4944 12 74.0326 12.2915 73.8093 12.7525L72.0571 16.3621L68.1377 16.9408C67.6373 17.0151 67.2223 17.371 67.0652 17.86C66.9094 18.3491 67.039 18.8858 67.4016 19.2445L70.2373 22.054L69.5673 26.0209C69.4819 26.5268 69.6873 27.0396 70.0953 27.3409C70.5034 27.6422 71.0466 27.6828 71.4932 27.4432L74.999 25.5697L78.5048 27.4432C78.9528 27.6828 79.4946 27.6422 79.9027 27.3409C80.3108 27.0396 80.5162 26.5268 80.4307 26.0209L79.7607 22.054L82.5992 19.2431C82.9618 18.8844 83.0914 18.3477 82.9356 17.8586C82.7798 17.3696 82.3635 17.0137 81.8631 16.9394L77.9437 16.3607L76.1915 12.7511V12.7525Z" fill="#FBC817"/>
<path d="M70.8766 27.1783C71.0241 27.1783 71.1716 27.1419 71.3012 27.0718L74.9986 25.0961L78.696 27.0718C78.827 27.1419 78.9745 27.1783 79.122 27.1783C79.3164 27.1783 79.5025 27.1167 79.6596 27.0004C79.9436 26.7902 80.0829 26.4427 80.0236 26.091L79.3177 21.9054L82.3107 18.9418C82.5616 18.6924 82.6498 18.328 82.5423 17.9889C82.4334 17.6498 82.1507 17.4074 81.8047 17.357L77.6703 16.746L75.8216 12.9374C75.6658 12.6179 75.3529 12.4189 75.0013 12.4189C74.6498 12.4189 74.3369 12.6179 74.1811 12.9374L72.3324 16.746L68.198 17.357C67.8506 17.4088 67.5679 17.6512 67.4604 17.9889C67.3515 18.328 67.4411 18.6924 67.692 18.9418L70.6836 21.9054L69.9777 26.091C69.9185 26.4427 70.0577 26.7902 70.3417 27.0004C70.4988 27.1167 70.685 27.1783 70.8793 27.1783H70.8766Z" fill="url(#paint7_radial_194_140)"/>
<path d="M70.8766 26.4778C70.9124 26.4778 70.9496 26.468 70.9813 26.4512L74.9999 24.303L79.0186 26.4512C79.0503 26.468 79.0875 26.4778 79.1233 26.4778C79.1716 26.4778 79.2171 26.4624 79.2557 26.4343C79.326 26.3825 79.3604 26.2984 79.3453 26.2101L78.5774 21.6617L81.8281 18.4402C81.8916 18.3785 81.9122 18.2903 81.8847 18.2062C81.8571 18.1207 81.7909 18.0633 81.7027 18.0506L77.2098 17.3864L75.1998 13.2485C75.1612 13.1687 75.0854 13.121 74.9986 13.121C74.9117 13.121 74.8359 13.1687 74.7973 13.2485L72.7873 17.3864L68.2944 18.0506C68.2062 18.0633 68.14 18.1207 68.1125 18.2062C68.0849 18.2903 68.107 18.3785 68.169 18.4402L71.4197 21.6617L70.6518 26.2101C70.6367 26.2984 70.6711 26.3811 70.7415 26.4343C70.7801 26.4638 70.8256 26.4778 70.8738 26.4778H70.8766Z" fill="#EF8C2E"/>
<path d="M70.8766 26.1975C70.9124 26.1975 70.9496 26.1877 70.9813 26.1709L74.9999 24.0228L79.0186 26.1709C79.0503 26.1877 79.0875 26.1975 79.1233 26.1975C79.1716 26.1975 79.2171 26.1821 79.2557 26.1541C79.326 26.1022 79.3604 26.0181 79.3453 25.9299L78.5774 21.3814L81.8281 18.1599C81.8916 18.0983 81.9122 18.01 81.8847 17.9259C81.8571 17.8404 81.7909 17.783 81.7027 17.7704L77.2098 17.1062L75.1998 12.9683C75.1612 12.8884 75.0854 12.8408 74.9986 12.8408C74.9117 12.8408 74.8359 12.8884 74.7973 12.9683L72.7873 17.1062L68.2944 17.7704C68.2062 17.783 68.14 17.8404 68.1125 17.9259C68.0849 18.01 68.107 18.0983 68.169 18.1599L71.4197 21.3814L70.6518 25.9299C70.6367 26.0181 70.6711 26.1008 70.7415 26.1541C70.7801 26.1835 70.8256 26.1975 70.8738 26.1975H70.8766Z" fill="url(#paint8_linear_194_140)"/>
<path d="M80.6357 17.881C81.0603 17.881 81.478 17.9049 81.8902 17.9455C81.9081 18.024 81.8875 18.1024 81.8296 18.1599L78.5788 21.3814L79.3467 25.9298C79.3619 26.0181 79.3274 26.1008 79.2571 26.154C79.2171 26.1835 79.173 26.1975 79.1248 26.1975C79.0889 26.1975 79.0517 26.1877 79.02 26.1709L75.0014 24.0227L70.9828 26.1709C70.9511 26.1877 70.9138 26.1975 70.878 26.1975C70.8297 26.1975 70.7842 26.1821 70.7456 26.154C70.6753 26.1022 70.6409 26.0181 70.656 25.9298L71.1482 23.0124C72.6922 20.0011 76.3579 17.881 80.6371 17.881H80.6357Z" fill="url(#paint9_linear_194_140)"/>
</g>
<g clip-path="url(#clip2_194_140)">
<path d="M13.0068 18.3995C12.9875 18.1837 13.0303 17.9693 13.0647 17.86C13.2205 17.371 13.6369 17.0151 14.1373 16.9408L18.0566 16.3621L19.8088 12.7525C20.0322 12.2915 20.494 12 20.9999 12C21.5059 12 21.9677 12.2915 22.1911 12.7525L23.9433 16.3621L27.8626 16.9408C28.363 17.0151 28.778 17.371 28.9352 17.86C28.9696 17.9693 28.9889 18.0814 28.9958 18.1921H28.9972V18.2061C28.9972 18.2132 28.9972 19.7531 28.9944 19.7798V19.7994C28.9669 20.1147 28.8304 20.4159 28.6002 20.6443L25.967 23.2535L26.4344 26.0209C26.4523 26.1288 26.4551 26.2367 26.4482 26.3432H26.4495L26.4523 27.6001C26.4688 28.0457 26.2676 28.4759 25.9064 28.7422C25.4969 29.0448 24.9551 29.0841 24.5085 28.8445L21.0027 26.971L17.4969 28.8445C17.0489 29.0841 16.5071 29.0434 16.099 28.7422C15.7764 28.504 15.5834 28.1354 15.5572 27.7431H15.5559V26.3418H15.5572C15.5504 26.2367 15.5517 26.1288 15.571 26.0209L16.0384 23.2535L13.4053 20.6443C13.1199 20.3613 12.9806 19.9689 13.011 19.5752V18.3981L13.0068 18.3995Z" fill="#D15404"/>
<path d="M13.0068 18.3995C12.9875 18.1837 13.0303 17.9693 13.0647 17.86C13.2205 17.371 13.6369 17.0151 14.1373 16.9408L18.0566 16.3621L19.8088 12.7525C20.0322 12.2915 20.494 12 20.9999 12C21.5059 12 21.9677 12.2915 22.1911 12.7525L23.9433 16.3621L27.8626 16.9408C28.363 17.0151 28.778 17.371 28.9352 17.86C28.9696 17.9693 28.9889 18.0814 28.9958 18.1921H28.9972V18.2061C28.9972 18.2132 28.9972 19.7531 28.9944 19.7798V19.7994C28.9669 20.1147 28.8304 20.4159 28.6002 20.6443L25.967 23.2535L26.4344 26.0209C26.4523 26.1288 26.4551 26.2367 26.4482 26.3432H26.4495L26.4523 27.6001C26.4688 28.0457 26.2676 28.4759 25.9064 28.7422C25.4969 29.0448 24.9551 29.0841 24.5085 28.8445L21.0027 26.971L17.4969 28.8445C17.0489 29.0841 16.5071 29.0434 16.099 28.7422C15.7764 28.504 15.5834 28.1354 15.5572 27.7431H15.5559V26.3418H15.5572C15.5504 26.2367 15.5517 26.1288 15.571 26.0209L16.0384 23.2535L13.4053 20.6443C13.1199 20.3613 12.9806 19.9689 13.011 19.5752V18.3981L13.0068 18.3995Z" fill="url(#paint10_linear_194_140)"/>
<path style="mix-blend-mode:multiply" d="M21 26.9724L17.4942 28.8459C17.355 28.9201 17.2061 28.965 17.0545 28.986L16.339 27.0018L21 25.0961V26.9724Z" fill="url(#paint11_linear_194_140)"/>
<path d="M22.1915 12.7525C21.9682 12.2915 21.5063 12 21.0004 12C20.4944 12 20.0326 12.2915 19.8093 12.7525L18.0571 16.3621L14.1377 16.9408C13.6373 17.0151 13.2223 17.371 13.0652 17.86C12.9094 18.3491 13.039 18.8858 13.4016 19.2445L16.2373 22.054L15.5673 26.0209C15.4819 26.5268 15.6873 27.0396 16.0953 27.3409C16.5034 27.6422 17.0466 27.6828 17.4932 27.4432L20.999 25.5697L24.5048 27.4432C24.9528 27.6828 25.4946 27.6422 25.9027 27.3409C26.3108 27.0396 26.5162 26.5268 26.4307 26.0209L25.7607 22.054L28.5992 19.2431C28.9618 18.8844 29.0914 18.3477 28.9356 17.8586C28.7798 17.3696 28.3635 17.0137 27.8631 16.9394L23.9437 16.3607L22.1915 12.7511V12.7525Z" fill="#FBC817"/>
<path d="M16.8766 27.1783C17.0241 27.1783 17.1716 27.1419 17.3012 27.0718L20.9986 25.0961L24.696 27.0718C24.827 27.1419 24.9745 27.1783 25.122 27.1783C25.3164 27.1783 25.5025 27.1167 25.6596 27.0004C25.9436 26.7902 26.0829 26.4427 26.0236 26.091L25.3177 21.9054L28.3107 18.9418C28.5616 18.6924 28.6498 18.328 28.5423 17.9889C28.4334 17.6498 28.1507 17.4074 27.8047 17.357L23.6703 16.746L21.8216 12.9374C21.6658 12.6179 21.3529 12.4189 21.0013 12.4189C20.6498 12.4189 20.3369 12.6179 20.1811 12.9374L18.3324 16.746L14.198 17.357C13.8506 17.4088 13.5679 17.6512 13.4604 17.9889C13.3515 18.328 13.4411 18.6924 13.692 18.9418L16.6836 21.9054L15.9777 26.091C15.9185 26.4427 16.0577 26.7902 16.3417 27.0004C16.4988 27.1167 16.685 27.1783 16.8793 27.1783H16.8766Z" fill="url(#paint12_radial_194_140)"/>
<path d="M16.8766 26.4778C16.9124 26.4778 16.9496 26.468 16.9813 26.4512L20.9999 24.303L25.0186 26.4512C25.0503 26.468 25.0875 26.4778 25.1233 26.4778C25.1716 26.4778 25.2171 26.4624 25.2557 26.4343C25.326 26.3825 25.3604 26.2984 25.3453 26.2101L24.5774 21.6617L27.8281 18.4402C27.8916 18.3785 27.9122 18.2903 27.8847 18.2062C27.8571 18.1207 27.7909 18.0633 27.7027 18.0506L23.2098 17.3864L21.1998 13.2485C21.1612 13.1687 21.0854 13.121 20.9986 13.121C20.9117 13.121 20.8359 13.1687 20.7973 13.2485L18.7873 17.3864L14.2944 18.0506C14.2062 18.0633 14.14 18.1207 14.1125 18.2062C14.0849 18.2903 14.107 18.3785 14.169 18.4402L17.4197 21.6617L16.6518 26.2101C16.6367 26.2984 16.6711 26.3811 16.7415 26.4343C16.7801 26.4638 16.8256 26.4778 16.8738 26.4778H16.8766Z" fill="#EF8C2E"/>
<path d="M16.8766 26.1975C16.9124 26.1975 16.9496 26.1877 16.9813 26.1709L20.9999 24.0228L25.0186 26.1709C25.0503 26.1877 25.0875 26.1975 25.1233 26.1975C25.1716 26.1975 25.2171 26.1821 25.2557 26.1541C25.326 26.1022 25.3604 26.0181 25.3453 25.9299L24.5774 21.3814L27.8281 18.1599C27.8916 18.0983 27.9122 18.01 27.8847 17.9259C27.8571 17.8404 27.7909 17.783 27.7027 17.7704L23.2098 17.1062L21.1998 12.9683C21.1612 12.8884 21.0854 12.8408 20.9986 12.8408C20.9117 12.8408 20.8359 12.8884 20.7973 12.9683L18.7873 17.1062L14.2944 17.7704C14.2062 17.783 14.14 17.8404 14.1125 17.9259C14.0849 18.01 14.107 18.0983 14.169 18.1599L17.4197 21.3814L16.6518 25.9299C16.6367 26.0181 16.6711 26.1008 16.7415 26.1541C16.7801 26.1835 16.8256 26.1975 16.8738 26.1975H16.8766Z" fill="url(#paint13_linear_194_140)"/>
<path d="M26.6357 17.881C27.0603 17.881 27.478 17.9049 27.8902 17.9455C27.9081 18.024 27.8875 18.1024 27.8296 18.1599L24.5788 21.3814L25.3467 25.9298C25.3619 26.0181 25.3274 26.1008 25.2571 26.154C25.2171 26.1835 25.173 26.1975 25.1248 26.1975C25.0889 26.1975 25.0517 26.1877 25.02 26.1709L21.0014 24.0227L16.9828 26.1709C16.9511 26.1877 16.9138 26.1975 16.878 26.1975C16.8297 26.1975 16.7842 26.1821 16.7456 26.154C16.6753 26.1022 16.6409 26.0181 16.656 25.9298L17.1482 23.0124C18.6922 20.0011 22.3579 17.881 26.6371 17.881H26.6357Z" fill="url(#paint14_linear_194_140)"/>
</g>
<g clip-path="url(#clip3_194_140)">
<path d="M95.9966 23.388C96.0063 23.2737 95.9849 23.1602 95.9677 23.1024C95.8898 22.8435 95.6816 22.655 95.4314 22.6157L93.4717 22.3093L92.5956 20.3984C92.484 20.1543 92.2531 20 92.0001 20C91.7471 20 91.5162 20.1543 91.4045 20.3984L90.5284 22.3093L88.5688 22.6157C88.3185 22.655 88.1111 22.8435 88.0325 23.1024C88.0153 23.1602 88.0056 23.2196 88.0022 23.2782H88.0015V23.2856C88.0015 23.2893 88.0015 24.1046 88.0028 24.1187V24.1291C88.0166 24.296 88.0849 24.4555 88.2 24.5764L89.5165 25.9577L89.2829 27.4228C89.2739 27.48 89.2725 27.5371 89.276 27.5935H89.2753L89.2739 28.2589C89.2656 28.4948 89.3663 28.7226 89.5469 28.8635C89.7516 29.0237 90.0225 29.0445 90.2458 28.9177L91.9987 27.9258L93.7516 28.9177C93.9756 29.0445 94.2465 29.023 94.4505 28.8635C94.6118 28.7374 94.7083 28.5423 94.7214 28.3346H94.7221V27.5927H94.7214C94.7249 27.5371 94.7242 27.48 94.7145 27.4228L94.4809 25.9577L95.7974 24.5764C95.9401 24.4266 96.0097 24.2188 95.9946 24.0104V23.3872L95.9966 23.388Z" fill="#D15404"/>
<path d="M95.9966 23.388C96.0063 23.2737 95.9849 23.1602 95.9677 23.1024C95.8898 22.8435 95.6816 22.655 95.4314 22.6157L93.4717 22.3093L92.5956 20.3984C92.484 20.1543 92.2531 20 92.0001 20C91.7471 20 91.5162 20.1543 91.4045 20.3984L90.5284 22.3093L88.5688 22.6157C88.3185 22.655 88.1111 22.8435 88.0325 23.1024C88.0153 23.1602 88.0056 23.2196 88.0022 23.2782H88.0015V23.2856C88.0015 23.2893 88.0015 24.1046 88.0028 24.1187V24.1291C88.0166 24.296 88.0849 24.4555 88.2 24.5764L89.5165 25.9577L89.2829 27.4228C89.2739 27.48 89.2725 27.5371 89.276 27.5935H89.2753L89.2739 28.2589C89.2656 28.4948 89.3663 28.7226 89.5469 28.8635C89.7516 29.0237 90.0225 29.0445 90.2458 28.9177L91.9987 27.9258L93.7516 28.9177C93.9756 29.0445 94.2465 29.023 94.4505 28.8635C94.6118 28.7374 94.7083 28.5423 94.7214 28.3346H94.7221V27.5927H94.7214C94.7249 27.5371 94.7242 27.48 94.7145 27.4228L94.4809 25.9577L95.7974 24.5764C95.9401 24.4266 96.0097 24.2188 95.9946 24.0104V23.3872L95.9966 23.388Z" fill="url(#paint15_linear_194_140)"/>
<path style="mix-blend-mode:multiply" d="M92 27.9266L93.7529 28.9184C93.8225 28.9577 93.897 28.9814 93.9728 28.9926L94.3305 27.9421L92 26.9332V27.9266Z" fill="url(#paint16_linear_194_140)"/>
<path d="M91.4041 20.3984C91.5158 20.1543 91.7467 20 91.9997 20C92.2527 20 92.4836 20.1543 92.5952 20.3984L93.4713 22.3093L95.431 22.6157C95.6812 22.655 95.8887 22.8435 95.9673 23.1024C96.0452 23.3613 95.9804 23.6454 95.7991 23.8353L94.3812 25.3227L94.7162 27.4228C94.7589 27.6907 94.6562 27.9622 94.4522 28.1217C94.2482 28.2812 93.9766 28.3027 93.7533 28.1758L92.0004 27.184L90.2475 28.1758C90.0235 28.3027 89.7526 28.2812 89.5485 28.1217C89.3445 27.9622 89.2418 27.6907 89.2845 27.4228L89.6195 25.3227L88.2003 23.8346C88.019 23.6447 87.9542 23.3605 88.0321 23.1016C88.11 22.8427 88.3181 22.6543 88.5684 22.615L90.528 22.3086L91.4041 20.3976V20.3984Z" fill="#FBC817"/>
<path d="M94.0618 28.0356C93.988 28.0356 93.9143 28.0163 93.8495 27.9792L92.0008 26.9332L90.1521 27.9792C90.0866 28.0163 90.0128 28.0356 89.9391 28.0356C89.8419 28.0356 89.7488 28.003 89.6702 27.9414C89.5283 27.8301 89.4586 27.6461 89.4883 27.4599L89.8412 25.2441L88.3447 23.6751C88.2193 23.543 88.1752 23.3501 88.2289 23.1706C88.2834 22.9911 88.4247 22.8628 88.5977 22.836L90.6649 22.5126L91.5893 20.4963C91.6671 20.3271 91.8236 20.2218 91.9994 20.2218C92.1752 20.2218 92.3316 20.3271 92.4095 20.4963L93.3339 22.5126L95.4011 22.836C95.5748 22.8635 95.7161 22.9918 95.7699 23.1706C95.8243 23.3501 95.7795 23.543 95.6541 23.6751L94.1583 25.2441L94.5112 27.4599C94.5408 27.6461 94.4712 27.8301 94.3292 27.9414C94.2506 28.003 94.1576 28.0356 94.0604 28.0356H94.0618Z" fill="url(#paint17_radial_194_140)"/>
<path d="M94.0618 27.6647C94.0439 27.6647 94.0252 27.6595 94.0094 27.6506L92.0001 26.5133L89.9908 27.6506C89.9749 27.6595 89.9563 27.6647 89.9384 27.6647C89.9143 27.6647 89.8915 27.6565 89.8722 27.6417C89.8371 27.6142 89.8198 27.5697 89.8274 27.523L90.2114 25.115L88.586 23.4095C88.5543 23.3768 88.5439 23.3301 88.5577 23.2856C88.5715 23.2403 88.6046 23.2099 88.6487 23.2032L90.8951 22.8516L91.9001 20.661C91.9194 20.6187 91.9574 20.5934 92.0008 20.5934C92.0442 20.5934 92.0821 20.6187 92.1014 20.661L93.1064 22.8516L95.3528 23.2032C95.397 23.2099 95.43 23.2403 95.4438 23.2856C95.4576 23.3301 95.4466 23.3768 95.4156 23.4095L93.7902 25.115L94.1741 27.523C94.1817 27.5697 94.1645 27.6135 94.1293 27.6417C94.11 27.6572 94.0873 27.6647 94.0632 27.6647H94.0618Z" fill="#EF8C2E"/>
<path d="M94.0618 27.5163C94.0439 27.5163 94.0252 27.5112 94.0094 27.5023L92.0001 26.365L89.9908 27.5023C89.9749 27.5112 89.9563 27.5163 89.9384 27.5163C89.9143 27.5163 89.8915 27.5082 89.8722 27.4933C89.8371 27.4659 89.8198 27.4214 89.8274 27.3747L90.2114 24.9666L88.586 23.2612C88.5543 23.2285 88.5439 23.1818 88.5577 23.1373C88.5715 23.092 88.6046 23.0616 88.6487 23.0549L90.8951 22.7033L91.9001 20.5126C91.9194 20.4704 91.9574 20.4451 92.0008 20.4451C92.0442 20.4451 92.0821 20.4704 92.1014 20.5126L93.1064 22.7033L95.3528 23.0549C95.397 23.0616 95.43 23.092 95.4438 23.1373C95.4576 23.1818 95.4466 23.2285 95.4156 23.2612L93.7902 24.9666L94.1741 27.3747C94.1817 27.4214 94.1645 27.4652 94.1293 27.4933C94.11 27.5089 94.0873 27.5163 94.0632 27.5163H94.0618Z" fill="url(#paint18_linear_194_140)"/>
<path d="M89.1821 23.1135C88.9698 23.1135 88.761 23.1261 88.5549 23.1476C88.5459 23.1892 88.5563 23.2307 88.5852 23.2612L90.2106 24.9666L89.8266 27.3747C89.8191 27.4214 89.8363 27.4652 89.8714 27.4933C89.8914 27.5089 89.9135 27.5163 89.9376 27.5163C89.9555 27.5163 89.9742 27.5112 89.99 27.5022L91.9993 26.365L94.0086 27.5022C94.0245 27.5112 94.0431 27.5163 94.061 27.5163C94.0851 27.5163 94.1079 27.5082 94.1272 27.4933C94.1623 27.4659 94.1796 27.4214 94.172 27.3747L93.9259 25.8301C93.1539 24.2359 91.321 23.1135 89.1815 23.1135H89.1821Z" fill="url(#paint19_linear_194_140)"/>
</g>
<g clip-path="url(#clip4_194_140)">
<path d="M7.99664 23.388C8.00629 23.2737 7.98492 23.1602 7.96769 23.1024C7.8898 22.8435 7.68163 22.655 7.43142 22.6157L5.47174 22.3093L4.59564 20.3984C4.48397 20.1543 4.25306 20 4.00009 20C3.74711 20 3.5162 20.1543 3.40453 20.3984L2.52843 22.3093L0.568758 22.6157C0.318542 22.655 0.111063 22.8435 0.0324833 23.1024C0.0152508 23.1602 0.00560064 23.2196 0.00215414 23.2782H0.00146484V23.2856C0.00146484 23.2893 0.00146484 24.1046 0.00284344 24.1187V24.1291C0.0166294 24.296 0.08487 24.4555 0.199983 24.5764L1.51654 25.9577L1.28287 27.4228C1.27391 27.48 1.27253 27.5371 1.27598 27.5935H1.27529L1.27391 28.2589C1.26564 28.4948 1.36628 28.7226 1.54687 28.8635C1.75159 29.0237 2.02249 29.0445 2.24582 28.9177L3.99871 27.9258L5.75159 28.9177C5.97562 29.0445 6.24651 29.023 6.45054 28.8635C6.61184 28.7374 6.70834 28.5423 6.72144 28.3346H6.72213V27.5927H6.72144C6.72488 27.5371 6.7242 27.48 6.71454 27.4228L6.48087 25.9577L7.79743 24.5764C7.94012 24.4266 8.00974 24.2188 7.99457 24.0104V23.3872L7.99664 23.388Z" fill="#D15404"/>
<path d="M7.99664 23.388C8.00629 23.2737 7.98492 23.1602 7.96769 23.1024C7.8898 22.8435 7.68163 22.655 7.43142 22.6157L5.47174 22.3093L4.59564 20.3984C4.48397 20.1543 4.25306 20 4.00009 20C3.74711 20 3.5162 20.1543 3.40453 20.3984L2.52843 22.3093L0.568758 22.6157C0.318542 22.655 0.111063 22.8435 0.0324833 23.1024C0.0152508 23.1602 0.00560064 23.2196 0.00215414 23.2782H0.00146484V23.2856C0.00146484 23.2893 0.00146484 24.1046 0.00284344 24.1187V24.1291C0.0166294 24.296 0.08487 24.4555 0.199983 24.5764L1.51654 25.9577L1.28287 27.4228C1.27391 27.48 1.27253 27.5371 1.27598 27.5935H1.27529L1.27391 28.2589C1.26564 28.4948 1.36628 28.7226 1.54687 28.8635C1.75159 29.0237 2.02249 29.0445 2.24582 28.9177L3.99871 27.9258L5.75159 28.9177C5.97562 29.0445 6.24651 29.023 6.45054 28.8635C6.61184 28.7374 6.70834 28.5423 6.72144 28.3346H6.72213V27.5927H6.72144C6.72488 27.5371 6.7242 27.48 6.71454 27.4228L6.48087 25.9577L7.79743 24.5764C7.94012 24.4266 8.00974 24.2188 7.99457 24.0104V23.3872L7.99664 23.388Z" fill="url(#paint20_linear_194_140)"/>
<path style="mix-blend-mode:multiply" d="M4 27.9266L5.75289 28.9184C5.82251 28.9577 5.89695 28.9814 5.97277 28.9926L6.33052 27.9421L4 26.9332V27.9266Z" fill="url(#paint21_linear_194_140)"/>
<path d="M3.40413 20.3984C3.51579 20.1543 3.74671 20 3.99968 20C4.25265 20 4.48357 20.1543 4.59523 20.3984L5.47133 22.3093L7.43101 22.6157C7.68122 22.655 7.8887 22.8435 7.96728 23.1024C8.04517 23.3613 7.98038 23.6454 7.7991 23.8353L6.38121 25.3227L6.71621 27.4228C6.75894 27.6907 6.65624 27.9622 6.45221 28.1217C6.24817 28.2812 5.97659 28.3027 5.75326 28.1758L4.00037 27.184L2.24748 28.1758C2.02346 28.3027 1.75257 28.2812 1.54853 28.1217C1.3445 27.9622 1.2418 27.6907 1.28453 27.4228L1.61953 25.3227L0.200266 23.8346C0.0189809 23.6447 -0.0458132 23.3605 0.0320776 23.1016C0.109968 22.8427 0.318137 22.6543 0.568352 22.615L2.52803 22.3086L3.40413 20.3976V20.3984Z" fill="#FBC817"/>
<path d="M6.06177 28.0356C5.98802 28.0356 5.91426 28.0163 5.84947 27.9792L4.00077 26.9332L2.15207 27.9792C2.08659 28.0163 2.01283 28.0356 1.93908 28.0356C1.84188 28.0356 1.74883 28.003 1.67025 27.9414C1.52825 27.8301 1.45863 27.6461 1.48827 27.4599L1.8412 25.2441L0.344728 23.6751C0.219276 23.543 0.175161 23.3501 0.228926 23.1706C0.283381 22.9911 0.424687 22.8628 0.597701 22.836L2.66491 22.5126L3.58926 20.4963C3.66715 20.3271 3.82362 20.2218 3.99939 20.2218C4.17516 20.2218 4.33163 20.3271 4.40952 20.4963L5.33387 22.5126L7.40108 22.836C7.57478 22.8635 7.71609 22.9918 7.76985 23.1706C7.82431 23.3501 7.7795 23.543 7.65405 23.6751L6.15827 25.2441L6.51119 27.4599C6.54083 27.6461 6.47121 27.8301 6.32922 27.9414C6.25064 28.003 6.15758 28.0356 6.06039 28.0356H6.06177Z" fill="url(#paint22_radial_194_140)"/>
<path d="M6.06178 27.6647C6.04386 27.6647 6.02525 27.6595 6.0094 27.6506L4.00009 26.5133L1.99078 27.6506C1.97493 27.6595 1.95632 27.6647 1.9384 27.6647C1.91427 27.6647 1.89153 27.6565 1.87222 27.6417C1.83707 27.6142 1.81984 27.5697 1.82742 27.523L2.21136 25.115L0.585993 23.4095C0.554286 23.3768 0.543946 23.3301 0.557732 23.2856C0.571518 23.2403 0.604604 23.2099 0.648719 23.2032L2.89514 22.8516L3.90014 20.661C3.91944 20.6187 3.95735 20.5934 4.00078 20.5934C4.0442 20.5934 4.08212 20.6187 4.10142 20.661L5.10641 22.8516L7.35284 23.2032C7.39695 23.2099 7.43004 23.2403 7.44383 23.2856C7.45761 23.3301 7.44658 23.3768 7.41556 23.4095L5.7902 25.115L6.17414 27.523C6.18172 27.5697 6.16449 27.6135 6.12933 27.6417C6.11003 27.6572 6.08729 27.6647 6.06316 27.6647H6.06178Z" fill="#EF8C2E"/>
<path d="M6.06178 27.5163C6.04386 27.5163 6.02525 27.5112 6.0094 27.5023L4.00009 26.365L1.99078 27.5023C1.97493 27.5112 1.95632 27.5163 1.9384 27.5163C1.91427 27.5163 1.89153 27.5082 1.87222 27.4933C1.83707 27.4659 1.81984 27.4214 1.82742 27.3747L2.21136 24.9666L0.585993 23.2612C0.554286 23.2285 0.543946 23.1818 0.557732 23.1373C0.571518 23.092 0.604604 23.0616 0.648719 23.0549L2.89514 22.7033L3.90014 20.5126C3.91944 20.4704 3.95735 20.4451 4.00078 20.4451C4.0442 20.4451 4.08212 20.4704 4.10142 20.5126L5.10641 22.7033L7.35284 23.0549C7.39695 23.0616 7.43004 23.092 7.44383 23.1373C7.45761 23.1818 7.44658 23.2285 7.41556 23.2612L5.7902 24.9666L6.17414 27.3747C6.18172 27.4214 6.16449 27.4652 6.12933 27.4933C6.11003 27.5089 6.08729 27.5163 6.06316 27.5163H6.06178Z" fill="url(#paint23_linear_194_140)"/>
<path d="M1.18215 23.1135C0.969845 23.1135 0.760987 23.1261 0.554887 23.1476C0.545926 23.1892 0.556265 23.2307 0.585216 23.2612L2.21058 24.9666L1.82664 27.3747C1.81906 27.4214 1.83629 27.4652 1.87145 27.4933C1.89144 27.5089 1.91349 27.5163 1.93762 27.5163C1.95554 27.5163 1.97415 27.5112 1.99001 27.5022L3.99931 26.365L6.00862 27.5022C6.02447 27.5112 6.04308 27.5163 6.061 27.5163C6.08513 27.5163 6.10788 27.5082 6.12718 27.4933C6.16233 27.4659 6.17956 27.4214 6.17198 27.3747L5.9259 25.8301C5.15389 24.2359 3.32104 23.1135 1.18146 23.1135H1.18215Z" fill="url(#paint24_linear_194_140)"/>
</g>
<defs>
<linearGradient id="paint0_linear_194_140" x1="35.602" y1="18.7262" x2="62.9144" y2="11.3794" gradientUnits="userSpaceOnUse">
<stop stop-color="#FAEC89"/>
<stop offset="0.16" stop-color="#D15404" stop-opacity="0"/>
<stop offset="0.19" stop-color="#FAEC89"/>
<stop offset="0.53" stop-color="#D15404" stop-opacity="0"/>
<stop offset="0.75" stop-color="#D15404" stop-opacity="0"/>
<stop offset="0.8" stop-color="#FAEC89"/>
<stop offset="1" stop-color="#D15404" stop-opacity="0"/>
</linearGradient>
<linearGradient id="paint1_linear_194_140" x1="54.6297" y1="26.9562" x2="48.9362" y2="24.6562" gradientUnits="userSpaceOnUse">
<stop stop-color="#D15404" stop-opacity="0"/>
<stop offset="1" stop-color="#EF8C2E"/>
</linearGradient>
<radialGradient id="paint2_radial_194_140" cx="0" cy="0" r="1" gradientUnits="userSpaceOnUse" gradientTransform="translate(48.1616 15.2171) scale(13.9928 13.8642)">
<stop stop-color="#FBC817" stop-opacity="0"/>
<stop offset="1" stop-color="#EF8C2E"/>
</radialGradient>
<linearGradient id="paint3_linear_194_140" x1="50.0483" y1="3.76004" x2="46.2455" y2="15.9997" gradientUnits="userSpaceOnUse">
<stop stop-color="#FAEC89"/>
<stop offset="1" stop-color="#FBC817"/>
</linearGradient>
<linearGradient id="paint4_linear_194_140" x1="47.8046" y1="10.6085" x2="43.5914" y2="24.1674" gradientUnits="userSpaceOnUse">
<stop stop-color="#FAEC89"/>
<stop offset="1" stop-color="#FBC817" stop-opacity="0"/>
</linearGradient>
<linearGradient id="paint5_linear_194_140" x1="82.0846" y1="22.9774" x2="66.4248" y2="18.8713" gradientUnits="userSpaceOnUse">
<stop stop-color="#FAEC89"/>
<stop offset="0.16" stop-color="#D15404" stop-opacity="0"/>
<stop offset="0.19" stop-color="#FAEC89"/>
<stop offset="0.53" stop-color="#D15404" stop-opacity="0"/>
<stop offset="0.75" stop-color="#D15404" stop-opacity="0"/>
<stop offset="0.8" stop-color="#FAEC89"/>
<stop offset="1" stop-color="#D15404" stop-opacity="0"/>
</linearGradient>
<linearGradient id="paint6_linear_194_140" x1="71.2116" y1="27.8019" x2="74.4879" y2="26.5118" gradientUnits="userSpaceOnUse">
<stop stop-color="#D15404" stop-opacity="0"/>
<stop offset="1" stop-color="#EF8C2E"/>
</linearGradient>
<radialGradient id="paint7_radial_194_140" cx="0" cy="0" r="1" gradientUnits="userSpaceOnUse" gradientTransform="translate(74.9076 20.9203) rotate(180) scale(7.99586 8.12727)">
<stop stop-color="#FBC817" stop-opacity="0"/>
<stop offset="1" stop-color="#EF8C2E"/>
</radialGradient>
<linearGradient id="paint8_linear_194_140" x1="73.8295" y1="14.2042" x2="76.1059" y2="21.3462" gradientUnits="userSpaceOnUse">
<stop stop-color="#FAEC89"/>
<stop offset="1" stop-color="#FBC817"/>
</linearGradient>
<linearGradient id="paint9_linear_194_140" x1="75.1117" y1="18.2187" x2="77.6337" y2="26.1306" gradientUnits="userSpaceOnUse">
<stop stop-color="#FAEC89"/>
<stop offset="1" stop-color="#FBC817" stop-opacity="0"/>
</linearGradient>
<linearGradient id="paint10_linear_194_140" x1="28.0846" y1="22.9774" x2="12.4248" y2="18.8713" gradientUnits="userSpaceOnUse">
<stop stop-color="#FAEC89"/>
<stop offset="0.16" stop-color="#D15404" stop-opacity="0"/>
<stop offset="0.19" stop-color="#FAEC89"/>
<stop offset="0.53" stop-color="#D15404" stop-opacity="0"/>
<stop offset="0.75" stop-color="#D15404" stop-opacity="0"/>
<stop offset="0.8" stop-color="#FAEC89"/>
<stop offset="1" stop-color="#D15404" stop-opacity="0"/>
</linearGradient>
<linearGradient id="paint11_linear_194_140" x1="17.2116" y1="27.8019" x2="20.4879" y2="26.5118" gradientUnits="userSpaceOnUse">
<stop stop-color="#D15404" stop-opacity="0"/>
<stop offset="1" stop-color="#EF8C2E"/>
</linearGradient>
<radialGradient id="paint12_radial_194_140" cx="0" cy="0" r="1" gradientUnits="userSpaceOnUse" gradientTransform="translate(20.9076 20.9203) rotate(180) scale(7.99586 8.12727)">
<stop stop-color="#FBC817" stop-opacity="0"/>
<stop offset="1" stop-color="#EF8C2E"/>
</radialGradient>
<linearGradient id="paint13_linear_194_140" x1="19.8295" y1="14.2042" x2="22.1059" y2="21.3462" gradientUnits="userSpaceOnUse">
<stop stop-color="#FAEC89"/>
<stop offset="1" stop-color="#FBC817"/>
</linearGradient>
<linearGradient id="paint14_linear_194_140" x1="21.1117" y1="18.2187" x2="23.6337" y2="26.1306" gradientUnits="userSpaceOnUse">
<stop stop-color="#FAEC89"/>
<stop offset="1" stop-color="#FBC817" stop-opacity="0"/>
</linearGradient>
<linearGradient id="paint15_linear_194_140" x1="88.4578" y1="25.8116" x2="96.3424" y2="23.859" gradientUnits="userSpaceOnUse">
<stop stop-color="#FAEC89"/>
<stop offset="0.16" stop-color="#D15404" stop-opacity="0"/>
<stop offset="0.19" stop-color="#FAEC89"/>
<stop offset="0.53" stop-color="#D15404" stop-opacity="0"/>
<stop offset="0.75" stop-color="#D15404" stop-opacity="0"/>
<stop offset="0.8" stop-color="#FAEC89"/>
<stop offset="1" stop-color="#D15404" stop-opacity="0"/>
</linearGradient>
<linearGradient id="paint16_linear_194_140" x1="93.8942" y1="28.3657" x2="92.232" y2="27.7475" gradientUnits="userSpaceOnUse">
<stop stop-color="#D15404" stop-opacity="0"/>
<stop offset="1" stop-color="#EF8C2E"/>
</linearGradient>
<radialGradient id="paint17_radial_194_140" cx="0" cy="0" r="1" gradientUnits="userSpaceOnUse" gradientTransform="translate(92.0463 24.7225) scale(3.99793 4.30267)">
<stop stop-color="#FBC817" stop-opacity="0"/>
<stop offset="1" stop-color="#EF8C2E"/>
</radialGradient>
<linearGradient id="paint18_linear_194_140" x1="92.5853" y1="21.1669" x2="91.3234" y2="24.9062" gradientUnits="userSpaceOnUse">
<stop stop-color="#FAEC89"/>
<stop offset="1" stop-color="#FBC817"/>
</linearGradient>
<linearGradient id="paint19_linear_194_140" x1="91.9442" y1="23.2923" x2="90.546" y2="27.4346" gradientUnits="userSpaceOnUse">
<stop stop-color="#FAEC89"/>
<stop offset="1" stop-color="#FBC817" stop-opacity="0"/>
</linearGradient>
<linearGradient id="paint20_linear_194_140" x1="0.457781" y1="25.8116" x2="8.34243" y2="23.859" gradientUnits="userSpaceOnUse">
<stop stop-color="#FAEC89"/>
<stop offset="0.16" stop-color="#D15404" stop-opacity="0"/>
<stop offset="0.19" stop-color="#FAEC89"/>
<stop offset="0.53" stop-color="#D15404" stop-opacity="0"/>
<stop offset="0.75" stop-color="#D15404" stop-opacity="0"/>
<stop offset="0.8" stop-color="#FAEC89"/>
<stop offset="1" stop-color="#D15404" stop-opacity="0"/>
</linearGradient>
<linearGradient id="paint21_linear_194_140" x1="5.89419" y1="28.3657" x2="4.23195" y2="27.7475" gradientUnits="userSpaceOnUse">
<stop stop-color="#D15404" stop-opacity="0"/>
<stop offset="1" stop-color="#EF8C2E"/>
</linearGradient>
<radialGradient id="paint22_radial_194_140" cx="0" cy="0" r="1" gradientUnits="userSpaceOnUse" gradientTransform="translate(4.04626 24.7225) scale(3.99793 4.30267)">
<stop stop-color="#FBC817" stop-opacity="0"/>
<stop offset="1" stop-color="#EF8C2E"/>
</radialGradient>
<linearGradient id="paint23_linear_194_140" x1="4.5853" y1="21.1669" x2="3.32337" y2="24.9062" gradientUnits="userSpaceOnUse">
<stop stop-color="#FAEC89"/>
<stop offset="1" stop-color="#FBC817"/>
</linearGradient>
<linearGradient id="paint24_linear_194_140" x1="3.94417" y1="23.2923" x2="2.54605" y2="27.4346" gradientUnits="userSpaceOnUse">
<stop stop-color="#FAEC89"/>
<stop offset="1" stop-color="#FBC817" stop-opacity="0"/>
</linearGradient>
<clipPath id="clip0_194_140">
<rect width="28" height="29" fill="white" transform="translate(34)"/>
</clipPath>
<clipPath id="clip1_194_140">
<rect width="16" height="17" fill="white" transform="matrix(-1 0 0 1 83 12)"/>
</clipPath>
<clipPath id="clip2_194_140">
<rect width="16" height="17" fill="white" transform="matrix(-1 0 0 1 29 12)"/>
</clipPath>
<clipPath id="clip3_194_140">
<rect width="8" height="9" fill="white" transform="translate(88 20)"/>
</clipPath>
<clipPath id="clip4_194_140">
<rect width="8" height="9" fill="white" transform="translate(0 20)"/>
</clipPath>
</defs>
</svg>
